{
.appVersion = "3260";
.formatVersion = 3;
DisplayStrings = (
"ink
Aniva Ink
Aninka 
Anika Aniko Anico
Katinka Sans
Catinca
Anic Sans
Ink Sans
Inky Sans
Cosmic Sans
Comink Sans
Comisch Sans
Komisch Sans haha!
Conic Sans
Conni Sans
Con Sans = mitohne
Conis
Consens
Ink Sans // Ink Hand // Ink Serif?
Inkish Sans
Inky Sans
Ginko
ginko
Ingo Kingo twingo Flamingo
king kink sink 
blink Blink bling
octopus pelikan
inka
inko ginko pinko Anke anke 
Inke inky inko inke
Katinka catinka
hand peng
abcdefghjklmnopqrstuvwxyz  
typografie
simonatzbach  ",
"Winky-winky
BEIFANG
Hamburgefonts 
the quick brown fox jumps over the lazy dog.
THE QUICK BROWN FOX JUMPS OVER THE LAZY DOG",
"//ups!",
"/backslash",
"ÇÇÇÇÍÍÍÍÎÎÎÎÏÏÏÏÌÌÌÌŠŠŠŠÚÚÛÛÜÜÙÙÝÝÝÝŸŸŸŸŽŽááááââââààààååååãããã™™ĈĈĈĈĜĜĜĜĲĲĲĲ/Jacute/Jacute/Jacute/Jacute ĴĴĴĴŚŚŚŚŞŞŞŞŜŜŜŜŬŬẂŴẄẀŶŶŶŶỲỲỲỲŹŹŻŻăăăăāāāāąąąą",
";)",
Ii
);
axes = (
{
name = Weight;
tag = wght;
}
);
classes = (
{
automatic = 1;
code = "H I H.salt I.salt";
name = Uppercase;
}
);
customParameters = (
{
name = panose;
value = (
0,
0,
5,
0,
0,
0,
0,
0,
0,
0
);
},
{
name = unicodeRanges;
value = (
0,
1
);
},
{
name = codePageRanges;
value = (
"1252",
"bit 29"
);
},
{
name = blueScale;
value = 0.037;
},
{
name = glyphOrder;
value = (
.notdef,
A,
Aacute,
Acircumflex,
Adieresis,
Agrave,
Aring,
Atilde,
AE,
B,
C,
Ccedilla,
D,
Eth,
E,
Eacute,
Ecircumflex,
Edieresis,
Egrave,
F,
G,
H,
I,
Iacute,
Icircumflex,
Idieresis,
Igrave,
J,
K,
L,
Lslash,
M,
N,
Ntilde,
O,
Oacute,
Ocircumflex,
Odieresis,
Ograve,
Oslash,
Otilde,
OE,
P,
Thorn,
Q,
R,
S,
Scaron,
T,
U,
Uacute,
Ucircumflex,
Udieresis,
Ugrave,
V,
W,
X,
Y,
Yacute,
Ydieresis,
Z,
Zcaron,
a,
aacute,
acircumflex,
adieresis,
agrave,
aring,
atilde,
ae,
b,
c,
ccedilla,
d,
eth,
e,
eacute,
ecircumflex,
edieresis,
egrave,
f,
g,
h,
i,
dotlessi,
iacute,
icircumflex,
idieresis,
igrave,
j,
k,
l,
lslash,
m,
n,
ntilde,
o,
oacute,
ocircumflex,
odieresis,
ograve,
oslash,
otilde,
oe,
p,
thorn,
q,
r,
s,
scaron,
germandbls,
t,
u,
uacute,
ucircumflex,

glyphs = (
{
glyphname = .notdef;
lastChange = "2024-03-31 16:26:29 +0000";
layers = (
{
layerId = m005;
shapes = (
{
closed = 1;
nodes = (
(550,0,l),
(545,700,l),
(50,700,l),
(54,0,l)
);
},
{
closed = 1;
nodes = (
(75,675,l),
(525,675,l),
(525,25,l),
(75,25,l)
);
}
);
width = 600;
},
{
layerId = m002;
shapes = (
{
closed = 1;
nodes = (
(550,0,l),
(545,700,l),
(50,700,l),
(54,0,l)
);
},
{
closed = 1;
nodes = (
(75,675,l),
(525,675,l),
(525,25,l),
(75,25,l)
);
}
);
width = 600;
},
{
layerId = m003;
shapes = (
{
closed = 1;
nodes = (
(550,0,l),
(545,700,l),
(50,700,l),
(54,0,l)
);
},
{
closed = 1;
nodes = (
(75,675,l),
(525,675,l),
(525,25,l),
(75,25,l)
);
}
);
width = 600;
}
);
note = .notdef;
},
{
glyphname = A;
kernLeft = A;
kernRight = A;
lastChange = "2024-03-31 16:24:10 +0000";
layers = (
{
anchors = (
{
name = bottom;
pos = (275,0);
},
{
name = ogonek;
pos = (495,10);
},
{
name = top;
pos = (275,625);
}
);
hints = (
{
horizontal = 1;
place = (0,21);
target = up;
type = BottomGhost;
},
{
horizontal = 1;
place = (150,75);
type = Stem;
},
{
horizontal = 1;
place = (557,110);
type = Stem;
},
{
place = (12,516);
type = Stem;
}
);
layerId = m005;
shapes = (
{
closed = 1;
nodes = (
(110,0,o),
(130,16,o),
(136,48,cs),
(141,77,o),
(147,106,o),
(153,134,cs),
(154,140,o),
(158,143,o),
(164,143,cs),
(238,146,o),
(312,147,o),
(385,147,cs),
(391,147,o),
(395,144,o),
(396,138,cs),
(402,113,o),
(407,87,o),
(412,62,cs),
(420,21,o),
(440,0,o),
(478,0,cs),
(512,0,o),
(528,22,o),
(519,59,cs),
(474,243,o),
(411,451,o),
(340,633,cs),
(329,663,o),
(308,677,o),
(276,677,cs),
(242,677,o),
(221,663,o),
(210,633,cs),
(161,508,o),
(116,370,o),
(77,235,cs),
(76,230,o),
(72,227,o),
(66,227,cs),
(39,227,ls),
(14,227,o),
(0,213,o),
(0,188,cs),
(0,186,ls),
(0,161,o),
(14,135,o),
(39,137,cs),
(41,137,o),
(43,137,o),
(45,138,cs),
(49,138,o),
(50,133,o),
(48,126,cs),
(42,103,o),
(36,81,o),
(31,59,cs),
(22,22,o),
(40,0,o),
(77,0,cs)
);
},
{
closed = 1;
nodes = (
(178,227,o),
(175,231,o),
(177,238,cs),
(203,354,o),
(235,463,o),
(268,550,cs),
(272,558,o),
(278,558,o),
(282,550,cs),
(314,464,o),
(345,359,o),
(372,246,cs),
(374,238,o),
(371,233,o),
(364,232,cs),
(305,229,o),
(245,228,o),
(185,227,cs)
);
}
);
width = 550;
},
{
anchors = (
{
name = bottom;
pos = (325,0);
},
{
name = ogonek;
pos = (545,10);
},
{
name = top;
pos = (325,625);
}
);
hints = (
{
horizontal = 1;
place = (0,21);
target = up;
type = BottomGhost;
},
{
horizontal = 1;
place = (150,75);
type = Stem;
},
{
horizontal = 1;
place = (557,110);
type = Stem;
},
{
place = (12,516);
type = Stem;
}
);
layerId = m002;
shapes = (
{
closed = 1;
nodes = (
(184,-25,o),
(230,8,o),
(235,64,cs),
(236,75,o),
(235,70,o),
(236,75,cs),
(239,90,o),
(253,93,o),
(265,93,cs),
(339,96,o),
(322,97,o),
(395,97,cs),
(405,97,o),
(410,91,o),
(412,84,cs),
(414,76,o),
(414,77,o),
(414,77,cs),
(419,13,o),
(469,-25,o),
(528,-25,cs),
(594,-25,o),
(634,27,o),
(618,96,cs),
(572,281,o),
(508,432,o),
(437,616,cs),
(418,665,o),
(379,692,o),
(326,692,cs),
(271,692,o),
(232,665,o),
(213,616,cs),
(164,489,o),
(138,440,o),
(98,304,cs),
(93,287,o),
(87,277,o),
(76,277,cs),
(66,277,ls),
(41,277,o),
(0,241,o),
(0,188,cs),
(0,186,ls),
(0,132,o),
(15,134,o),
(27,116,cs),
(29,113,o),
(32,111,o),
(33,108,cs),
(34,105,o),
(34,105,o),
(34,101,cs),
(34,101,o),
(32,95,o),
(32,95,cs),
(10,29,o),
(58,-25,o),
(127,-25,cs)
);
},
{
closed = 1;
nodes = (
(294,277,o),
(293,293,o),
(296,310,cs),
(301,338,o),
(305,351,o),
(317,379,cs),
(322,390,o),
(329,384,o),
(331,379,cs),
(340,356,o),
(344,334,o),
(352,307,cs),
(355,296,o),
(352,283,o),
(336,279,cs),
(324,276,o),
(317,277,o),
(305,277,cs)
);
}
);
width = 622;
},
{
anchors = (
{
name = bottom;
pos = (275,0);
},
{
name = ogonek;
pos = (495,10);
},
{
name = top;
pos = (275,625);
}
);
hints = (
{
horizontal = 1;
place = (0,21);
target = up;
type = BottomGhost;
},
{
horizontal = 1;
place = (150,75);
type = Stem;
},
{
horizontal = 1;
place = (557,110);
type = Stem;
},
{
place = (12,516);
type = Stem;
}
);
layerId = m003;
shapes = (
{
closed = 1;
nodes = (
(106,0,o),
(121,11,o),
(126,40,cs),
(133,76,o),
(139,111,o),
(147,147,cs),
(148,151,o),
(150,153,o),
(154,153,cs),
(235,157,o),
(315,157,o),
(395,157,cs),
(399,157,o),
(401,156,o),
(402,151,cs),
(409,119,o),
(415,86,o),
(422,54,cs),
(429,16,o),
(444,0,o),
(478,0,cs),
(507,0,o),
(517,14,o),
(509,47,cs),
(464,230,o),
(402,455,o),
(331,636,cs),
(321,663,o),
(305,674,o),
(276,674,cs),
(245,674,o),
(229,663,o),
(219,636,cs),
(170,510,o),
(124,362,o),
(87,223,cs),
(86,219,o),
(83,217,o),
(79,217,cs),
(39,217,ls),
(18,217,o),
(10,209,o),
(10,188,cs),
(10,186,ls),
(10,164,o),
(20,145,o),
(38,147,cs),
(45,148,o),
(52,148,o),
(59,148,cs),
(64,149,o),
(66,146,o),
(65,141,cs),
(57,109,o),
(48,77,o),
(41,47,cs),
(33,14,o),
(45,0,o),
(77,0,cs)
);
},
{
closed = 1;
nodes = (
(165,217,o),
(163,220,o),
(164,225,cs),
(195,362,o),
(232,493,o),
(270,590,cs),
(273,595,o),
(277,595,o),
(280,589,cs),
(317,495,o),
(352,367,o),
(384,233,cs),
(385,227,o),
(383,223,o),
(378,223,cs),
(310,219,o),
(239,218,o),
(170,217,cs)
);
}
);
width = 550;
}
);
note = A;
unicode = 65;
},
{
export = 0;
glyphname = AE;
lastChange = "2024-02-03 22:32:44 +0000";
layers = (
{
hints = (
{
horizontal = 1;
place = (0,75);
type = Stem;
},
{
horizontal = 1;
place = (150,75);
type = Stem;
},
{
horizontal = 1;
place = (305,74);
type = Stem;
},
{
horizontal = 1;
place = (592,75);
type = Stem;
},
{
place = (389,100);
type = Stem;
}
);
layerId = m005;
shapes = (
{
closed = 1;
nodes = (
(465,667,l),
(369,667,l),
(232,445,o),
(114,222,o),
(17,0,c),
(117,0,l),
(190,186,o),
(281,371,o),
(394,557,c)
);
},
{
closed = 1;
nodes = (
(146,147,l),
(467,147,l),
(484,227,l),
(163,227,l)
);
},
{
pos = (334,0);
ref = E;
}
);
width = 824;
},
{
hints = (
{
horizontal = 1;
place = (0,75);
type = Stem;
},
{
horizontal = 1;
place = (150,75);
type = Stem;
},
{
horizontal = 1;
place = (305,74);
type = Stem;
},
{
horizontal = 1;
place = (592,75);
type = Stem;
},
{
place = (389,100);
type = Stem;
}
);
layerId = m002;
shapes = (
{
closed = 1;
nodes = (
(465,667,l),
(369,667,l),
(232,445,o),
(114,222,o),
(17,0,c),
(117,0,l),
(190,186,o),
(281,371,o),
(394,557,c)
);
},
{
closed = 1;
nodes = (
(146,147,l),
(467,147,l),
(484,227,l),
(163,227,l)
);
},
{
pos = (334,0);
ref = E;
}
);
width = 824;
},
{
hints = (
{
horizontal = 1;
place = (0,75);
type = Stem;
},
{
horizontal = 1;
place = (150,75);
type = Stem;
},
{
horizontal = 1;
place = (305,74);
type = Stem;
},
{
horizontal = 1;
place = (592,75);
type = Stem;
},
{
place = (389,100);
type = Stem;
}
);
layerId = m003;
shapes = (
{
closed = 1;
nodes = (
(465,667,l),
(369,667,l),
(232,445,o),
(114,222,o),
(17,0,c),
(117,0,l),
(190,186,o),
(281,371,o),
(394,557,c)
);
},
{
closed = 1;
nodes = (
(146,147,l),
(467,147,l),
(484,227,l),
(163,227,l)
);
},
{
pos = (334,0);
ref = E;
}
);
width = 824;
}
);
metricLeft = "=A";
metricRight = "=E";
note = AE;
unicode = 198;
},
{
glyphname = B;
lastChange = "2024-03-03 19:59:41 +0000";
layers = (
{
hints = (
{
horizontal = 1;
place = (0,21);
target = up;
type = BottomGhost;
},
{
horizontal = 1;
place = (282,67);
type = Stem;
},
{
horizontal = 1;
place = (598,69);
type = Stem;
},
{
place = (70,100);
type = Stem;
},
{
place = (406,99);
type = Stem;
}
);
layerId = m005;
shapes = (
{
closed = 1;
nodes = (
(281,0,ls),
(445,0,o),
(546,68,o),
(536,190,cs),
(530,257,o),
(503,307,o),
(442,336,cs),
(435,340,o),
(435,344,o),
(442,348,cs),
(494,376,o),
(521,422,o),
(521,484,cs),
(521,602,o),
(435,675,o),
(281,677,cs),
(216,678,o),
(114,673,o),
(75,667,cs),
(44,662,o),
(21,639,o),
(26,608,cs),
(32,569,o),
(78,585,o),
(79,576,cs),
(92,486,o),
(85,220,o),
(76,49,cs),
(74,18,o),
(104,0,o),
(135,0,cs)
);
},
{
closed = 1;
nodes = (
(190,90,o),
(186,94,o),
(186,100,cs),
(186,290,ls),
(186,296,o),
(190,300,o),
(196,300,cs),
(282,300,ls),
(387,300,o),
(437,265,o),
(437,190,cs),
(437,115,o),
(387,90,o),
(282,90,cs),
(196,90,ls)
);
},
{
closed = 1;
nodes = (
(191,380,o),
(187,383,o),
(187,390,cs),
(187,452,o),
(178,513,o),
(178,576,cs),
(178,583,o),
(182,587,o),
(188,587,cs),
(282,587,ls),
(377,587,o),
(422,554,o),
(422,484,cs),
(422,413,o),
(377,380,o),
(282,380,cs),
(197,380,ls)
);
}
);
width = 550;
},
{
hints = (
{
horizontal = 1;
place = (0,21);
target = up;
type = BottomGhost;
},
{
horizontal = 1;
place = (282,67);
type = Stem;
},
{
horizontal = 1;
place = (598,69);
type = Stem;
},
{
place = (70,100);
type = Stem;
},
{
place = (406,99);
type = Stem;
}
);
layerId = m002;
shapes = (
{
closed = 1;
nodes = (
(331,-15,ls),
(518,-15,o),
(649,72,o),
(636,229,cs),
(633,269,o),
(622,290,o),
(604,310,cs),
(583,335,o),
(583,355,o),
(602,381,cs),
(615,398,o),
(621,416,o),
(621,449,cs),
(621,598,o),
(508,682,o),
(331,682,cs),
(241,682,o),
(147,678,o),
(94,667,cs),
(34,655,o),
(20,612,o),
(26,578,cs),
(39,507,o),
(81,534,o),
(82,508,cs),
(86,401,o),
(83,224,o),
(76,87,cs),
(72,26,o),
(126,-15,o),
(185,-15,cs)
);
},
{
closed = 1;
nodes = (
(324,157,o),
(286,158,o),
(286,193,cs),
(286,218,ls),
(286,250,o),
(303,269,o),
(332,268,cs),
(373,266,ls),
(420,264,o),
(437,244,o),
(437,213,cs),
(437,179,o),
(405,160,o),
(382,159,cs),
(346,158,ls)
);
},
{
closed = 1;
nodes = (
(303,412,o),
(282,417,o),
(283,449,cs),
(283,461,o),
(284,455,o),
(284,480,cs),
(284,500,o),
(282,519,o),
(318,519,cs),
(357,519,ls),
(386,519,o),
(422,509,o),
(422,466,cs),
(422,435,o),
(399,412,o),
(355,412,cs),
(332,412,ls)
);
}
);
width = 643;
},
{
hints = (
{
horizontal = 1;
place = (0,21);
target = up;
type = BottomGhost;
},
{
horizontal = 1;
place = (282,67);
type = Stem;
},
{
horizontal = 1;
place = (598,69);
type = Stem;
},
{
place = (70,100);
type = Stem;
},
{
place = (406,99);
type = Stem;
}
);
layerId = m003;
shapes = (
{
closed = 1;
nodes = (
(256,0,ls),
(417,0,o),
(511,63,o),
(501,189,cs),
(496,254,o),
(471,304,o),
(412,332,cs),
(398,340,o),
(398,344,o),
(412,352,cs),
(462,378,o),
(486,425,o),
(486,484,cs),
(486,604,o),
(406,672,o),
(256,674,cs),
(191,675,o),
(90,670,o),
(52,664,cs),
(24,660,o),
(7,643,o),
(11,617,cs),
(17,574,o),
(61,609,o),
(64,584,cs),
(77,494,o),
(70,210,o),
(61,38,cs),
(59,13,o),
(82,0,o),
(110,0,cs)
);
},
{
closed = 1;
nodes = (
(159,70,o),
(151,78,o),
(151,90,cs),
(151,290,ls),
(151,302,o),
(159,310,o),
(171,310,cs),
(257,310,ls),
(367,310,o),
(422,272,o),
(422,190,cs),
(422,98,o),
(366,70,o),
(257,70,cs),
(171,70,ls)
);
},
{
closed = 1;
nodes = (
(160,370,o),
(152,377,o),
(152,390,cs),
(152,451,o),
(143,519,o),
(143,583,cs),
(143,596,o),
(151,604,o),
(163,604,cs),
(257,604,ls),
(357,604,o),
(407,567,o),
(407,484,cs),
(407,407,o),
(357,370,o),
(257,370,cs),
(172,370,ls)
);
}
);
width = 517;
}
);
metricLeft = "=H";
metricRight = "=H/4";
note = P;
unicode = 66;
},
{
glyphname = C;
lastChange = "2024-03-31 16:23:28 +0000";
layers = (
{
anchors = (
{
name = bottom;
pos = (280,0);
},
{
name = top;
pos = (280,625);
}
);
hints = (
{
horizontal = 1;
place = (-10,85);
type = Stem;
},
{
horizontal = 1;
place = (597,80);
type = Stem;
},
{
place = (35,110);
type = Stem;
}
);
layerId = m005;
shapes = (
{
closed = 1;
nodes = (
(327,-10,o),
(377,-1,o),
(422,17,cs),
(445,26,o),
(459,45,o),
(447,69,cs),
(431,100,o),
(410,114,o),
(388,107,cs),
(355,96,o),
(318,80,o),
(280,80,cs),
(185,80,o),
(140,159,o),
(140,295,cs),
(140,347,ls),
(140,483,o),
(185,597,o),
(280,597,cs),
(307,597,o),
(330,582,o),
(349,571,cs),
(371,559,o),
(398,565,o),
(416,583,cs),
(438,605,o),
(430,627,o),
(407,643,cs),
(372,666,o),
(330,677,o),
(280,677,cs),
(126,677,o),
(40,527,o),
(40,347,cs),
(40,295,ls),
(40,115,o),
(126,-10,o),
(280,-10,cs)
);
}
);
width = 461;
},
{
anchors = (
{
name = bottom;
pos = (280,0);
},
{
name = top;
pos = (280,625);
}
);
hints = (
{
horizontal = 1;
place = (-10,85);
type = Stem;
},
{
horizontal = 1;
place = (597,80);
type = Stem;
},
{
place = (35,110);
type = Stem;
}
);
layerId = m002;
shapes = (
{
closed = 1;
nodes = (
(332,-25,o),
(390,-15,o),
(440,6,cs),
(492,26,o),
(514,75,o),
(492,127,cs),
(467,185,o),
(417,204,o),
(373,190,cs),
(337,178,o),
(308,165,o),
(280,165,cs),
(214,165,o),
(190,207,o),
(190,295,cs),
(190,347,ls),
(190,438,o),
(219,512,o),
(280,512,cs),
(292,512,o),
(304,504,o),
(324,492,cs),
(366,469,o),
(417,479,o),
(451,513,cs),
(494,556,o),
(487,614,o),
(435,649,cs),
(391,678,o),
(339,692,o),
(280,692,cs),
(91,692,o),
(-10,511,o),
(-10,347,cs),
(-10,295,ls),
(-10,128,o),
(93,-25,o),
(280,-25,cs)
);
}
);
width = 497;
},
{
anchors = (
{
name = bottom;
pos = (280,0);
},
{
name = top;
pos = (280,625);
}
);
hints = (
{
horizontal = 1;
place = (-10,85);
type = Stem;
},
{
horizontal = 1;
place = (597,80);
type = Stem;
},
{
place = (35,110);
type = Stem;
}
);
layerId = m003;
shapes = (
{
closed = 1;
nodes = (
(326,0,o),
(374,9,o),
(418,26,cs),
(439,34,o),
(447,46,o),
(438,64,cs),
(423,93,o),
(408,103,o),
(391,97,cs),
(359,87,o),
(320,70,o),
(280,70,cs),
(178,70,o),
(130,155,o),
(130,295,cs),
(130,347,ls),
(130,486,o),
(177,607,o),
(280,607,cs),
(310,607,o),
(335,591,o),
(354,580,cs),
(372,570,o),
(393,574,o),
(409,590,cs),
(426,608,o),
(422,621,o),
(401,635,cs),
(368,657,o),
(329,667,o),
(280,667,cs),
(132,667,o),
(50,524,o),
(50,347,cs),
(50,295,ls),
(50,118,o),
(131,0,o),
(280,0,cs)
);
}
);
width = 455;
}
);
metricLeft = "=O";
metricRight = "=O/4";
note = C;
unicode = 67;
},
{
glyphname = D;
lastChange = "2024-03-31 17:29:21 +0000";
layers = (
{
hints = (
{
horizontal = 1;
place = (-10,80);
type = Stem;
},
{
horizontal = 1;
place = (597,80);
type = Stem;
},
{
place = (35,110);
type = Stem;
},
{
place = (425,110);
type = Stem;
}
);
layerId = m005;
shapes = (
{
closed = 1;
nodes = (
(309,0,ls),
(463,0,o),
(549,126,o),
(549,347,cs),
(549,571,o),
(463,677,o),
(309,677,cs),
(199,677,o),
(123,673,o),
(83,667,cs),
(52,662,o),
(17,649,o),
(26,610,cs),
(34,574,o),
(75,589,o),
(76,574,cs),
(84,399,o),
(83,224,o),
(74,49,cs),
(72,18,o),
(102,0,o),
(133,0,cs)
);
},
{
closed = 1;
nodes = (
(184,262,o),
(184,409,o),
(175,572,cs),
(174,578,o),
(178,582,o),
(184,582,cs),
(309,582,ls),
(404,582,o),
(449,526,o),
(449,347,cs),
(449,171,o),
(404,90,o),
(309,90,cs),
(184,90,ls),
(178,90,o),
(174,94,o),
(175,100,cs)
);
}
);
width = 589;
},
{
hints = (
{
horizontal = 1;
place = (-10,80);
type = Stem;
},
{
horizontal = 1;
place = (597,80);
type = Stem;
},
{
place = (35,110);
type = Stem;
},
{
place = (425,110);
type = Stem;
}
);
layerId = m002;
shapes = (
{
closed = 1;
nodes = (
(361,-25,ls),
(544,-25,o),
(651,124,o),
(651,347,cs),
(651,573,o),
(544,692,o),
(361,692,cs),
(233,692,o),
(181,688,o),
(135,677,cs),
(76,663,o),
(15,639,o),
(26,580,cs),
(37,522,o),
(77,540,o),
(79,503,cs),
(87,347,o),
(85,242,o),
(76,77,cs),
(72,16,o),
(126,-25,o),
(185,-25,cs)
);
},
{
closed = 1;
nodes = (
(278,285,o),
(277,380,o),
(277,408,cs),
(277,464,o),
(267,507,o),
(306,507,cs),
(361,507,ls),
(431,507,o),
(451,480,o),
(451,347,cs),
(451,215,o),
(433,165,o),
(361,165,cs),
(306,165,ls),
(293,165,o),
(271,180,o),
(272,198,cs)
);
}
);
width = 641;
},
{
hints = (
{
horizontal = 1;
place = (-10,80);
type = Stem;
},
{
horizontal = 1;
place = (597,80);
type = Stem;
},
{
place = (35,110);
type = Stem;
},
{
place = (425,110);
type = Stem;
}
);
layerId = m003;
shapes = (
{
closed = 1;
nodes = (
(284,0,ls),
(434,0,o),
(514,120,o),
(514,347,cs),
(514,574,o),
(433,674,o),
(284,674,cs),
(174,674,o),
(99,670,o),
(60,664,cs),
(30,659,o),
(4,650,o),
(11,619,cs),
(19,583,o),
(59,609,o),
(61,582,cs),
(69,406,o),
(68,214,o),
(59,38,cs),
(57,13,o),
(80,0,o),
(108,0,cs)
);
},
{
closed = 1;
nodes = (
(149,252,o),
(149,416,o),
(140,578,c),
(138,590,o),
(142,599,o),
(154,599,cs),
(284,599,ls),
(385,599,o),
(434,539,o),
(434,347,cs),
(434,154,o),
(384,70,o),
(284,70,cs),
(154,70,ls),
(142,70,o),
(138,79,o),
(140,91,c)
);
}
);
width = 564;
}
);
metricLeft = "=H";
metricRight = "=O";
note = O;
unicode = 68;
},
{
export = 0;
glyphname = Eth;
lastChange = "2024-02-03 22:32:44 +0000";
layers = (
{
hints = (
{
horizontal = 1;
place = (-10,80);
type = Stem;
},
{
horizontal = 1;
place = (597,80);
type = Stem;
},
{
place = (35,110);
type = Stem;
},
{
place = (425,110);
type = Stem;
}
);
layerId = m005;
shapes = (
{
pos = (-1,0);
ref = D;
},
{
closed = 1;
nodes = (
(0,300,l),
(285,300,l),
(285,380,l),
(0,380,l)
);
}
);
width = 569;
},
{
hints = (
{
horizontal = 1;
place = (-10,80);
type = Stem;
},
{
horizontal = 1;
place = (597,80);
type = Stem;
},
{
place = (35,110);
type = Stem;
},
{
place = (425,110);
type = Stem;
}
);
layerId = m002;
shapes = (
{
pos = (-1,0);
ref = D;
},
{
closed = 1;
nodes = (
(0,300,l),
(285,300,l),
(285,380,l),
(0,380,l)
);
}
);
width = 569;
},
{
hints = (
{
horizontal = 1;
place = (-10,80);
type = Stem;
},
{
horizontal = 1;
place = (597,80);
type = Stem;
},
{
place = (35,110);
type = Stem;
},
{
place = (425,110);
type = Stem;
}
);
layerId = m003;
shapes = (
{
pos = (-1,0);
ref = D;
},
{
closed = 1;
nodes = (
(0,300,l),
(285,300,l),
(285,380,l),
(0,380,l)
);
}
);
width = 569;
}
);
metricLeft = "=H-60";
metricRight = "=O";
note = O;
unicode = 208;
},
{
glyphname = E;
lastChange = "2024-03-31 16:22:38 +0000";
layers = (
{
anchors = (
{
name = bottom;
pos = (245,0);
},
{
name = ogonek;
pos = (441,10);
},
{
name = top;
pos = (245,625);
},
{
name = topleft;
pos = (20,667);
}
);
hints = (
{
horizontal = 1;
place = (0,75);
type = Stem;
},
{
horizontal = 1;
place = (305,74);
type = Stem;
},
{
horizontal = 1;
place = (592,75);
type = Stem;
},
{
place = (70,100);
type = Stem;
}
);
layerId = m005;
shapes = (
{
closed = 1;
nodes = (
(455,653,o),
(441,667,o),
(416,667,cs),
(99,667,ls),
(74,667,o),
(47,653,o),
(50,628,cs),
(70,432,o),
(70,235,o),
(50,39,cs),
(47,14,o),
(74,0,o),
(99,0,cs),
(421,0,ls),
(446,0,o),
(460,14,o),
(460,39,cs),
(460,66,o),
(446,93,o),
(421,90,cs),
(338,81,o),
(254,80,o),
(170,80,cs),
(157,80,o),
(151,87,o),
(152,100,cs),
(159,159,o),
(160,213,o),
(160,272,cs),
(160,284,o),
(166,291,o),
(178,292,cs),
(242,300,o),
(307,300,o),
(371,300,cs),
(396,300,o),
(410,314,o),
(410,339,cs),
(410,366,o),
(396,394,o),
(371,390,cs),
(308,380,o),
(244,380,o),
(180,373,cs),
(167,371,o),
(160,377,o),
(160,390,cs),
(160,447,o),
(159,510,o),
(153,567,cs),
(151,580,o),
(157,587,o),
(170,587,cs),
(250,587,o),
(338,586,o),
(416,577,cs),
(441,574,o),
(455,601,o),
(455,626,cs)
);
}
);
width = 485;
},
{
anchors = (
{
name = bottom;
pos = (270,0);
},
{
name = ogonek;
pos = (466,10);
},
{
name = top;
pos = (270,625);
},
{
name = topleft;
pos = (45,667);
}
);
hints = (
{
horizontal = 1;
place = (0,75);
type = Stem;
},
{
horizontal = 1;
place = (305,74);
type = Stem;
},
{
horizontal = 1;
place = (592,75);
type = Stem;
},
{
place = (70,100);
type = Stem;
}
);
layerId = m002;
shapes = (
{
closed = 1;
nodes = (
(530,656,o),
(494,692,o),
(441,692,cs),
(124,692,ls),
(68,692,o),
(19,653,o),
(25,597,cs),
(45,404,o),
(45,263,o),
(25,70,cs),
(19,14,o),
(68,-25,o),
(124,-25,cs),
(446,-25,ls),
(499,-25,o),
(535,11,o),
(535,64,cs),
(535,122,o),
(496,171,o),
(440,165,cs),
(360,156,o),
(328,155,o),
(245,155,cs),
(232,155,o),
(226,155,o),
(227,170,cs),
(228,193,o),
(230,211,o),
(232,222,cs),
(234,235,o),
(244,240,o),
(258,242,cs),
(289,246,o),
(332,250,o),
(396,250,cs),
(449,250,o),
(485,286,o),
(485,339,cs),
(485,398,o),
(445,448,o),
(388,439,cs),
(329,430,o),
(295,427,o),
(248,423,cs),
(239,422,o),
(228,427,o),
(228,445,cs),
(228,453,o),
(228,468,o),
(228,488,cs),
(228,502,o),
(232,512,o),
(245,512,cs),
(325,512,o),
(360,511,o),
(435,502,cs),
(491,496,o),
(530,545,o),
(530,601,cs)
);
}
);
width = 548;
},
{
anchors = (
{
name = bottom;
pos = (245,0);
},
{
name = ogonek;
pos = (441,10);
},
{
name = top;
pos = (245,625);
},
{
name = topleft;
pos = (20,667);
}
);
hints = (
{
horizontal = 1;
place = (0,75);
type = Stem;
},
{
horizontal = 1;
place = (305,74);
type = Stem;
},
{
horizontal = 1;
place = (592,75);
type = Stem;
},
{
place = (70,100);
type = Stem;
}
);
layerId = m003;
shapes = (
{
closed = 1;
nodes = (
(445,659,o),
(437,667,o),
(416,667,cs),
(99,667,ls),
(76,667,o),
(58,657,o),
(60,639,cs),
(80,443,o),
(80,224,o),
(60,28,cs),
(58,10,o),
(76,0,o),
(99,0,cs),
(421,0,ls),
(442,0,o),
(450,8,o),
(450,29,cs),
(450,54,o),
(440,72,o),
(422,70,cs),
(339,61,o),
(254,60,o),
(170,60,cs),
(151,60,o),
(141,72,o),
(142,91,cs),
(149,150,o),
(150,213,o),
(150,272,cs),
(150,289,o),
(160,301,o),
(177,302,cs),
(241,310,o),
(307,310,o),
(371,310,cs),
(392,310,o),
(400,318,o),
(400,339,cs),
(400,364,o),
(390,383,o),
(373,380,cs),
(309,370,o),
(245,370,o),
(181,363,cs),
(162,360,o),
(150,371,o),
(150,390,cs),
(150,447,o),
(149,519,o),
(143,576,cs),
(140,595,o),
(151,607,o),
(170,607,cs),
(250,607,o),
(339,606,o),
(417,597,cs),
(435,595,o),
(445,613,o),
(445,636,cs)
);
}
);
width = 480;
}
);
metricLeft = "=|H";
metricRight = "=H/2";
note = E;
unicode = 69;
},
{
glyphname = F;
lastChange = "2024-03-31 16:22:12 +0000";
layers = (
{
hints = (
{
horizontal = 1;
place = (0,75);
type = Stem;
},
{
horizontal = 1;
place = (305,74);
type = Stem;
},
{
horizontal = 1;
place = (592,75);
type = Stem;
},
{
place = (70,100);
type = Stem;
}
);
layerId = m005;
shapes = (
{
closed = 1;
nodes = (
(455,653,o),
(441,667,o),
(416,667,cs),
(99,667,ls),
(74,667,o),
(49,653,o),
(50,628,cs),
(60,432,o),
(60,235,o),
(50,39,cs),
(49,14,o),
(74,0,o),
(99,0,cs),
(146,0,o),
(173,14,o),
(170,39,cs),
(160,123,o),
(160,197,o),
(160,281,cs),
(160,287,o),
(163,290,o),
(169,291,cs),
(236,300,o),
(304,300,o),
(371,300,cs),
(396,300,o),
(410,314,o),
(410,339,cs),
(410,366,o),
(396,394,o),
(371,390,cs),
(304,380,o),
(237,380,o),
(170,380,cs),
(163,380,o),
(160,383,o),
(160,390,cs),
(160,452,o),
(160,514,o),
(151,576,cs),
(151,583,o),
(154,587,o),
(161,587,cs),
(243,587,o),
(335,587,o),
(416,577,cs),
(441,574,o),
(455,601,o),
(455,626,cs)
);
}
);
width = 480;
},
{
hints = (
{
horizontal = 1;
place = (0,75);
type = Stem;
},
{
horizontal = 1;
place = (305,74);
type = Stem;
},
{
horizontal = 1;
place = (592,75);
type = Stem;
},
{
place = (70,100);
type = Stem;
}
);
layerId = m002;
shapes = (
{
closed = 1;
nodes = (
(530,656,o),
(494,692,o),
(441,692,cs),
(124,692,ls),
(70,692,o),
(23,655,o),
(25,601,cs),
(35,406,o),
(35,261,o),
(25,66,cs),
(23,12,o),
(70,-25,o),
(124,-25,cs),
(202,-25,o),
(251,14,o),
(245,70,cs),
(235,151,o),
(235,152,o),
(235,211,cs),
(235,231,o),
(245,239,o),
(261,242,cs),
(295,248,o),
(329,250,o),
(396,250,cs),
(449,250,o),
(485,286,o),
(485,339,cs),
(485,398,o),
(445,448,o),
(388,439,cs),
(325,430,o),
(282,430,o),
(255,430,cs),
(239,430,o),
(233,441,o),
(231,450,cs),
(227,471,o),
(227,455,o),
(226,475,cs),
(225,492,o),
(228,512,o),
(256,512,cs),
(338,512,o),
(357,512,o),
(435,502,cs),
(491,496,o),
(530,545,o),
(530,601,cs)
);
}
);
width = 543;
},
{
hints = (
{
horizontal = 1;
place = (0,75);
type = Stem;
},
{
horizontal = 1;
place = (305,74);
type = Stem;
},
{
horizontal = 1;
place = (592,75);
type = Stem;
},
{
place = (70,100);
type = Stem;
}
);
layerId = m003;
shapes = (
{
closed = 1;
nodes = (
(445,659,o),
(437,667,o),
(416,667,cs),
(99,667,ls),
(77,667,o),
(59,657,o),
(60,638,cs),
(70,442,o),
(70,225,o),
(60,29,cs),
(59,10,o),
(77,0,o),
(99,0,cs),
(144,0,o),
(162,10,o),
(160,28,cs),
(150,112,o),
(150,197,o),
(150,281,cs),
(150,292,o),
(157,299,o),
(168,301,cs),
(235,310,o),
(304,310,o),
(371,310,cs),
(392,310,o),
(400,318,o),
(400,339,cs),
(400,364,o),
(390,383,o),
(373,380,cs),
(305,370,o),
(237,370,o),
(170,370,cs),
(157,370,o),
(150,377,o),
(150,390,cs),
(150,452,o),
(150,524,o),
(141,585,c),
(141,598,o),
(148,607,o),
(161,607,cs),
(243,607,o),
(336,607,o),
(417,597,cs),
(435,595,o),
(445,613,o),
(445,636,cs)
);
}
);
width = 475;
}
);
metricLeft = "=|H";
metricRight = "=H/2";
note = E;
unicode = 70;
},
{
glyphname = G;
lastChange = "2024-03-31 16:21:45 +0000";
layers = (
{
anchors = (
{
name = bottom;
pos = (280,0);
},
{
name = top;
pos = (280,625);
}
);
hints = (
{
horizontal = 1;
place = (-10,85);
type = Stem;
},
{
horizontal = 1;
place = (597,80);
type = Stem;
},
{
place = (35,110);
type = Stem;
},
{
horizontal = 1;
place = (-10,85);
type = Stem;
},
{
horizontal = 1;
place = (597,80);
type = Stem;
},
{
place = (35,110);
type = Stem;
}
);
layerId = m005;
shapes = (
{
closed = 1;
nodes = (
(327,-10,o),
(377,-1,o),
(422,17,cs),
(425,18,o),
(428,20,o),
(431,21,cs),
(470,40,ls),
(495,52,o),
(508,71,o),
(505,98,cs),
(495,181,o),
(496,263,o),
(505,300,cs),
(515,331,ls),
(525,361,o),
(487,380,o),
(456,380,cs),
(319,380,ls),
(294,380,o),
(270,366,o),
(270,339,cs),
(270,314,o),
(294,286,o),
(319,290,cs),
(346,294,o),
(372,297,o),
(398,298,cs),
(404,299,o),
(408,295,o),
(409,288,cs),
(417,153,o),
(427,123,o),
(388,107,cs),
(356,94,o),
(318,80,o),
(280,80,cs),
(185,80,o),
(140,159,o),
(140,295,cs),
(140,347,ls),
(140,483,o),
(185,597,o),
(280,597,cs),
(307,597,o),
(330,582,o),
(349,571,cs),
(371,559,o),
(398,565,o),
(416,583,cs),
(418,585,ls),
(438,605,o),
(430,627,o),
(407,643,cs),
(372,666,o),
(330,677,o),
(280,677,cs),
(126,677,o),
(40,527,o),
(40,347,cs),
(40,295,ls),
(40,115,o),
(126,-10,o),
(280,-10,cs)
);
}
);
width = 557;
},
{
anchors = (
{
name = bottom;
pos = (279,0);
},
{
name = top;
pos = (279,667);
}
);
hints = (
{
horizontal = 1;
place = (-10,85);
type = Stem;
},
{
horizontal = 1;
place = (597,80);
type = Stem;
},
{
place = (35,110);
type = Stem;
}
);
layerId = m002;
shapes = (
{
closed = 1;
nodes = (
(332,-25,o),
(390,-15,o),
(441,6,cs),
(445,8,o),
(447,8,o),
(449,9,cs),
(492,30,ls),
(536,51,o),
(560,90,o),
(555,139,cs),
(545,217,o),
(542,255,o),
(553,287,cs),
(563,315,ls),
(584,375,o),
(528,430,o),
(456,430,cs),
(319,430,ls),
(266,430,o),
(220,394,o),
(220,339,cs),
(220,283,o),
(231,232,o),
(287,241,cs),
(314,245,o),
(326,248,o),
(343,248,cs),
(363,248,o),
(362,227,o),
(362,203,cs),
(362,194,o),
(363,186,o),
(346,177,cs),
(324,165,o),
(309,165,o),
(280,165,cs),
(214,165,o),
(190,207,o),
(190,295,cs),
(190,347,ls),
(190,473,o),
(219,512,o),
(280,512,cs),
(292,512,o),
(304,504,o),
(324,492,cs),
(366,469,o),
(417,479,o),
(451,513,cs),
(453,515,ls),
(494,556,o),
(487,614,o),
(435,649,cs),
(391,678,o),
(339,692,o),
(280,692,cs),
(91,692,o),
(-10,511,o),
(-10,347,cs),
(-10,295,ls),
(-10,128,o),
(93,-25,o),
(280,-25,cs)
);
}
);
width = 557;
},
{
anchors = (
{
name = bottom;
pos = (280,0);
},
{
name = top;
pos = (280,625);
}
);
hints = (
{
horizontal = 1;
place = (-10,85);
type = Stem;
},
{
horizontal = 1;
place = (597,80);
type = Stem;
},
{
place = (35,110);
type = Stem;
}
);
layerId = m003;
shapes = (
{
closed = 1;
nodes = (
(326,-7,o),
(367,-2,o),
(419,19,cs),
(420,20,o),
(424,22,o),
(427,23,cs),
(466,42,ls),
(488,53,o),
(498,67,o),
(495,90,cs),
(485,173,o),
(483,265,o),
(495,303,cs),
(505,334,ls),
(512,356,o),
(485,370,o),
(456,370,cs),
(319,370,ls),
(297,370,o),
(280,360,o),
(280,339,cs),
(280,318,o),
(298,297,o),
(317,300,cs),
(345,304,o),
(371,308,o),
(397,308,cs),
(408,308,o),
(418,302,o),
(419,289,cs),
(427,148,o),
(439,110,o),
(392,91,cs),
(360,78,o),
(320,63,o),
(280,63,cs),
(178,63,o),
(130,148,o),
(130,295,cs),
(130,347,ls),
(130,493,o),
(177,614,o),
(280,614,cs),
(310,614,o),
(335,598,o),
(354,587,cs),
(372,577,o),
(393,581,o),
(409,597,cs),
(411,599,ls),
(427,615,o),
(422,628,o),
(401,642,cs),
(368,664,o),
(329,674,o),
(280,674,cs),
(132,674,o),
(50,531,o),
(50,347,cs),
(50,295,ls),
(50,111,o),
(131,-7,o),
(280,-7,cs)
);
}
);
width = 556;
}
);
metricLeft = "=O";
metricRight = "=O";
note = C;
unicode = 71;
},
{
glyphname = H;
lastChange = "2024-03-31 16:21:14 +0000";
layers = (
{
hints = (
{
horizontal = 1;
place = (0,21);
target = up;
type = BottomGhost;
},
{
horizontal = 1;
place = (305,75);
type = Stem;
},
{
place = (70,100);
type = Stem;
},
{
place = (430,100);
type = Stem;
}
);
layerId = m005;
shapes = (
{
closed = 1;
nodes = (
(167,0,o),
(199,18,o),
(195,49,cs),
(191,84,o),
(188,173,o),
(188,273,cs),
(188,289,o),
(191,297,o),
(198,297,cs),
(273,300,o),
(347,300,o),
(423,300,cs),
(429,300,o),
(433,296,o),
(433,290,cs),
(432,185,o),
(430,86,o),
(425,49,cs),
(421,18,o),
(453,0,o),
(486,0,cs),
(517,0,o),
(547,18,o),
(545,49,cs),
(535,239,o),
(535,428,o),
(545,618,cs),
(547,649,o),
(517,667,o),
(486,667,cs),
(453,667,o),
(435,649,o),
(435,618,cs),
(435,585,o),
(435,497,o),
(434,398,cs),
(434,391,o),
(431,388,o),
(424,387,cs),
(349,383,o),
(274,381,o),
(198,380,cs),
(192,380,o),
(188,384,o),
(188,390,cs),
(188,492,o),
(191,584,o),
(195,618,cs),
(199,649,o),
(167,667,o),
(134,667,cs),
(103,667,o),
(73,649,o),
(75,618,cs),
(79,542,o),
(82,466,o),
(83,390,cs),
(83,384,o),
(79,380,o),
(73,380,cs),
(39,380,o),
(25,366,o),
(25,341,cs),
(25,339,ls),
(25,304,o),
(39,290,o),
(74,291,cs),
(80,291,o),
(84,288,o),
(84,281,cs),
(85,204,o),
(85,127,o),
(85,49,cs),
(85,18,o),
(103,0,o),
(134,0,cs)
);
}
);
width = 595;
},
{
hints = (
{
horizontal = 1;
place = (0,21);
target = up;
type = BottomGhost;
},
{
horizontal = 1;
place = (305,75);
type = Stem;
},
{
place = (70,100);
type = Stem;
},
{
place = (430,100);
type = Stem;
}
);
layerId = m002;
shapes = (
{
closed = 1;
nodes = (
(248,-25,o),
(303,19,o),
(295,80,cs),
(292,100,o),
(291,112,o),
(290,160,cs),
(288,217,o),
(305,249,o),
(338,249,cs),
(353,249,o),
(367,250,o),
(382,250,cs),
(415,250,o),
(433,232,o),
(432,198,cs),
(430,133,o),
(428,105,o),
(425,80,cs),
(417,19,o),
(472,-25,o),
(536,-25,cs),
(595,-25,o),
(649,16,o),
(645,77,cs),
(635,265,o),
(635,402,o),
(645,590,cs),
(649,651,o),
(595,692,o),
(536,692,cs),
(475,692,o),
(435,652,o),
(435,593,cs),
(435,548,o),
(435,529,o),
(435,484,cs),
(435,452,o),
(418,434,o),
(386,433,cs),
(370,432,o),
(355,432,o),
(339,432,cs),
(306,431,o),
(288,449,o),
(289,483,cs),
(290,542,o),
(292,565,o),
(295,587,cs),
(303,648,o),
(248,692,o),
(184,692,cs),
(125,692,o),
(71,651,o),
(75,590,cs),
(77,541,o),
(80,515,o),
(81,466,cs),
(82,438,o),
(67,424,o),
(48,404,cs),
(33,388,o),
(25,366,o),
(25,341,cs),
(25,339,ls),
(25,311,o),
(35,284,o),
(53,265,cs),
(71,246,o),
(85,232,o),
(85,205,cs),
(85,153,o),
(85,126,o),
(85,74,cs),
(85,15,o),
(125,-25,o),
(184,-25,cs)
);
}
);
width = 670;
},
{
hints = (
{
horizontal = 1;
place = (0,21);
target = up;
type = BottomGhost;
},
{
horizontal = 1;
place = (305,75);
type = Stem;
},
{
place = (70,100);
type = Stem;
},
{
place = (430,100);
type = Stem;
}
);
layerId = m003;
shapes = (
{
closed = 1;
nodes = (
(139,0,o),
(163,13,o),
(160,38,cs),
(156,73,o),
(153,173,o),
(153,273,cs),
(153,296,o),
(160,307,o),
(173,307,cs),
(248,310,o),
(322,310,o),
(398,310,cs),
(410,310,o),
(418,302,o),
(418,290,cs),
(417,185,o),
(415,75,o),
(410,38,cs),
(407,13,o),
(431,0,o),
(461,0,cs),
(489,0,o),
(512,13,o),
(510,38,cs),
(500,229,o),
(500,438,o),
(510,629,cs),
(512,654,o),
(489,667,o),
(461,667,cs),
(432,667,o),
(420,655,o),
(420,628,cs),
(420,595,o),
(420,497,o),
(419,398,cs),
(419,386,o),
(412,379,o),
(400,377,c),
(324,373,o),
(249,371,o),
(173,370,cs),
(161,370,o),
(153,378,o),
(153,390,cs),
(153,492,o),
(156,595,o),
(160,629,cs),
(163,654,o),
(139,667,o),
(109,667,cs),
(81,667,o),
(58,654,o),
(60,629,cs),
(64,552,o),
(67,466,o),
(68,390,cs),
(68,378,o),
(60,370,o),
(48,370,cs),
(18,370,o),
(10,362,o),
(10,341,cs),
(10,339,ls),
(10,308,o),
(18,300,o),
(49,301,cs),
(61,301,o),
(69,294,o),
(69,281,cs),
(70,204,o),
(70,117,o),
(70,39,cs),
(70,12,o),
(82,0,o),
(109,0,cs)
);
}
);
width = 570;
}
);
note = H;
unicode = 72;
},
{
glyphname = I;
lastChange = "2024-12-22 16:27:48 +0000";
layers = (
{
anchors = (
{
name = bottom;
pos = (170,0);
},
{
name = ogonek;
pos = (258,10);
},
{
name = top;
pos = (170,625);
},
{
name = topleft;
pos = (80,667);
}
);
hints = (
{
horizontal = 1;
place = (0,21);
target = up;
type = BottomGhost;
},
{
place = (70,100);
type = Stem;
}
);
layerId = m005;
shapes = (
{
closed = 1;
nodes = (
(140,-5,o),
(200,-5,o),
(261,5,cs),
(286,9,o),
(310,19,o),
(310,44,cs),
(310,81,o),
(286,99,o),
(261,95,cs),
(251,94,o),
(241,92,o),
(231,90,cs),
(224,89,o),
(220,92,o),
(220,99,cs),
(220,581,ls),
(220,587,o),
(224,591,o),
(230,590,cs),
(241,589,o),
(251,588,o),
(261,587,cs),
(286,583,o),
(300,601,o),
(300,626,cs),
(300,653,o),
(286,665,o),
(261,667,cs),
(200,672,o),
(140,672,o),
(79,667,cs),
(54,665,o),
(40,653,o),
(40,628,cs),
(40,601,o),
(54,573,o),
(79,577,cs),
(89,578,o),
(99,580,o),
(109,582,cs),
(116,583,o),
(120,580,o),
(120,573,cs),
(120,91,ls),
(120,85,o),
(116,81,o),
(110,82,cs),
(99,83,o),
(89,84,o),
(79,85,cs),
(54,89,o),
(40,71,o),
(40,44,cs),
(40,19,o),
(54,-5,o),
(79,-5,cs)
);
}
);
width = 350;
},
{
anchors = (
{
name = bottom;
pos = (170,0);
},
{
name = ogonek;
pos = (258,10);
},
{
name = top;
pos = (170,625);
},
{
name = topleft;
pos = (80,667);
}
);
hints = (
{
horizontal = 1;
place = (0,21);
target = up;
type = BottomGhost;
},
{
place = (70,100);
type = Stem;
}
);
layerId = m002;
shapes = (
{
closed = 1;
nodes = (
(140,-25,o),
(204,-25,o),
(269,-14,cs),
(327,-5,o),
(360,28,o),
(360,74,cs),
(360,141,o),
(342,175,o),
(315,175,cs),
(303,175,o),
(290,169,o),
(283,169,cs),
(275,169,o),
(270,180,o),
(270,199,cs),
(270,481,ls),
(270,493,o),
(270,510,o),
(279,510,cs),
(290,510,o),
(295,508,o),
(300,507,cs),
(326,502,o),
(350,541,o),
(350,596,cs),
(350,651,o),
(314,683,o),
(265,687,cs),
(202,692,o),
(138,692,o),
(75,687,cs),
(26,683,o),
(-10,651,o),
(-10,596,cs),
(-10,540,o),
(-10,489,o),
(25,497,cs),
(34,499,o),
(44,500,o),
(53,500,cs),
(64,500,o),
(70,490,o),
(70,473,cs),
(70,191,ls),
(70,179,o),
(69,163,o),
(56,162,c),
(45,163,o),
(37,166,o),
(25,165,cs),
(3,163,o),
(-10,135,o),
(-10,74,cs),
(-10,21,o),
(26,-25,o),
(79,-25,cs)
);
}
);
width = 350;
},
{
anchors = (
{
name = bottom;
pos = (170,0);
},
{
name = ogonek;
pos = (258,10);
},
{
name = top;
pos = (170,625);
},
{
name = topleft;
pos = (80,667);
}
);
hints = (
{
horizontal = 1;
place = (0,21);
target = up;
type = BottomGhost;
},
{
place = (70,100);
type = Stem;
}
);
layerId = m003;
shapes = (
{
closed = 1;
nodes = (
(140,-2,o),
(199,-2,o),
(259,8,cs),
(283,12,o),
(300,19,o),
(300,37,cs),
(300,69,o),
(283,81,o),
(262,78,cs),
(252,77,o),
(243,75,o),
(233,73,cs),
(219,71,o),
(210,79,o),
(210,92,cs),
(210,591,ls),
(210,603,o),
(220,612,o),
(231,610,cs),
(242,609,o),
(252,608,o),
(262,607,cs),
(282,604,o),
(290,614,o),
(290,636,cs),
(290,658,o),
(282,665,o),
(260,667,cs),
(200,672,o),
(140,672,o),
(80,667,cs),
(58,665,o),
(50,658,o),
(50,636,cs),
(50,613,o),
(60,594,o),
(78,597,cs),
(88,598,o),
(97,600,o),
(107,602,cs),
(121,604,o),
(130,596,o),
(130,583,cs),
(130,84,ls),
(130,72,o),
(120,63,o),
(109,65,cs),
(98,66,o),
(88,67,o),
(78,68,cs),
(58,71,o),
(50,61,o),
(50,37,cs),
(50,15,o),
(60,-2,o),
(79,-2,cs)
);
}
);
width = 350;
}
);
metricLeft = "=O";
metricRight = "=O";
note = I;
unicode = 73;
},
{
glyphname = J;
lastChange = "2024-03-31 16:35:42 +0000";
layers = (
{
anchors = (
{
name = bottom;
pos = (240,0);
},
{
name = top;
pos = (240,667);
}
);
hints = (
{
horizontal = 1;
place = (-10,85);
type = Stem;
},
{
horizontal = 1;
place = (597,80);
type = Stem;
},
{
place = (35,110);
type = Stem;
}
);
layerId = m005;
shapes = (
{
closed = 1;
nodes = (
(327,-10,o),
(413,90,o),
(413,270,cs),
(413,576,ls),
(413,582,o),
(417,586,o),
(423,586,cs),
(435,586,ls),
(457,587,o),
(473,603,o),
(473,625,cs),
(473,650,o),
(456,667,o),
(433,667,cs),
(197,667,ls),
(172,667,o),
(153,648,o),
(153,622,cs),
(153,597,o),
(173,575,o),
(199,579,cs),
(234,584,o),
(268,586,o),
(303,586,cs),
(309,586,o),
(313,582,o),
(313,576,cs),
(313,270,ls),
(313,134,o),
(268,80,o),
(173,80,cs),
(139,80,o),
(104,93,o),
(76,101,cs),
(47,109,o),
(23,83,o),
(15,67,cs),
(3,42,o),
(13,13,o),
(39,6,cs),
(82,-7,o),
(129,-10,o),
(173,-10,cs)
);
}
);
width = 513;
},
{
anchors = (
{
name = bottom;
pos = (268,0);
},
{
name = top;
pos = (268,625);
}
);
hints = (
{
horizontal = 1;
place = (-10,85);
type = Stem;
},
{
horizontal = 1;
place = (597,80);
type = Stem;
},
{
place = (35,110);
type = Stem;
}
);
layerId = m002;
shapes = (
{
closed = 1;
nodes = (
(396,-25,o),
(502,100,o),
(502,305,cs),
(502,451,ls),
(502,463,o),
(502,486,o),
(521,486,cs),
(535,486,ls),
(568,486,o),
(587,526,o),
(587,575,cs),
(587,628,o),
(548,667,o),
(497,667,cs),
(236,667,ls),
(183,667,o),
(142,626,o),
(142,572,cs),
(142,516,o),
(188,471,o),
(245,480,cs),
(264,483,o),
(282,486,o),
(292,486,cs),
(302,486,o),
(302,462,o),
(302,450,cs),
(302,305,ls),
(302,187,o),
(284,165,o),
(212,165,cs),
(187,165,o),
(159,176,o),
(129,184,cs),
(77,198,o),
(29,165,o),
(8,122,cs),
(-17,72,o),
(8,9,o),
(64,-7,cs),
(113,-22,o),
(167,-25,o),
(212,-25,cs)
);
}
);
width = 577;
},
{
anchors = (
{
name = bottom;
pos = (259,0);
},
{
name = top;
pos = (259,667);
}
);
hints = (
{
horizontal = 1;
place = (-10,85);
type = Stem;
},
{
horizontal = 1;
place = (597,80);
type = Stem;
},
{
place = (35,110);
type = Stem;
}
);
layerId = m003;
shapes = (
{
closed = 1;
nodes = (
(316,-7,o),
(397,87,o),
(397,263,cs),
(397,591,ls),
(397,600,o),
(403,606,o),
(412,606,cs),
(429,606,ls),
(447,606,o),
(457,617,o),
(457,635,cs),
(457,656,o),
(446,667,o),
(427,667,cs),
(191,667,ls),
(170,667,o),
(157,654,o),
(157,632,cs),
(157,611,o),
(171,596,o),
(192,599,cs),
(227,604,o),
(267,606,o),
(302,606,cs),
(311,606,o),
(317,600,o),
(317,591,cs),
(317,263,ls),
(317,121,o),
(267,63,o),
(167,63,cs),
(131,63,o),
(95,76,o),
(67,84,cs),
(44,91,o),
(25,70,o),
(17,54,cs),
(7,34,o),
(15,14,o),
(36,9,cs),
(78,-4,o),
(123,-7,o),
(167,-7,cs)
);
}
);
width = 507;
}
);
metricLeft = "=O/4";
metricRight = "=I";
note = C;
unicode = 74;
},
{
glyphname = K;
lastChange = "2024-03-31 16:19:25 +0000";
layers = (
{
hints = (
{
horizontal = 1;
place = (0,21);
target = up;
type = BottomGhost;
},
{
horizontal = 1;
place = (282,67);
type = Stem;
},
{
horizontal = 1;
place = (598,69);
type = Stem;
},
{
place = (70,100);
type = Stem;
},
{
place = (406,99);
type = Stem;
}
);
layerId = m005;
shapes = (
{
closed = 1;
nodes = (
(114,0,o),
(147,20,o),
(145,49,cs),
(142,107,o),
(140,165,o),
(138,223,cs),
(138,228,o),
(139,232,o),
(142,236,cs),
(159,259,o),
(175,281,o),
(192,303,cs),
(196,308,o),
(201,309,o),
(206,305,cs),
(237,286,o),
(342,209,o),
(368,40,cs),
(372,16,o),
(400,0,o),
(425,0,cs),
(458,0,o),
(492,28,o),
(484,62,cs),
(441,238,o),
(306,339,o),
(258,369,cs),
(252,373,o),
(251,378,o),
(256,383,cs),
(311,452,o),
(368,517,o),
(431,592,cs),
(456,621,o),
(443,652,o),
(424,665,cs),
(401,681,o),
(372,675,o),
(346,640,cs),
(281,553,o),
(214,465,o),
(148,378,cs),
(142,371,o),
(136,373,o),
(136,382,cs),
(136,618,ls),
(136,647,o),
(115,667,o),
(84,667,cs),
(56,667,o),
(24,646,o),
(25,618,cs),
(35,428,o),
(35,239,o),
(25,49,cs),
(24,21,o),
(56,0,o),
(84,0,cs)
);
}
);
width = 498;
},
{
hints = (
{
horizontal = 1;
place = (0,21);
target = up;
type = BottomGhost;
},
{
horizontal = 1;
place = (282,67);
type = Stem;
},
{
horizontal = 1;
place = (598,69);
type = Stem;
},
{
place = (70,100);
type = Stem;
},
{
place = (406,99);
type = Stem;
}
);
layerId = m002;
shapes = (
{
closed = 1;
nodes = (
(193,-25,o),
(249,18,o),
(245,77,cs),
(242,134,o),
(240,136,o),
(238,194,cs),
(238,191,o),
(238,209,o),
(240,220,cs),
(241,226,o),
(245,233,o),
(252,237,cs),
(259,241,o),
(266,241,o),
(285,226,c),
(306,206,o),
(357,162,o),
(369,57,cs),
(376,-3,o),
(425,-25,o),
(475,-25,cs),
(540,-25,o),
(598,33,o),
(583,99,cs),
(535,293,o),
(431,350,o),
(394,373,cs),
(387,377,o),
(378,386,o),
(387,399,cs),
(420,447,o),
(455,459,o),
(519,535,cs),
(563,586,o),
(546,651,o),
(502,681,cs),
(457,711,o),
(399,703,o),
(356,645,cs),
(291,559,o),
(267,535,o),
(249,516,cs),
(239,506,o),
(236,516,o),
(236,525,cs),
(236,593,ls),
(236,650,o),
(193,692,o),
(137,692,cs),
(77,692,o),
(23,648,o),
(25,591,cs),
(35,402,o),
(35,265,o),
(25,76,cs),
(23,19,o),
(77,-25,o),
(134,-25,cs)
);
}
);
width = 591;
},
{
hints = (
{
horizontal = 1;
place = (0,21);
target = up;
type = BottomGhost;
},
{
horizontal = 1;
place = (282,67);
type = Stem;
},
{
horizontal = 1;
place = (598,69);
type = Stem;
},
{
place = (70,100);
type = Stem;
},
{
place = (406,99);
type = Stem;
}
);
layerId = m003;
shapes = (
{
closed = 1;
nodes = (
(86,0,o),
(112,15,o),
(110,38,cs),
(107,97,o),
(105,165,o),
(103,223,cs),
(103,229,o),
(105,236,o),
(109,242,cs),
(126,265,o),
(149,295,o),
(166,318,cs),
(169,322,o),
(174,322,o),
(181,318,cs),
(214,299,o),
(326,204,o),
(353,32,cs),
(356,12,o),
(378,0,o),
(398,0,cs),
(429,0,o),
(456,22,o),
(449,50,cs),
(407,222,o),
(262,337,o),
(216,368,cs),
(210,372,o),
(211,375,o),
(215,380,cs),
(265,448,o),
(336,534,o),
(398,608,cs),
(419,633,o),
(410,655,o),
(393,667,cs),
(374,680,o),
(353,676,o),
(329,644,cs),
(264,557,o),
(184,444,o),
(118,357,cs),
(105,342,o),
(101,351,o),
(101,369,cs),
(101,628,ls),
(101,653,o),
(86,667,o),
(59,667,cs),
(34,667,o),
(9,651,o),
(10,628,cs),
(20,438,o),
(20,229,o),
(10,39,cs),
(9,16,o),
(34,0,o),
(59,0,cs)
);
}
);
width = 465;
}
);
metricLeft = "=H";
metricRight = "=H/4";
note = P;
unicode = 75;
},
{
glyphname = L;
lastChange = "2024-03-31 16:18:51 +0000";
layers = (
{
hints = (
{
horizontal = 1;
place = (0,75);
type = Stem;
},
{
horizontal = 1;
place = (305,74);
type = Stem;
},
{
horizontal = 1;
place = (592,75);
type = Stem;
},
{
place = (70,100);
type = Stem;
}
);
layerId = m005;
shapes = (
{
closed = 1;
nodes = (
(336,0,ls),
(371,0,o),
(395,19,o),
(395,44,cs),
(395,71,o),
(371,104,o),
(336,100,cs),
(269,92,o),
(202,81,o),
(135,80,cs),
(129,80,o),
(125,84,o),
(125,90,cs),
(125,266,o),
(125,442,o),
(135,618,cs),
(137,649,o),
(117,667,o),
(84,667,cs),
(53,667,o),
(23,649,o),
(25,618,cs),
(35,428,o),
(35,239,o),
(25,49,cs),
(23,18,o),
(53,0,o),
(84,0,cs)
);
}
);
width = 385;
},
{
hints = (
{
horizontal = 1;
place = (0,75);
type = Stem;
},
{
horizontal = 1;
place = (305,74);
type = Stem;
},
{
horizontal = 1;
place = (592,75);
type = Stem;
},
{
place = (70,100);
type = Stem;
}
);
layerId = m002;
shapes = (
{
closed = 1;
nodes = (
(386,0,ls),
(449,0,o),
(495,41,o),
(495,94,cs),
(495,151,o),
(445,207,o),
(380,200,cs),
(345,196,o),
(311,191,o),
(277,187,cs),
(244,183,o),
(225,201,o),
(225,235,cs),
(225,365,o),
(227,448,o),
(235,590,cs),
(239,650,o),
(196,692,o),
(136,692,cs),
(75,692,o),
(21,651,o),
(25,590,cs),
(35,402,o),
(35,290,o),
(25,102,cs),
(21,41,o),
(75,0,o),
(134,0,cs)
);
}
);
width = 455;
},
{
hints = (
{
horizontal = 1;
place = (0,75);
type = Stem;
},
{
horizontal = 1;
place = (305,74);
type = Stem;
},
{
horizontal = 1;
place = (592,75);
type = Stem;
},
{
place = (70,100);
type = Stem;
}
);
layerId = m003;
shapes = (
{
closed = 1;
nodes = (
(311,0,ls),
(343,0,o),
(360,14,o),
(360,34,cs),
(360,58,o),
(341,83,o),
(312,80,cs),
(241,72,o),
(169,60,o),
(97,60,cs),
(92,60,o),
(90,62,o),
(90,67,cs),
(90,247,o),
(90,455,o),
(100,636,cs),
(102,662,o),
(88,674,o),
(59,674,cs),
(31,674,o),
(8,661,o),
(10,636,cs),
(20,445,o),
(20,229,o),
(10,38,cs),
(8,13,o),
(31,0,o),
(59,0,cs)
);
}
);
width = 360;
}
);
metricLeft = "=H";
note = E;
unicode = 76;
},
{
export = 0;
glyphname = Lslash;
lastChange = "2024-02-03 22:32:44 +0000";
layers = (
{
hints = (
{
horizontal = 1;
place = (-10,80);
type = Stem;
},
{
horizontal = 1;
place = (597,80);
type = Stem;
},
{
place = (35,110);
type = Stem;
},
{
place = (425,110);
type = Stem;
}
);
layerId = m005;
shapes = (
{
closed = 1;
nodes = (
(0,226,l),
(57,170,l),
(328,441,l),
(271,497,l)
);
},
{
pos = (54,0);
ref = L;
}
);
width = 464;
},
{
hints = (
{
horizontal = 1;
place = (-10,80);
type = Stem;
},
{
horizontal = 1;
place = (597,80);
type = Stem;
},
{
place = (35,110);
type = Stem;
},
{
place = (425,110);
type = Stem;
}
);
layerId = m002;
shapes = (
{
closed = 1;
nodes = (
(0,226,l),
(57,170,l),
(328,441,l),
(271,497,l)
);
},
{
pos = (54,0);
ref = L;
}
);
width = 464;
},
{
hints = (
{
horizontal = 1;
place = (-10,80);
type = Stem;
},
{
horizontal = 1;
place = (597,80);
type = Stem;
},
{
place = (35,110);
type = Stem;
},
{
place = (425,110);
type = Stem;
}
);
layerId = m003;
shapes = (
{
closed = 1;
nodes = (
(0,226,l),
(57,170,l),
(328,441,l),
(271,497,l)
);
},
{
pos = (54,0);
ref = L;
}
);
width = 464;
}
);
metricRight = "=L";
note = O;
unicode = 321;
},
{
glyphname = M;
lastChange = "2024-03-31 16:18:11 +0000";
layers = (
{
hints = (
{
horizontal = 1;
place = (0,21);
target = up;
type = BottomGhost;
},
{
place = (35,724);
type = Stem;
},
{
horizontal = 1;
place = (0,150);
type = Stem;
}
);
layerId = m005;
shapes = (
{
closed = 1;
nodes = (
(259,274,o),
(295,120,o),
(308,48,cs),
(313,19,o),
(335,0,o),
(364,0,cs),
(395,0,o),
(417,19,o),
(423,48,cs),
(439,137,o),
(480,306,o),
(542,534,cs),
(543,540,o),
(552,540,o),
(553,535,cs),
(573,440,o),
(591,246,o),
(591,52,cs),
(591,19,o),
(623,0,o),
(656,0,cs),
(687,0,o),
(714,19,o),
(710,52,cs),
(682,290,o),
(640,503,o),
(609,622,cs),
(601,650,o),
(572,667,o),
(544,667,cs),
(514,667,o),
(483,649,o),
(477,621,cs),
(438,449,o),
(398,293,o),
(370,178,cs),
(369,173,o),
(361,173,o),
(360,178,cs),
(332,293,o),
(292,449,o),
(253,621,cs),
(247,649,o),
(216,667,o),
(186,667,cs),
(158,667,o),
(129,650,o),
(121,622,cs),
(90,503,o),
(48,290,o),
(20,52,cs),
(16,19,o),
(43,0,o),
(75,0,cs),
(107,0,o),
(136,17,o),
(136,48,cs),
(138,268,o),
(155,441,o),
(177,537,cs),
(178,543,o),
(186,542,o),
(188,536,cs)
);
}
);
width = 730;
},
{
hints = (
{
horizontal = 1;
place = (0,21);
target = up;
type = BottomGhost;
},
{
place = (35,724);
type = Stem;
},
{
horizontal = 1;
place = (0,150);
type = Stem;
}
);
layerId = m002;
shapes = (
{
closed = 1;
nodes = (
(245,160,o),
(252,108,o),
(260,64,cs),
(269,12,o),
(312,-25,o),
(365,-25,cs),
(420,-25,o),
(462,11,o),
(473,63,cs),
(482,111,o),
(490,166,o),
(522,255,cs),
(528,271,o),
(535,268,o),
(536,255,cs),
(540,198,o),
(542,146,o),
(542,77,cs),
(542,16,o),
(596,-25,o),
(657,-25,cs),
(718,-25,o),
(768,20,o),
(761,83,cs),
(732,323,o),
(690,490,o),
(658,610,cs),
(644,660,o),
(595,692,o),
(545,692,cs),
(491,692,o),
(440,658,o),
(429,607,cs),
(410,521,o),
(400,459,o),
(371,388,cs),
(369,382,o),
(363,382,o),
(361,388,cs),
(332,459,o),
(322,521,o),
(303,607,cs),
(292,658,o),
(241,692,o),
(187,692,cs),
(137,692,o),
(88,660,o),
(74,610,cs),
(42,490,o),
(0,323,o),
(-29,83,cs),
(-36,20,o),
(14,-25,o),
(76,-25,cs),
(136,-25,o),
(187,14,o),
(187,73,cs),
(188,153,o),
(191,207,o),
(195,268,cs),
(196,280,o),
(204,280,o),
(208,268,cs)
);
}
);
width = 732;
},
{
hints = (
{
horizontal = 1;
place = (0,21);
target = up;
type = BottomGhost;
},
{
place = (35,724);
type = Stem;
},
{
horizontal = 1;
place = (0,150);
type = Stem;
}
);
layerId = m003;
shapes = (
{
closed = 1;
nodes = (
(265,291,o),
(304,116,o),
(318,40,cs),
(322,14,o),
(339,0,o),
(364,0,cs),
(391,0,o),
(408,14,o),
(413,40,cs),
(431,134,o),
(475,337,o),
(543,586,cs),
(544,591,o),
(551,592,o),
(552,587,cs),
(576,515,o),
(601,269,o),
(601,42,cs),
(601,15,o),
(626,0,o),
(656,0,cs),
(684,0,o),
(703,14,o),
(700,41,cs),
(672,278,o),
(630,511,o),
(599,629,cs),
(592,653,o),
(569,667,o),
(542,667,cs),
(517,667,o),
(492,653,o),
(487,629,cs),
(442,435,o),
(391,247,o),
(371,125,cs),
(370,117,o),
(360,117,o),
(359,125,cs),
(339,247,o),
(288,435,o),
(243,629,cs),
(238,653,o),
(213,667,o),
(186,667,cs),
(161,667,o),
(138,653,o),
(131,629,cs),
(100,511,o),
(58,278,o),
(30,41,cs),
(27,14,o),
(46,0,o),
(75,0,cs),
(104,0,o),
(126,13,o),
(126,38,cs),
(128,291,o),
(151,500,o),
(178,588,cs),
(179,593,o),
(186,592,o),
(187,587,cs)
);
}
);
width = 730;
}
);
metricLeft = "=V";
metricRight = "=V";
note = W;
unicode = 77;
},
{
glyphname = N;
lastChange = "2024-03-31 16:17:20 +0000";
layers = (
{
anchors = (
{
name = bottom;
pos = (260,0);
},
{
name = top;
pos = (260,625);
}
);
hints = (
{
horizontal = 1;
place = (0,21);
target = up;
type = BottomGhost;
},
{
place = (70,100);
type = Stem;
},
{
place = (452.5,97.5);
type = Stem;
}
);
layerId = m005;
shapes = (
{
closed = 1;
nodes = (
(457,0,o),
(485,28,o),
(485,67,cs),
(485,251,o),
(485,444,o),
(495,628,cs),
(497,656,o),
(464,677,o),
(434,677,cs),
(406,677,o),
(373,656,o),
(375,628,cs),
(384,484,o),
(385,373,o),
(385,234,cs),
(385,223,o),
(378,221,o),
(374,232,cs),
(318,386,o),
(218,555,o),
(162,626,cs),
(139,655,o),
(116,667,o),
(90,667,cs),
(59,667,o),
(23,639,o),
(25,600,cs),
(35,416,o),
(35,233,o),
(25,49,cs),
(23,21,o),
(56,0,o),
(84,0,cs),
(114,0,o),
(147,21,o),
(145,49,cs),
(135,200,o),
(135,331,o),
(135,481,cs),
(135,486,o),
(141,488,o),
(144,484,cs),
(200,401,o),
(233,341,o),
(359,39,cs),
(369,15,o),
(390,0,o),
(415,0,cs)
);
}
);
width = 545;
},
{
anchors = (
{
name = bottom;
pos = (335,0);
},
{
name = top;
pos = (335,625);
}
);
hints = (
{
horizontal = 1;
place = (0,21);
target = up;
type = BottomGhost;
},
{
place = (70,100);
type = Stem;
},
{
place = (452.5,97.5);
type = Stem;
}
);
layerId = m002;
shapes = (
{
closed = 1;
nodes = (
(535,-25,o),
(585,25,o),
(585,92,cs),
(585,276,o),
(585,418,o),
(595,600,cs),
(599,658,o),
(543,702,o),
(484,702,cs),
(427,702,o),
(371,658,o),
(375,600,cs),
(378,544,o),
(383,492,o),
(383,443,cs),
(383,432,o),
(375,435,o),
(372,440,cs),
(328,521,o),
(283,591,o),
(251,632,cs),
(216,677,o),
(177,692,o),
(140,692,cs),
(80,692,o),
(22,640,o),
(25,572,cs),
(35,390,o),
(35,259,o),
(25,77,cs),
(21,19,o),
(77,-25,o),
(134,-25,cs),
(193,-25,o),
(249,19,o),
(245,77,cs),
(240,157,o),
(236,233,o),
(236,308,cs),
(236,320,o),
(244,319,o),
(248,311,cs),
(277,254,o),
(311,169,o),
(363,45,cs),
(381,2,o),
(420,-25,o),
(465,-25,cs)
);
}
);
width = 620;
},
{
anchors = (
{
name = bottom;
pos = (260,0);
},
{
name = top;
pos = (260,625);
}
);
hints = (
{
horizontal = 1;
place = (0,21);
target = up;
type = BottomGhost;
},
{
place = (70,100);
type = Stem;
},
{
place = (452.5,97.5);
type = Stem;
}
);
layerId = m003;
shapes = (
{
closed = 1;
nodes = (
(428,0,o),
(450,22,o),
(450,57,cs),
(450,241,o),
(450,451,o),
(460,636,cs),
(462,658,o),
(436,674,o),
(409,674,cs),
(384,674,o),
(358,658,o),
(360,636,cs),
(371,467,o),
(370,339,o),
(370,162,cs),
(370,152,o),
(362,149,o),
(358,160,cs),
(296,329,o),
(184,548,o),
(129,630,cs),
(109,659,o),
(89,667,o),
(65,667,cs),
(37,667,o),
(8,644,o),
(10,611,cs),
(20,426,o),
(20,223,o),
(10,38,cs),
(8,16,o),
(34,0,o),
(59,0,cs),
(86,0,o),
(112,16,o),
(110,38,cs),
(99,200,o),
(100,358,o),
(100,521,cs),
(100,526,o),
(107,529,o),
(110,524,cs),
(175,415,o),
(237,285,o),
(343,33,cs),
(352,11,o),
(368,0,o),
(390,0,cs)
);
}
);
width = 520;
}
);
metricLeft = "=H";
metricRight = "=H";
note = N;
unicode = 78;
},
{
glyphname = O;
lastChange = "2024-03-31 17:11:35 +0000";
layers = (
{
anchors = (
{
name = bottom;
pos = (285,0);
},
{
name = center;
pos = (285,334);
},
{
name = ogonek;
pos = (513,10);
},
{
name = top;
pos = (285,625);
},
{
name = topleft;
pos = (20,667);
},
{
name = topright;
pos = (550,667);
}
);
hints = (
{
horizontal = 1;
place = (-10,80);
type = Stem;
},
{
horizontal = 1;
place = (597,80);
type = Stem;
},
{
place = (35,110);
type = Stem;
},
{
place = (425,110);
type = Stem;
}
);
layerId = m005;
shapes = (
{
closed = 1;
nodes = (
(530,347,cs),
(530,530,o),
(439,677,o),
(285,677,cs),
(131,677,o),
(40,539,o),
(40,347,cs),
(40,110,o),
(111,-21,o),
(295,-10,cs),
(459,0,o),
(530,110,o)
);
},
{
closed = 1;
nodes = (
(140,347,ls),
(140,483,o),
(190,597,o),
(285,597,cs),
(380,597,o),
(430,483,o),
(430,347,cs),
(430,320,ls),
(430,163,o),
(380,90,o),
(285,80,cs),
(191,70,o),
(140,163,o),
(140,320,cs)
);
}
);
width = 570;
},
{
anchors = (
{
name = bottom;
pos = (285,0);
},
{
name = center;
pos = (285,334);
},
{
name = ogonek;
pos = (513,10);
},
{
name = top;
pos = (285,625);
},
{
name = topleft;
pos = (20,667);
},
{
name = topright;
pos = (550,667);
}
);
hints = (
{
horizontal = 1;
place = (-10,80);
type = Stem;
},
{
horizontal = 1;
place = (597,80);
type = Stem;
},
{
place = (35,110);
type = Stem;
},
{
place = (425,110);
type = Stem;
}
);
layerId = m002;
shapes = (
{
closed = 1;
nodes = (
(580,347,cs),
(580,516,o),
(473,690,o),
(288,692,cs),
(101,694,o),
(-10,529,o),
(-10,347,cs),
(-10,123,o),
(77,-38,o),
(298,-25,cs),
(493,-13,o),
(580,124,o)
);
},
{
closed = 1;
nodes = (
(190,347,ls),
(190,438,o),
(223,512,o),
(285,512,cs),
(347,512,o),
(380,438,o),
(380,347,cs),
(380,320,ls),
(380,213,o),
(352,172,o),
(280,165,cs),
(219,158,o),
(190,211,o),
(190,320,cs)
);
}
);
width = 570;
},
{
anchors = (
{
name = bottom;
pos = (285,0);
},
{
name = center;
pos = (285,334);
},
{
name = ogonek;
pos = (513,10);
},
{
name = top;
pos = (285,625);
},
{
name = topleft;
pos = (20,667);
},
{
name = topright;
pos = (550,667);
}
);
hints = (
{
horizontal = 1;
place = (-10,80);
type = Stem;
},
{
horizontal = 1;
place = (597,80);
type = Stem;
},
{
place = (35,110);
type = Stem;
},
{
place = (425,110);
type = Stem;
}
);
layerId = m003;
shapes = (
{
closed = 1;
nodes = (
(520,347,cs),
(520,534,o),
(433,674,o),
(284,674,cs),
(136,674,o),
(50,543,o),
(50,347,cs),
(50,106,o),
(117,-18,o),
(294,-7,cs),
(453,3,o),
(520,106,o)
);
},
{
closed = 1;
nodes = (
(130,347,ls),
(130,493,o),
(182,614,o),
(285,614,cs),
(388,614,o),
(440,493,o),
(440,347,cs),
(440,320,ls),
(440,152,o),
(387,74,o),
(286,63,cs),
(184,52,o),
(130,151,o),
(130,320,cs)
);
}
);
width = 570;
}
);
note = O;
unicode = 79;
},
{
export = 0;
glyphname = Oslash;
lastChange = "2024-02-03 22:32:44 +0000";
layers = (
{
hints = (
{
horizontal = 1;
place = (-10,80);
type = Stem;
},
{
horizontal = 1;
place = (597,80);
type = Stem;
},
{
place = (35,110);
type = Stem;
},
{
place = (425,110);
type = Stem;
}
);
layerId = m005;
shapes = (
{
closed = 1;
nodes = (
(84,2,l),
(152,-30,l),
(476,665,l),
(408,697,l)
);
},
{
ref = O;
}
);
width = 570;
},
{
hints = (
{
horizontal = 1;
place = (-10,80);
type = Stem;
},
{
horizontal = 1;
place = (597,80);
type = Stem;
},
{
place = (35,110);
type = Stem;
},
{
place = (425,110);
type = Stem;
}
);
layerId = m002;
shapes = (
{
closed = 1;
nodes = (
(84,2,l),
(152,-30,l),
(476,665,l),
(408,697,l)
);
},
{
ref = O;
}
);
width = 570;
},
{
hints = (
{
horizontal = 1;
place = (-10,80);
type = Stem;
},
{
horizontal = 1;
place = (597,80);
type = Stem;
},
{
place = (35,110);
type = Stem;
},
{
place = (425,110);
type = Stem;
}
);
layerId = m003;
shapes = (
{
closed = 1;
nodes = (
(84,2,l),
(152,-30,l),
(476,665,l),
(408,697,l)
);
},
{
ref = O;
}
);
width = 570;
}
);
note = O;
unicode = 216;
},
{
export = 0;
glyphname = OE;
lastChange = "2024-02-03 22:32:44 +0000";
layers = (
{
hints = (
{
horizontal = 1;
place = (0,75);
type = Stem;
},
{
horizontal = 1;
place = (305,74);
type = Stem;
},
{
horizontal = 1;
place = (592,75);
type = Stem;
},
{
place = (35,110);
type = Stem;
},
{
place = (425,100);
type = Stem;
},
{
horizontal = 1;
place = (-10,80);
type = Stem;
},
{
horizontal = 1;
place = (597,80);
type = Stem;
}
);
layerId = m005;
shapes = (
{
closed = 1;
nodes = (
(475,397,ls),
(475,577,o),
(439,677,o),
(285,677,cs),
(131,677,o),
(45,577,o),
(45,397,cs),
(45,270,ls),
(45,90,o),
(131,-10,o),
(285,-10,cs),
(439,-10,o),
(475,90,o),
(475,270,cs)
);
},
{
closed = 1;
nodes = (
(145,397,ls),
(145,533,o),
(190,597,o),
(285,597,cs),
(380,597,o),
(425,533,o),
(425,397,cs),
(425,270,ls),
(425,134,o),
(380,70,o),
(285,70,cs),
(190,70,o),
(145,134,o),
(145,270,cs)
);
},
{
pos = (365,0);
ref = E;
}
);
width = 855;
},
{
hints = (
{
horizontal = 1;
place = (0,75);
type = Stem;
},
{
horizontal = 1;
place = (305,74);
type = Stem;
},
{
horizontal = 1;
place = (592,75);
type = Stem;
},
{
place = (35,110);
type = Stem;
},
{
place = (425,100);
type = Stem;
},
{
horizontal = 1;
place = (-10,80);
type = Stem;
},
{
horizontal = 1;
place = (597,80);
type = Stem;
}
);
layerId = m002;
shapes = (
{
closed = 1;
nodes = (
(475,397,ls),
(475,577,o),
(439,677,o),
(285,677,cs),
(131,677,o),
(45,577,o),
(45,397,cs),
(45,270,ls),
(45,90,o),
(131,-10,o),
(285,-10,cs),
(439,-10,o),
(475,90,o),
(475,270,cs)
);
},
{
closed = 1;
nodes = (
(145,397,ls),
(145,533,o),
(190,597,o),
(285,597,cs),
(380,597,o),
(425,533,o),
(425,397,cs),
(425,270,ls),
(425,134,o),
(380,70,o),
(285,70,cs),
(190,70,o),
(145,134,o),
(145,270,cs)
);
},
{
pos = (365,0);
ref = E;
}
);
width = 855;
},
{
hints = (
{
horizontal = 1;
place = (0,75);
type = Stem;
},
{
horizontal = 1;
place = (305,74);
type = Stem;
},
{
horizontal = 1;
place = (592,75);
type = Stem;
},
{
place = (35,110);
type = Stem;
},
{
place = (425,100);
type = Stem;
},
{
horizontal = 1;
place = (-10,80);
type = Stem;
},
{
horizontal = 1;
place = (597,80);
type = Stem;
}
);
layerId = m003;
shapes = (
{
closed = 1;
nodes = (
(475,397,ls),
(475,577,o),
(439,677,o),
(285,677,cs),
(131,677,o),
(45,577,o),
(45,397,cs),
(45,270,ls),
(45,90,o),
(131,-10,o),
(285,-10,cs),
(439,-10,o),
(475,90,o),
(475,270,cs)
);
},
{
closed = 1;
nodes = (
(145,397,ls),
(145,533,o),
(190,597,o),
(285,597,cs),
(380,597,o),
(425,533,o),
(425,397,cs),
(425,270,ls),
(425,134,o),
(380,70,o),
(285,70,cs),
(190,70,o),
(145,134,o),
(145,270,cs)
);
},
{
pos = (365,0);
ref = E;
}
);
width = 855;
}
);
metricLeft = "=O";
metricRight = "=E";
note = OE;
unicode = 338;
},
{
glyphname = P;
lastChange = "2024-03-31 16:16:40 +0000";
layers = (
{
hints = (
{
horizontal = 1;
place = (0,21);
target = up;
type = BottomGhost;
},
{
horizontal = 1;
place = (282,67);
type = Stem;
},
{
horizontal = 1;
place = (598,69);
type = Stem;
},
{
place = (70,100);
type = Stem;
},
{
place = (406,99);
type = Stem;
}
);
layerId = m005;
shapes = (
{
closed = 1;
nodes = (
(115,0,o),
(150,21,o),
(146,50,cs),
(137,125,o),
(136,199,o),
(136,274,cs),
(136,281,o),
(142,286,o),
(149,284,cs),
(165,282,o),
(194,277,o),
(220,277,cs),
(384,277,o),
(485,355,o),
(485,477,cs),
(485,599,o),
(393,677,o),
(230,677,cs),
(154,677,o),
(115,673,o),
(85,667,cs),
(59,662,o),
(23,646,o),
(25,617,cs),
(35,428,o),
(34,239,o),
(25,50,cs),
(24,21,o),
(56,0,o),
(85,0,cs)
);
},
{
closed = 1;
nodes = (
(166,597,o),
(199,597,o),
(231,597,cs),
(336,597,o),
(386,552,o),
(386,477,cs),
(386,402,o),
(335,357,o),
(231,357,cs),
(191,357,o),
(157,363,o),
(143,365,cs),
(138,366,o),
(135,370,o),
(135,375,cs),
(135,442,o),
(135,511,o),
(126,578,cs),
(125,584,o),
(128,588,o),
(133,589,cs)
);
}
);
width = 498;
},
{
hints = (
{
horizontal = 1;
place = (0,21);
target = up;
type = BottomGhost;
},
{
horizontal = 1;
place = (282,67);
type = Stem;
},
{
horizontal = 1;
place = (598,69);
type = Stem;
},
{
place = (70,100);
type = Stem;
},
{
place = (406,99);
type = Stem;
}
);
layerId = m002;
shapes = (
{
closed = 1;
nodes = (
(195,-25,o),
(254,21,o),
(246,82,cs),
(239,128,o),
(238,158,o),
(237,200,cs),
(236,217,o),
(248,228,o),
(264,227,cs),
(266,227,o),
(268,227,o),
(270,227,cs),
(458,227,o),
(585,334,o),
(585,460,cs),
(585,627,o),
(468,692,o),
(280,692,cs),
(201,692,o),
(158,687,o),
(125,681,cs),
(74,671,o),
(21,636,o),
(25,579,cs),
(35,392,o),
(34,265,o),
(25,77,cs),
(23,19,o),
(77,-25,o),
(135,-25,cs)
);
},
{
closed = 1;
nodes = (
(264,512,o),
(272,512,o),
(281,512,cs),
(367,512,o),
(386,478,o),
(386,460,cs),
(386,435,o),
(366,407,o),
(281,407,cs),
(273,407,o),
(265,407,o),
(257,408,cs),
(244,409,o),
(235,419,o),
(235,433,cs),
(234,452,o),
(233,464,o),
(232,483,cs),
(231,499,o),
(241,512,o),
(255,512,cs)
);
}
);
width = 591;
},
{
hints = (
{
horizontal = 1;
place = (0,21);
target = up;
type = BottomGhost;
},
{
horizontal = 1;
place = (282,67);
type = Stem;
},
{
horizontal = 1;
place = (598,69);
type = Stem;
},
{
place = (70,100);
type = Stem;
},
{
place = (406,99);
type = Stem;
}
);
layerId = m003;
shapes = (
{
closed = 1;
nodes = (
(87,0,o),
(114,16,o),
(111,39,cs),
(100,120,o),
(101,209,o),
(101,290,cs),
(101,295,o),
(105,298,o),
(110,297,cs),
(134,292,o),
(168,287,o),
(195,287,cs),
(356,287,o),
(450,364,o),
(450,481,cs),
(450,605,o),
(364,674,o),
(205,674,cs),
(130,674,o),
(91,670,o),
(62,664,cs),
(37,659,o),
(8,647,o),
(10,625,cs),
(20,435,o),
(19,229,o),
(10,40,cs),
(9,16,o),
(34,0,o),
(60,0,cs)
);
},
{
closed = 1;
nodes = (
(132,614,o),
(170,614,o),
(206,614,cs),
(317,614,o),
(371,568,o),
(371,481,cs),
(371,400,o),
(315,347,o),
(206,347,cs),
(166,347,o),
(127,353,o),
(105,358,cs),
(102,359,o),
(100,361,o),
(100,364,cs),
(100,440,o),
(100,521,o),
(90,595,cs),
(89,599,o),
(91,602,o),
(94,603,cs)
);
}
);
width = 465;
}
);
metricLeft = "=H";
metricRight = "=H/4";
note = P;
unicode = 80;
},
{
export = 0;
glyphname = Thorn;
lastChange = "2024-02-03 22:32:44 +0000";
layers = (
{
hints = (
{
horizontal = 1;
place = (0,21);
target = up;
type = BottomGhost;
},
{
horizontal = 1;
place = (140,67);
type = Stem;
},
{
horizontal = 1;
place = (456,69);
type = Stem;
},
{
place = (70,100);
type = Stem;
},
{
place = (406,99);
type = Stem;
}
);
layerId = m005;
shapes = (
{
closed = 1;
nodes = (
(255,150,ls),
(419,150,o),
(510,218,o),
(510,340,cs),
(510,462,o),
(419,530,o),
(255,530,cs),
(60,530,l),
(160,450,l),
(256,450,ls),
(361,450,o),
(411,415,o),
(411,340,cs),
(411,265,o),
(361,230,o),
(256,230,cs),
(160,230,l),
(160,150,l)
);
},
{
closed = 1;
nodes = (
(161,0,l),
(160,667,l),
(60,667,l),
(60,0,l)
);
}
);
width = 525;
},
{
hints = (
{
horizontal = 1;
place = (0,21);
target = up;
type = BottomGhost;
},
{
horizontal = 1;
place = (140,67);
type = Stem;
},
{
horizontal = 1;
place = (456,69);
type = Stem;
},
{
place = (70,100);
type = Stem;
},
{
place = (406,99);
type = Stem;
}
);
layerId = m002;
shapes = (
{
closed = 1;
nodes = (
(255,150,ls),
(419,150,o),
(510,218,o),
(510,340,cs),
(510,462,o),
(419,530,o),
(255,530,cs),
(60,530,l),
(160,450,l),
(256,450,ls),
(361,450,o),
(411,415,o),
(411,340,cs),
(411,265,o),
(361,230,o),
(256,230,cs),
(160,230,l),
(160,150,l)
);
},
{
closed = 1;
nodes = (
(161,0,l),
(160,667,l),
(60,667,l),
(60,0,l)
);
}
);
width = 525;
},
{
hints = (
{
horizontal = 1;
place = (0,21);
target = up;
type = BottomGhost;
},
{
horizontal = 1;
place = (140,67);
type = Stem;
},
{
horizontal = 1;
place = (456,69);
type = Stem;
},
{
place = (70,100);
type = Stem;
},
{
place = (406,99);
type = Stem;
}
);
layerId = m003;
shapes = (
{
closed = 1;
nodes = (
(255,150,ls),
(419,150,o),
(510,218,o),
(510,340,cs),
(510,462,o),
(419,530,o),
(255,530,cs),
(60,530,l),
(160,450,l),
(256,450,ls),
(361,450,o),
(411,415,o),
(411,340,cs),
(411,265,o),
(361,230,o),
(256,230,cs),
(160,230,l),
(160,150,l)
);
},
{
closed = 1;
nodes = (
(161,0,l),
(160,667,l),
(60,667,l),
(60,0,l)
);
}
);
width = 525;
}
);
metricLeft = "=P";
metricRight = "=P";
note = Thorn;
unicode = 222;
},
{
glyphname = Q;
lastChange = "2024-03-31 17:11:27 +0000";
layers = (
{
anchors = (
{
name = bottom;
pos = (285,0);
},
{
name = center;
pos = (285,334);
},
{
name = ogonek;
pos = (513,10);
},
{
name = top;
pos = (285,625);
},
{
name = topleft;
pos = (20,667);
},
{
name = topright;
pos = (550,667);
}
);
hints = (
{
horizontal = 1;
place = (-200,70);
type = Stem;
},
{
horizontal = 1;
place = (-7,21);
target = up;
type = BottomGhost;
},
{
horizontal = 1;
place = (597,80);
type = Stem;
},
{
place = (35,110);
type = Stem;
},
{
place = (425,110);
type = Stem;
},
{
horizontal = 1;
place = (-7,77);
type = Stem;
},
{
horizontal = 1;
place = (-10,80);
type = Stem;
},
{
horizontal = 1;
place = (597,80);
type = Stem;
},
{
place = (35,110);
type = Stem;
},
{
place = (425,110);
type = Stem;
}
);
layerId = m005;
shapes = (
{
closed = 1;
nodes = (
(530,347,cs),
(530,530,o),
(439,677,o),
(285,677,cs),
(131,677,o),
(40,539,o),
(40,347,cs),
(40,138,o),
(95,22,o),
(231,-4,cs),
(237,-6,o),
(240,-9,o),
(240,-15,cs),
(246,-116,o),
(313,-184,o),
(416,-198,cs),
(438,-200,o),
(454,-184,o),
(454,-163,cs),
(454,-143,o),
(441,-131,o),
(423,-127,cs),
(368,-117,o),
(335,-80,o),
(331,-18,cs),
(330,-11,o),
(333,-8,o),
(339,-7,cs),
(472,14,o),
(530,132,o)
);
},
{
closed = 1;
nodes = (
(140,347,ls),
(140,483,o),
(190,597,o),
(285,597,cs),
(380,597,o),
(430,483,o),
(430,347,cs),
(430,320,ls),
(430,163,o),
(380,90,o),
(285,80,cs),
(191,70,o),
(140,163,o),
(140,320,cs)
);
}
);
width = 570;
},
{
anchors = (
{
name = bottom;
pos = (285,0);
},
{
name = center;
pos = (285,334);
},
{
name = ogonek;
pos = (513,10);
},
{
name = top;
pos = (285,625);
},
{
name = topleft;
pos = (20,667);
},
{
name = topright;
pos = (550,667);
}
);
hints = (
{
horizontal = 1;
place = (-200,70);
type = Stem;
},
{
horizontal = 1;
place = (-7,21);
target = up;
type = BottomGhost;
},
{
horizontal = 1;
place = (597,80);
type = Stem;
},
{
place = (35,110);
type = Stem;
},
{
place = (425,110);
type = Stem;
},
{
horizontal = 1;
place = (-7,77);
type = Stem;
},
{
horizontal = 1;
place = (-10,80);
type = Stem;
},
{
horizontal = 1;
place = (597,80);
type = Stem;
},
{
place = (35,110);
type = Stem;
},
{
place = (425,110);
type = Stem;
}
);
layerId = m002;
shapes = (
{
closed = 1;
nodes = (
(580,347,cs),
(580,516,o),
(473,690,o),
(288,692,cs),
(101,694,o),
(-10,529,o),
(-10,347,cs),
(-10,166,o),
(46,35,o),
(182,-9,cs),
(187,-10,o),
(190,-14,o),
(190,-20,cs),
(199,-147,o),
(288,-234,o),
(418,-250,cs),
(468,-256,o),
(504,-214,o),
(504,-165,cs),
(504,-113,o),
(468,-88,o),
(420,-77,cs),
(394,-71,o),
(384,-56,o),
(381,-23,cs),
(380,-17,o),
(383,-13,o),
(389,-11,cs),
(521,30,o),
(580,161,o)
);
},
{
closed = 1;
nodes = (
(190,347,ls),
(190,438,o),
(223,512,o),
(285,512,cs),
(347,512,o),
(380,438,o),
(380,347,cs),
(380,320,ls),
(380,213,o),
(352,172,o),
(280,165,cs),
(219,159,o),
(190,211,o),
(190,320,cs)
);
}
);
width = 570;
},
{
anchors = (
{
name = bottom;
pos = (285,0);
},
{
name = center;
pos = (285,334);
},
{
name = ogonek;
pos = (513,10);
},
{
name = top;
pos = (285,625);
},
{
name = topleft;
pos = (20,667);
},
{
name = topright;
pos = (550,667);
}
);
hints = (
{
horizontal = 1;
place = (-200,70);
type = Stem;
},
{
horizontal = 1;
place = (-7,21);
target = up;
type = BottomGhost;
},
{
horizontal = 1;
place = (597,80);
type = Stem;
},
{
place = (35,110);
type = Stem;
},
{
place = (425,110);
type = Stem;
},
{
horizontal = 1;
place = (-7,77);
type = Stem;
},
{
horizontal = 1;
place = (-10,80);
type = Stem;
},
{
horizontal = 1;
place = (597,80);
type = Stem;
},
{
place = (35,110);
type = Stem;
},
{
place = (425,110);
type = Stem;
}
);
layerId = m003;
shapes = (
{
closed = 1;
nodes = (
(520,347,cs),
(520,534,o),
(433,674,o),
(284,674,cs),
(136,674,o),
(50,543,o),
(50,347,cs),
(50,129,o),
(104,16,o),
(245,-3,cs),
(249,-4,o),
(251,-6,o),
(252,-10,cs),
(261,-115,o),
(322,-176,o),
(417,-188,cs),
(432,-190,o),
(444,-178,o),
(444,-163,cs),
(444,-149,o),
(435,-140,o),
(423,-138,cs),
(366,-128,o),
(330,-88,o),
(322,-13,cs),
(321,-8,o),
(323,-6,o),
(328,-5,cs),
(463,11,o),
(520,124,o)
);
},
{
closed = 1;
nodes = (
(130,347,ls),
(130,493,o),
(182,614,o),
(285,614,cs),
(388,614,o),
(440,493,o),
(440,347,cs),
(440,320,ls),
(440,152,o),
(387,64,o),
(286,63,cs),
(183,62,o),
(130,151,o),
(130,320,cs)
);
}
);
width = 570;
}
);
metricLeft = "=O";
metricRight = "=O";
note = Q;
unicode = 81;
},
{
glyphname = R;
lastChange = "2024-03-31 16:15:35 +0000";
layers = (
{
hints = (
{
horizontal = 1;
place = (0,21);
target = up;
type = BottomGhost;
},
{
horizontal = 1;
place = (282,67);
type = Stem;
},
{
horizontal = 1;
place = (598,69);
type = Stem;
},
{
place = (70,100);
type = Stem;
},
{
place = (406,99);
type = Stem;
}
);
layerId = m005;
shapes = (
{
closed = 1;
nodes = (
(114,0,o),
(148,21,o),
(145,49,cs),
(135,129,o),
(135,208,o),
(135,288,cs),
(135,295,o),
(140,299,o),
(147,298,cs),
(167,295,o),
(207,290,o),
(230,290,cs),
(237,290,o),
(239,289,o),
(240,288,cs),
(271,258,o),
(338,178,o),
(368,40,cs),
(373,16,o),
(401,0,o),
(424,0,cs),
(458,0,o),
(492,29,o),
(483,65,cs),
(449,205,o),
(371,274,o),
(338,298,cs),
(335,301,o),
(335,304,o),
(339,305,cs),
(424,334,o),
(470,398,o),
(470,484,cs),
(470,602,o),
(384,682,o),
(230,682,cs),
(158,682,o),
(106,673,o),
(84,667,cs),
(58,660,o),
(24,646,o),
(25,618,cs),
(35,428,o),
(35,239,o),
(25,49,cs),
(24,21,o),
(56,0,o),
(84,0,cs)
);
},
{
closed = 1;
nodes = (
(187,370,o),
(156,375,o),
(143,378,cs),
(139,379,o),
(136,383,o),
(136,387,cs),
(136,451,o),
(136,514,o),
(127,577,c),
(127,583,o),
(130,588,o),
(136,589,cs),
(154,591,o),
(194,597,o),
(231,597,cs),
(326,597,o),
(371,554,o),
(371,484,cs),
(371,413,o),
(326,370,o),
(231,370,cs)
);
}
);
width = 509;
},
{
hints = (
{
horizontal = 1;
place = (0,21);
target = up;
type = BottomGhost;
},
{
horizontal = 1;
place = (282,67);
type = Stem;
},
{
horizontal = 1;
place = (598,69);
type = Stem;
},
{
place = (70,100);
type = Stem;
},
{
place = (406,99);
type = Stem;
}
);
layerId = m002;
shapes = (
{
closed = 1;
nodes = (
(194,-25,o),
(251,21,o),
(245,80,cs),
(238,132,o),
(237,166,o),
(236,213,cs),
(235,223,o),
(239,232,o),
(244,237,cs),
(248,240,o),
(252,241,o),
(257,241,cs),
(262,240,o),
(266,238,o),
(269,235,cs),
(324,179,o),
(353,131,o),
(369,55,cs),
(379,7,o),
(427,-25,o),
(474,-25,cs),
(541,-25,o),
(598,35,o),
(582,102,cs),
(564,178,o),
(533,232,o),
(497,273,cs),
(487,285,o),
(488,300,o),
(500,310,cs),
(545,350,o),
(570,403,o),
(570,464,cs),
(570,590,o),
(462,692,o),
(280,692,cs),
(204,692,o),
(145,682,o),
(121,675,cs),
(72,662,o),
(23,632,o),
(25,576,cs),
(35,387,o),
(35,265,o),
(25,76,cs),
(23,19,o),
(77,-25,o),
(134,-25,cs)
);
},
{
closed = 1;
nodes = (
(274,420,o),
(266,420,o),
(258,421,cs),
(245,421,o),
(236,432,o),
(236,446,cs),
(235,457,o),
(235,467,o),
(234,478,cs),
(232,493,o),
(241,505,o),
(256,506,cs),
(264,507,o),
(273,507,o),
(281,507,cs),
(356,507,o),
(371,493,o),
(371,464,cs),
(371,434,o),
(356,420,o),
(281,420,cs)
);
}
);
width = 598;
},
{
hints = (
{
horizontal = 1;
place = (0,21);
target = up;
type = BottomGhost;
},
{
horizontal = 1;
place = (282,67);
type = Stem;
},
{
horizontal = 1;
place = (598,69);
type = Stem;
},
{
place = (70,100);
type = Stem;
},
{
place = (406,99);
type = Stem;
}
);
layerId = m003;
shapes = (
{
closed = 1;
nodes = (
(86,0,o),
(112,16,o),
(110,38,cs),
(100,123,o),
(100,217,o),
(100,303,cs),
(100,308,o),
(104,311,o),
(109,310,cs),
(141,305,o),
(182,300,o),
(205,300,cs),
(216,300,o),
(218,299,o),
(219,298,cs),
(247,271,o),
(321,179,o),
(353,32,cs),
(357,12,o),
(379,0,o),
(399,0,cs),
(429,0,o),
(456,23,o),
(448,53,cs),
(411,208,o),
(319,281,o),
(291,301,cs),
(288,303,o),
(288,307,o),
(292,308,cs),
(386,334,o),
(435,400,o),
(435,489,cs),
(435,613,o),
(355,682,o),
(205,682,cs),
(134,682,o),
(83,673,o),
(62,667,cs),
(36,661,o),
(9,649,o),
(10,628,cs),
(20,438,o),
(20,229,o),
(10,39,cs),
(9,16,o),
(34,0,o),
(59,0,cs)
);
},
{
closed = 1;
nodes = (
(160,360,o),
(123,366,o),
(105,372,c),
(103,372,o),
(101,375,o),
(101,378,cs),
(101,448,o),
(101,528,o),
(91,598,cs),
(90,602,o),
(93,606,o),
(97,606,c),
(125,611,o),
(169,617,o),
(206,617,cs),
(306,617,o),
(356,575,o),
(356,489,cs),
(356,412,o),
(306,360,o),
(206,360,cs)
);
}
);
width = 479;
}
);
metricLeft = "=H";
metricRight = "=H/2";
note = P;
unicode = 82;
},
{
glyphname = S;
lastChange = "2024-03-31 16:15:12 +0000";
layers = (
{
anchors = (
{
name = bottom;
pos = (188,0);
},
{
name = top;
pos = (197,625);
}
);
hints = (
{
horizontal = 1;
place = (-10,85);
type = Stem;
},
{
horizontal = 1;
place = (597,80);
type = Stem;
},
{
place = (41,90);
type = Stem;
},
{
place = (331,110);
type = Stem;
}
);
layerId = m005;
shapes = (
{
closed = 1;
nodes = (
(421,298,o),
(349,369,o),
(218,400,cs),
(145,416,o),
(111,448,o),
(111,500,cs),
(111,562,o),
(142,597,o),
(198,597,cs),
(226,597,o),
(249,582,o),
(268,571,cs),
(289,558,o),
(316,565,o),
(333,582,cs),
(338,587,ls),
(357,606,o),
(349,627,o),
(327,642,cs),
(291,665,o),
(249,677,o),
(198,677,cs),
(90,677,o),
(21,607,o),
(21,499,cs),
(21,408,o),
(80,340,o),
(188,310,cs),
(274,286,o),
(321,246,o),
(321,200,cs),
(321,116,o),
(274,80,o),
(188,80,cs),
(151,80,o),
(114,96,o),
(82,116,cs),
(61,129,o),
(21,99,o),
(20,67,cs),
(18,45,o),
(24,26,o),
(48,16,cs),
(92,-1,o),
(141,-10,o),
(188,-10,cs),
(329,-10,o),
(421,73,o),
(421,200,cs)
);
}
);
width = 441;
},
{
anchors = (
{
name = bottom;
pos = (214,0);
},
{
name = top;
pos = (223,625);
}
);
hints = (
{
horizontal = 1;
place = (-10,85);
type = Stem;
},
{
horizontal = 1;
place = (597,80);
type = Stem;
},
{
place = (41,90);
type = Stem;
},
{
place = (331,110);
type = Stem;
}
);
layerId = m002;
shapes = (
{
closed = 1;
nodes = (
(497,324,o),
(406,413,o),
(255,449,cs),
(206,460,o),
(189,470,o),
(187,490,cs),
(187,504,o),
(200,512,o),
(224,512,cs),
(237,512,o),
(248,505,o),
(268,493,cs),
(309,468,o),
(360,478,o),
(394,512,cs),
(399,517,ls),
(439,557,o),
(431,614,o),
(380,649,cs),
(336,677,o),
(284,692,o),
(224,692,cs),
(88,692,o),
(-3,634,o),
(-3,499,cs),
(-3,385,o),
(71,298,o),
(200,262,cs),
(273,242,o),
(297,227,o),
(297,200,cs),
(297,174,o),
(276,165,o),
(229,165,cs),
(187,165,o),
(163,175,o),
(134,193,cs),
(78,228,o),
(-5,171,o),
(-5,102,cs),
(-5,59,o),
(11,23,o),
(55,5,cs),
(104,-15,o),
(161,-25,o),
(214,-25,cs),
(381,-25,o),
(497,44,o),
(497,200,cs)
);
}
);
width = 492;
},
{
anchors = (
{
name = bottom;
pos = (183,0);
},
{
name = top;
pos = (192,625);
}
);
hints = (
{
horizontal = 1;
place = (-10,85);
type = Stem;
},
{
horizontal = 1;
place = (597,80);
type = Stem;
},
{
place = (41,90);
type = Stem;
},
{
place = (331,110);
type = Stem;
}
);
layerId = m003;
shapes = (
{
closed = 1;
nodes = (
(406,294,o),
(338,360,o),
(210,390,cs),
(134,407,o),
(96,443,o),
(96,500,cs),
(96,567,o),
(131,614,o),
(193,614,cs),
(224,614,o),
(249,598,o),
(268,587,cs),
(286,576,o),
(306,581,o),
(321,596,cs),
(326,601,ls),
(340,615,o),
(336,628,o),
(316,641,cs),
(282,663,o),
(243,674,o),
(193,674,cs),
(89,674,o),
(26,603,o),
(26,499,cs),
(26,412,o),
(80,349,o),
(185,320,cs),
(274,295,o),
(326,252,o),
(326,200,cs),
(326,110,o),
(274,63,o),
(183,63,cs),
(144,63,o),
(104,80,o),
(72,101,cs),
(57,110,o),
(25,87,o),
(25,60,cs),
(25,39,o),
(27,26,o),
(47,18,cs),
(90,2,o),
(137,-7,o),
(183,-7,cs),
(320,-7,o),
(406,77,o),
(406,200,cs)
);
}
);
width = 431;
}
);
metricLeft = "=O/2";
metricRight = "=O/2";
note = S;
unicode = 83;
},
{
glyphname = T;
kernRight = T;
lastChange = "2024-03-31 16:14:46 +0000";
layers = (
{
hints = (
{
horizontal = 1;
place = (0,21);
target = up;
type = BottomGhost;
},
{
place = (70,100);
type = Stem;
}
);
layerId = m005;
shapes = (
{
closed = 1;
nodes = (
(296,217,o),
(295,395,o),
(295,574,cs),
(295,580,o),
(299,584,o),
(305,584,cs),
(347,583,o),
(389,581,o),
(431,577,cs),
(456,575,o),
(470,601,o),
(470,626,cs),
(470,653,o),
(456,679,o),
(431,677,cs),
(307,667,o),
(183,657,o),
(59,667,cs),
(34,669,o),
(20,653,o),
(20,626,cs),
(20,601,o),
(34,575,o),
(59,577,cs),
(101,581,o),
(143,583,o),
(185,584,cs),
(191,584,o),
(195,580,o),
(195,574,cs),
(195,394,o),
(194,221,o),
(185,39,cs),
(184,8,o),
(213,-10,o),
(246,-10,cs),
(277,-10,o),
(306,8,o),
(305,39,cs)
);
}
);
width = 490;
},
{
hints = (
{
horizontal = 1;
place = (0,21);
target = up;
type = BottomGhost;
},
{
place = (70,100);
type = Stem;
}
);
layerId = m002;
shapes = (
{
closed = 1;
nodes = (
(372,221,o),
(370,311,o),
(370,445,cs),
(370,479,o),
(388,497,o),
(421,495,cs),
(431,494,o),
(441,493,o),
(451,492,cs),
(506,488,o),
(545,536,o),
(545,591,cs),
(545,648,o),
(506,696,o),
(451,692,cs),
(327,682,o),
(208,672,o),
(88,682,cs),
(33,686,o),
(-5,647,o),
(-5,591,cs),
(-5,536,o),
(33,488,o),
(88,492,cs),
(101,493,o),
(115,494,o),
(128,495,cs),
(155,497,o),
(169,479,o),
(169,445,cs),
(169,312,o),
(167,225,o),
(160,76,cs),
(158,16,o),
(209,-25,o),
(271,-25,cs),
(330,-25,o),
(381,16,o),
(379,76,cs)
);
}
);
width = 540;
},
{
hints = (
{
horizontal = 1;
place = (0,21);
target = up;
type = BottomGhost;
},
{
place = (70,100);
type = Stem;
}
);
layerId = m003;
shapes = (
{
closed = 1;
nodes = (
(281,214,o),
(280,414,o),
(280,597,cs),
(279,602,o),
(282,604,o),
(287,604,cs),
(332,603,o),
(380,601,o),
(427,597,cs),
(445,595,o),
(455,614,o),
(455,636,cs),
(455,660,o),
(445,679,o),
(427,677,cs),
(303,667,o),
(178,657,o),
(53,667,cs),
(33,669,o),
(25,659,o),
(25,636,cs),
(25,614,o),
(35,595,o),
(53,597,cs),
(99,601,o),
(147,603,o),
(192,604,cs),
(197,604,o),
(200,602,o),
(199,597,cs),
(199,413,o),
(198,218,o),
(190,32,cs),
(189,6,o),
(211,-7,o),
(241,-7,cs),
(269,-7,o),
(291,6,o),
(290,32,cs)
);
}
);
width = 480;
}
);
metricLeft = "=O/2";
metricRight = "=O/2";
note = I;
unicode = 84;
},
{
glyphname = U;
lastChange = "2024-03-31 16:14:17 +0000";
layers = (
{
anchors = (
{
name = bottom;
pos = (260,0);
},
{
name = ogonek;
pos = (488,10);
},
{
name = top;
pos = (260,625);
},
{
name = topright;
pos = (525,667);
}
);
hints = (
{
horizontal = 1;
place = (-10,85);
type = Stem;
},
{
place = (50,105);
type = Stem;
},
{
place = (415,105);
type = Stem;
}
);
layerId = m005;
shapes = (
{
closed = 1;
nodes = (
(56,667,o),
(23,646,o),
(25,617,cs),
(35,501,o),
(35,386,o),
(35,270,cs),
(35,90,o),
(115,-1,o),
(260,-10,cs),
(415,-20,o),
(485,90,o),
(485,270,cs),
(485,386,o),
(485,511,o),
(495,627,cs),
(497,656,o),
(464,677,o),
(435,677,cs),
(406,677,o),
(373,656,o),
(375,627,cs),
(385,511,o),
(385,386,o),
(385,270,cs),
(385,134,o),
(345,80,o),
(260,80,cs),
(175,80,o),
(135,134,o),
(135,270,cs),
(135,386,o),
(135,501,o),
(135,617,cs),
(135,646,o),
(114,667,o),
(85,667,cs)
);
}
);
width = 545;
},
{
anchors = (
{
name = bottom;
pos = (310,0);
},
{
name = ogonek;
pos = (538,10);
},
{
name = top;
pos = (310,625);
},
{
name = topright;
pos = (575,667);
}
);
hints = (
{
horizontal = 1;
place = (-10,85);
type = Stem;
},
{
place = (50,105);
type = Stem;
},
{
place = (415,105);
type = Stem;
}
);
layerId = m002;
shapes = (
{
closed = 1;
nodes = (
(77,692,o),
(21,648,o),
(25,588,cs),
(35,474,o),
(35,421,o),
(35,305,cs),
(35,100,o),
(135,-14,o),
(307,-25,cs),
(495,-37,o),
(585,100,o),
(585,305,cs),
(585,421,o),
(585,484,o),
(595,598,cs),
(599,658,o),
(543,702,o),
(485,702,cs),
(427,702,o),
(371,658,o),
(375,598,cs),
(385,484,o),
(385,421,o),
(385,305,cs),
(385,216,o),
(370,165,o),
(310,165,cs),
(250,165,o),
(235,216,o),
(235,305,cs),
(235,421,o),
(235,476,o),
(235,592,cs),
(235,649,o),
(192,692,o),
(135,692,cs)
);
}
);
width = 620;
},
{
anchors = (
{
name = bottom;
pos = (235,0);
},
{
name = ogonek;
pos = (463,10);
},
{
name = top;
pos = (235,625);
},
{
name = topright;
pos = (500,667);
}
);
hints = (
{
horizontal = 1;
place = (-10,85);
type = Stem;
},
{
place = (50,105);
type = Stem;
},
{
place = (415,105);
type = Stem;
}
);
layerId = m003;
shapes = (
{
closed = 1;
nodes = (
(34,667,o),
(8,651,o),
(10,628,cs),
(20,511,o),
(20,376,o),
(20,260,cs),
(20,84,o),
(95,-1,o),
(236,-10,cs),
(385,-20,o),
(450,83,o),
(450,260,cs),
(450,376,o),
(450,521,o),
(460,638,cs),
(462,661,o),
(436,677,o),
(410,677,cs),
(384,677,o),
(358,661,o),
(360,638,cs),
(370,521,o),
(370,376,o),
(370,260,cs),
(370,118,o),
(326,60,o),
(235,60,cs),
(144,60,o),
(100,118,o),
(100,260,cs),
(100,376,o),
(100,511,o),
(100,627,cs),
(100,652,o),
(85,667,o),
(60,667,cs)
);
}
);
width = 520;
}
);
metricLeft = "=H";
metricRight = "=H";
note = U;
unicode = 85;
},
{
glyphname = V;
kernLeft = V;
kernRight = V;
lastChange = "2024-03-31 16:14:03 +0000";
layers = (
{
hints = (
{
horizontal = 1;
place = (0,21);
target = up;
type = BottomGhost;
},
{
horizontal = 1;
place = (150,75);
type = Stem;
},
{
horizontal = 1;
place = (557,110);
type = Stem;
},
{
place = (12,516);
type = Stem;
}
);
layerId = m005;
shapes = (
{
closed = 1;
nodes = (
(218,255,o),
(171,428,o),
(136,612,cs),
(130,645,o),
(109,667,o),
(71,667,cs),
(41,667,o),
(11,633,o),
(23,594,cs),
(76,419,o),
(139,215,o),
(206,45,cs),
(217,17,o),
(243,0,o),
(275,0,cs),
(305,0,o),
(331,17,o),
(342,45,cs),
(409,215,o),
(472,419,o),
(525,594,cs),
(537,633,o),
(521,677,o),
(465,677,cs),
(439,677,o),
(408,650,o),
(404,624,cs),
(379,436,o),
(331,258,o),
(278,121,cs),
(277,117,o),
(271,117,o),
(270,121,cs)
);
}
);
width = 549;
},
{
hints = (
{
horizontal = 1;
place = (0,21);
target = up;
type = BottomGhost;
},
{
horizontal = 1;
place = (150,75);
type = Stem;
},
{
horizontal = 1;
place = (557,110);
type = Stem;
},
{
place = (12,516);
type = Stem;
}
);
layerId = m002;
shapes = (
{
closed = 1;
nodes = (
(228,403,o),
(209,474,o),
(185,596,cs),
(175,653,o),
(133,692,o),
(71,692,cs),
(7,692,o),
(-47,625,o),
(-25,554,cs),
(28,379,o),
(82,223,o),
(159,52,cs),
(180,6,o),
(223,-25,o),
(275,-25,cs),
(325,-25,o),
(368,6,o),
(389,52,cs),
(466,223,o),
(520,379,o),
(573,554,cs),
(596,629,o),
(551,702,o),
(465,702,cs),
(414,702,o),
(362,657,o),
(355,606,cs),
(338,481,o),
(320,406,o),
(281,304,cs),
(278,298,o),
(270,297,o),
(267,304,cs)
);
}
);
width = 549;
},
{
hints = (
{
horizontal = 1;
place = (0,21);
target = up;
type = BottomGhost;
},
{
horizontal = 1;
place = (150,75);
type = Stem;
},
{
horizontal = 1;
place = (557,110);
type = Stem;
},
{
place = (12,516);
type = Stem;
}
);
layerId = m003;
shapes = (
{
closed = 1;
nodes = (
(215,222,o),
(163,425,o),
(126,620,cs),
(121,650,o),
(105,667,o),
(71,667,cs),
(46,667,o),
(22,641,o),
(33,607,cs),
(86,432,o),
(148,208,o),
(215,39,cs),
(225,14,o),
(246,0,o),
(275,0,cs),
(302,0,o),
(323,14,o),
(333,39,cs),
(400,208,o),
(462,432,o),
(515,607,cs),
(526,643,o),
(514,677,o),
(465,677,cs),
(443,677,o),
(417,655,o),
(414,633,cs),
(387,433,o),
(334,225,o),
(278,83,cs),
(276,79,o),
(272,79,o),
(270,83,cs)
);
}
);
width = 549;
}
);
note = A;
unicode = 86;
},
{
glyphname = W;
kernLeft = V;
kernRight = V;
lastChange = "2024-03-31 16:13:42 +0000";
layers = (
{
anchors = (
{
name = bottom;
pos = (378,0);
},
{
name = top;
pos = (378,625);
}
);
hints = (
{
horizontal = 1;
place = (0,21);
target = up;
type = BottomGhost;
},
{
place = (35,724);
type = Stem;
},
{
horizontal = 1;
place = (0,150);
type = Stem;
}
);
layerId = m005;
shapes = (
{
closed = 1;
nodes = (
(249,0,o),
(286,17,o),
(291,46,cs),
(313,161,o),
(349,307,o),
(376,458,cs),
(377,461,o),
(379,461,o),
(380,458,cs),
(407,307,o),
(443,161,o),
(465,46,cs),
(470,17,o),
(507,0,o),
(536,0,cs),
(565,0,o),
(600,17,o),
(607,45,cs),
(652,235,o),
(704,458,o),
(745,625,cs),
(753,658,o),
(724,677,o),
(691,677,cs),
(659,677,o),
(633,662,o),
(629,632,cs),
(610,479,o),
(584,291,o),
(538,117,cs),
(537,114,o),
(535,114,o),
(534,117,cs),
(488,290,o),
(452,468,o),
(433,621,cs),
(429,651,o),
(412,667,o),
(374,667,cs),
(344,667,o),
(327,651,o),
(323,621,cs),
(304,468,o),
(268,290,o),
(222,117,cs),
(221,114,o),
(219,114,o),
(218,117,cs),
(172,291,o),
(146,469,o),
(127,622,cs),
(123,652,o),
(97,667,o),
(67,667,cs),
(31,667,o),
(15,648,o),
(21,615,cs),
(52,448,o),
(104,235,o),
(149,45,cs),
(156,17,o),
(191,0,o),
(220,0,cs)
);
}
);
width = 766;
},
{
anchors = (
{
name = bottom;
pos = (378,0);
},
{
name = top;
pos = (378,625);
}
);
hints = (
{
horizontal = 1;
place = (0,21);
target = up;
type = BottomGhost;
},
{
place = (35,724);
type = Stem;
},
{
horizontal = 1;
place = (0,150);
type = Stem;
}
);
layerId = m002;
shapes = (
{
closed = 1;
nodes = (
(276,-25,o),
(331,9,o),
(340,62,cs),
(349,108,o),
(360,160,o),
(372,215,cs),
(374,225,o),
(382,225,o),
(384,215,cs),
(396,160,o),
(407,108,o),
(416,62,cs),
(425,9,o),
(480,-25,o),
(537,-25,cs),
(589,-25,o),
(642,8,o),
(656,58,cs),
(711,249,o),
(753,421,o),
(794,588,cs),
(810,655,o),
(754,702,o),
(691,702,cs),
(634,702,o),
(587,669,o),
(579,613,cs),
(569,528,o),
(557,454,o),
(540,362,cs),
(538,352,o),
(529,352,o),
(527,362,cs),
(508,450,o),
(493,519,o),
(483,602,cs),
(475,657,o),
(437,692,o),
(374,692,cs),
(319,692,o),
(281,657,o),
(273,602,cs),
(263,519,o),
(248,449,o),
(229,360,cs),
(226,350,o),
(218,350,o),
(216,360,cs),
(199,449,o),
(187,519,o),
(177,603,cs),
(169,659,o),
(122,692,o),
(67,692,cs),
(0,692,o),
(-40,645,o),
(-28,581,cs),
(3,412,o),
(45,248,o),
(100,58,cs),
(114,8,o),
(167,-25,o),
(219,-25,cs)
);
}
);
width = 767;
},
{
anchors = (
{
name = bottom;
pos = (378,0);
},
{
name = top;
pos = (378,625);
}
);
hints = (
{
horizontal = 1;
place = (0,21);
target = up;
type = BottomGhost;
},
{
place = (35,724);
type = Stem;
},
{
horizontal = 1;
place = (0,150);
type = Stem;
}
);
layerId = m003;
shapes = (
{
closed = 1;
nodes = (
(247,0,o),
(277,14,o),
(281,38,cs),
(306,167,o),
(348,355,o),
(376,526,cs),
(377,529,o),
(379,529,o),
(380,526,cs),
(408,355,o),
(450,167,o),
(475,38,cs),
(479,14,o),
(509,0,o),
(537,0,cs),
(563,0,o),
(591,14,o),
(597,37,cs),
(642,227,o),
(694,470,o),
(735,637,cs),
(742,664,o),
(721,677,o),
(689,677,cs),
(662,677,o),
(642,666,o),
(639,641,cs),
(619,477,o),
(590,253,o),
(538,69,cs),
(537,66,o),
(535,66,o),
(534,69,cs),
(483,253,o),
(443,466,o),
(423,630,cs),
(420,656,o),
(408,667,o),
(374,667,cs),
(348,667,o),
(336,656,o),
(333,630,cs),
(313,466,o),
(273,253,o),
(222,69,cs),
(221,66,o),
(219,66,o),
(218,69,cs),
(166,255,o),
(137,467,o),
(117,631,cs),
(114,656,o),
(94,667,o),
(67,667,cs),
(36,667,o),
(26,655,o),
(31,627,cs),
(62,460,o),
(114,227,o),
(159,37,cs),
(165,14,o),
(193,0,o),
(219,0,cs)
);
}
);
width = 766;
}
);
metricLeft = "=V";
metricRight = "=V";
note = W;
unicode = 87;
},
{
glyphname = X;
lastChange = "2024-03-31 16:11:37 +0000";
layers = (
{
hints = (
{
horizontal = 1;
place = (0,21);
target = up;
type = BottomGhost;
},
{
place = (21,498);
type = Stem;
}
);
layerId = m005;
shapes = (
{
closed = 1;
nodes = (
(79,0,o),
(112,12,o),
(123,39,cs),
(156,119,o),
(196,204,o),
(254,281,cs),
(255,283,o),
(257,283,o),
(258,281,cs),
(316,194,o),
(356,129,o),
(389,49,cs),
(400,22,o),
(433,0,o),
(464,0,cs),
(493,0,o),
(514,23,o),
(498,57,cs),
(453,149,o),
(385,254,o),
(318,338,cs),
(317,339,o),
(317,341,o),
(318,342,cs),
(384,423,o),
(445,522,o),
(487,610,cs),
(502,642,o),
(482,677,o),
(453,677,cs),
(418,677,o),
(390,645,o),
(379,618,cs),
(348,541,o),
(316,471,o),
(258,397,cs),
(257,395,o),
(255,395,o),
(254,397,cs),
(196,471,o),
(164,533,o),
(133,608,cs),
(112,660,o),
(89,667,o),
(61,667,cs),
(29,667,o),
(19,644,o),
(35,610,cs),
(77,522,o),
(128,423,o),
(194,342,cs),
(195,341,o),
(195,339,o),
(194,338,cs),
(128,254,o),
(59,149,o),
(14,57,cs),
(-2,23,o),
(19,0,o),
(48,0,cs)
);
}
);
width = 521;
},
{
hints = (
{
horizontal = 1;
place = (0,21);
target = up;
type = BottomGhost;
},
{
place = (21,498);
type = Stem;
}
);
layerId = m002;
shapes = (
{
closed = 1;
nodes = (
(150,-25,o),
(201,-1,o),
(219,45,cs),
(242,100,o),
(267,155,o),
(298,187,cs),
(303,192,o),
(308,192,o),
(312,188,cs),
(346,156,o),
(375,111,o),
(393,55,cs),
(411,-1,o),
(463,-25,o),
(514,-25,cs),
(580,-25,o),
(625,36,o),
(593,104,cs),
(554,186,o),
(495,255,o),
(435,333,cs),
(431,338,o),
(431,342,o),
(435,347,cs),
(493,421,o),
(545,485,o),
(582,564,cs),
(613,629,o),
(569,702,o),
(503,702,cs),
(446,702,o),
(401,658,o),
(383,612,cs),
(362,558,o),
(350,533,o),
(312,488,cs),
(308,482,o),
(303,482,o),
(298,488,cs),
(262,531,o),
(250,551,o),
(229,602,cs),
(202,669,o),
(163,692,o),
(111,692,cs),
(45,692,o),
(6,635,o),
(40,564,cs),
(76,487,o),
(122,423,o),
(177,347,cs),
(181,342,o),
(181,338,o),
(177,333,cs),
(118,256,o),
(59,186,o),
(19,104,cs),
(-13,36,o),
(32,-25,o),
(101,-25,cs)
);
}
);
width = 612;
},
{
hints = (
{
horizontal = 1;
place = (0,21);
target = up;
type = BottomGhost;
},
{
place = (21,498);
type = Stem;
}
);
layerId = m003;
shapes = (
{
closed = 1;
nodes = (
(62,0,o),
(89,10,o),
(99,33,cs),
(133,117,o),
(177,217,o),
(240,298,cs),
(241,300,o),
(243,300,o),
(244,298,cs),
(306,205,o),
(349,127,o),
(383,43,cs),
(393,19,o),
(421,0,o),
(446,0,cs),
(474,0,o),
(487,15,o),
(474,43,cs),
(428,136,o),
(359,253,o),
(290,338,cs),
(289,339,o),
(289,341,o),
(290,342,cs),
(358,424,o),
(420,534,o),
(463,624,cs),
(476,652,o),
(461,677,o),
(438,677,cs),
(408,677,o),
(384,650,o),
(373,624,cs),
(341,544,o),
(307,460,o),
(243,381,cs),
(242,379,o),
(240,379,o),
(239,381,cs),
(176,460,o),
(141,535,o),
(109,614,cs),
(90,662,o),
(73,667,o),
(46,667,cs),
(21,667,o),
(15,654,o),
(29,624,cs),
(72,534,o),
(124,423,o),
(192,342,cs),
(193,341,o),
(193,339,o),
(192,338,cs),
(124,253,o),
(54,136,o),
(8,43,cs),
(-5,15,o),
(8,0,o),
(36,0,cs)
);
}
);
width = 499;
}
);
metricLeft = "=H/3";
metricRight = "=H/3";
note = X;
unicode = 88;
},
{
glyphname = Y;
kernLeft = Y;
kernRight = Y;
lastChange = "2024-03-31 16:10:45 +0000";
layers = (
{
anchors = (
{
name = bottom;
pos = (267,0);
},
{
name = top;
pos = (267,625);
},
{
name = topleft;
pos = (20,667);
}
);
hints = (
{
horizontal = 1;
place = (0,21);
target = up;
type = BottomGhost;
},
{
place = (217,100);
type = Stem;
}
);
layerId = m005;
shapes = (
{
closed = 1;
nodes = (
(293,0,o),
(325,18,o),
(321,49,cs),
(311,120,o),
(311,190,o),
(311,260,cs),
(311,265,o),
(312,268,o),
(315,273,cs),
(383,375,o),
(450,501,o),
(506,610,cs),
(523,643,o),
(506,677,o),
(472,677,cs),
(444,677,o),
(415,654,o),
(406,617,cs),
(382,518,o),
(323,428,o),
(263,336,cs),
(262,334,o),
(260,334,o),
(259,336,cs),
(199,428,o),
(159,530,o),
(126,627,cs),
(117,654,o),
(88,667,o),
(53,667,cs),
(23,667,o),
(11,644,o),
(26,610,cs),
(72,501,o),
(139,375,o),
(207,273,cs),
(210,268,o),
(211,265,o),
(211,260,cs),
(211,190,o),
(211,120,o),
(201,49,cs),
(197,18,o),
(229,0,o),
(262,0,cs)
);
}
);
width = 533;
},
{
anchors = (
{
name = bottom;
pos = (261,0);
},
{
name = top;
pos = (261,625);
},
{
name = topleft;
pos = (6,667);
}
);
hints = (
{
horizontal = 1;
place = (0,21);
target = up;
type = BottomGhost;
},
{
place = (217,100);
type = Stem;
}
);
layerId = m002;
shapes = (
{
closed = 1;
nodes = (
(324,-25,o),
(379,19,o),
(371,81,cs),
(363,140,o),
(361,177,o),
(361,235,cs),
(361,247,o),
(364,256,o),
(370,266,cs),
(437,364,o),
(508,460,o),
(550,562,cs),
(579,632,o),
(544,702,o),
(472,702,cs),
(421,702,o),
(378,661,o),
(357,604,cs),
(332,538,o),
(317,499,o),
(270,438,cs),
(266,432,o),
(260,432,o),
(256,438,cs),
(214,502,o),
(197,549,o),
(173,618,cs),
(158,664,o),
(111,692,o),
(60,692,cs),
(-12,692,o),
(-50,634,o),
(-20,565,cs),
(24,462,o),
(86,364,o),
(152,266,cs),
(158,256,o),
(161,247,o),
(161,235,cs),
(161,177,o),
(159,140,o),
(151,81,cs),
(143,19,o),
(198,-25,o),
(262,-25,cs)
);
}
);
width = 530;
},
{
anchors = (
{
name = bottom;
pos = (262,0);
},
{
name = top;
pos = (262,625);
},
{
name = topleft;
pos = (7,667);
}
);
hints = (
{
horizontal = 1;
place = (0,21);
target = up;
type = BottomGhost;
},
{
place = (217,100);
type = Stem;
}
);
layerId = m003;
shapes = (
{
closed = 1;
nodes = (
(291,0,o),
(315,13,o),
(312,38,cs),
(302,110,o),
(302,192,o),
(302,265,cs),
(302,269,o),
(303,271,o),
(305,274,cs),
(374,377,o),
(442,514,o),
(498,625,cs),
(513,653,o),
(501,677,o),
(473,677,cs),
(448,677,o),
(425,658,o),
(417,625,cs),
(391,519,o),
(327,414,o),
(264,318,cs),
(263,316,o),
(261,316,o),
(260,318,cs),
(195,415,o),
(152,532,o),
(118,634,cs),
(110,657,o),
(87,667,o),
(61,667,cs),
(30,667,o),
(23,654,o),
(36,624,cs),
(82,513,o),
(150,377,o),
(219,274,cs),
(221,271,o),
(222,269,o),
(222,265,cs),
(222,192,o),
(222,110,o),
(212,38,cs),
(209,13,o),
(233,0,o),
(263,0,cs)
);
}
);
width = 535;
}
);
metricLeft = "=V";
metricRight = "=V";
note = Y;
unicode = 89;
},
{
glyphname = Z;
lastChange = "2024-03-31 15:36:21 +0000";
layers = (
{
anchors = (
{
name = bottom;
pos = (244,0);
},
{
name = center;
pos = (244,334);
},
{
name = top;
pos = (244,625);
}
);
hints = (
{
horizontal = 1;
place = (0,85);
type = Stem;
},
{
horizontal = 1;
place = (587,80);
type = Stem;
},
{
place = (30,475);
type = Stem;
}
);
layerId = m005;
shapes = (
{
closed = 1;
nodes = (
(31,626,cs),
(31,601,o),
(55,574,o),
(80,577,cs),
(173,587,o),
(256,587,o),
(348,587,c),
(25,108,ls),
(12,88,o),
(6,70,o),
(6,46,cs),
(6,14,o),
(30,0,o),
(55,0,cs),
(186,0,o),
(306,0,o),
(437,-10,cs),
(462,-12,o),
(486,14,o),
(486,39,cs),
(486,86,o),
(452,102,o),
(427,100,cs),
(323,90,o),
(230,90,o),
(126,90,c),
(471,607,ls),
(485,628,o),
(484,667,o),
(449,667,cs),
(70,667,ls),
(45,667,o),
(31,653,o)
);
}
);
width = 499;
},
{
anchors = (
{
name = bottom;
pos = (294,0);
},
{
name = center;
pos = (294,334);
},
{
name = top;
pos = (294,625);
}
);
hints = (
{
horizontal = 1;
place = (0,85);
type = Stem;
},
{
horizontal = 1;
place = (587,80);
type = Stem;
},
{
place = (30,475);
type = Stem;
}
);
layerId = m002;
shapes = (
{
closed = 1;
nodes = (
(31,576,cs),
(31,521,o),
(81,471,o),
(136,477,cs),
(194,484,o),
(248,486,o),
(304,487,c),
(53,196,ls),
(30,169,o),
(6,130,o),
(6,96,cs),
(6,36,o),
(52,0,o),
(105,0,cs),
(236,0,o),
(354,0,o),
(483,-10,cs),
(538,-14,o),
(586,36,o),
(586,89,cs),
(586,165,o),
(527,204,o),
(473,200,cs),
(402,193,o),
(337,191,o),
(270,190,c),
(563,529,ls),
(610,583,o),
(574,667,o),
(499,667,cs),
(120,667,ls),
(67,667,o),
(31,631,o)
);
}
);
width = 592;
},
{
anchors = (
{
name = bottom;
pos = (231,0);
},
{
name = center;
pos = (231,334);
},
{
name = top;
pos = (231,625);
}
);
hints = (
{
horizontal = 1;
place = (0,85);
type = Stem;
},
{
horizontal = 1;
place = (587,80);
type = Stem;
},
{
place = (30,475);
type = Stem;
}
);
layerId = m003;
shapes = (
{
closed = 1;
nodes = (
(28,636,cs),
(28,615,o),
(46,595,o),
(66,597,cs),
(166,608,o),
(253,607,o),
(354,607,c),
(20,92,ls),
(8,74,o),
(3,58,o),
(3,36,cs),
(3,10,o),
(20,0,o),
(42,0,cs),
(173,0,o),
(293,0,o),
(425,-10,cs),
(445,-12,o),
(463,8,o),
(463,31,cs),
(463,70,o),
(437,82,o),
(415,80,cs),
(304,69,o),
(206,70,o),
(94,70,c),
(450,623,ls),
(461,641,o),
(461,667,o),
(436,667,cs),
(57,667,ls),
(36,667,o),
(28,659,o)
);
}
);
width = 478;
}
);
metricLeft = "=H/4";
metricRight = "=H/4";
note = Z;
unicode = 90;
},
{
glyphname = a;
lastChange = "2024-02-18 17:07:54 +0000";
layers = (
{
anchors = (
{
name = bottom;
pos = (258,0);
},
{
name = ogonek;
pos = (464,10);
},
{
name = top;
pos = (258,500);
}
);
hints = (
{
horizontal = 1;
place = (0,21);
target = up;
type = BottomGhost;
},
{
horizontal = 1;
place = (435,75);
type = Stem;
},
{
place = (40,100);
type = Stem;
},
{
place = (330,95);
type = Stem;
},
{
horizontal = 1;
place = (-10,80);
type = Stem;
}
);
layerId = m005;
shapes = (
{
closed = 1;
nodes = (
(289,-10,o),
(335,55,o),
(350,55,cs),
(359,55,o),
(364,46,o),
(367,32,cs),
(372,11,o),
(382,0,o),
(406,0,cs),
(428,0,o),
(452,12,o),
(450,34,cs),
(440,124,o),
(440,297,o),
(450,429,cs),
(452,457,o),
(428,475,o),
(402,485,cs),
(363,499,o),
(319,510,o),
(255,510,cs),
(95,510,o),
(50,355,o),
(50,250,cs),
(50,225,ls),
(50,75,o),
(93,-10,o),
(200,-10,cs)
);
},
{
closed = 1;
nodes = (
(169,75,o),
(150,124,o),
(150,225,cs),
(150,250,ls),
(150,323,o),
(163,435,o),
(255,435,cs),
(291,435,o),
(325,430,o),
(341,427,cs),
(347,426,o),
(350,422,o),
(349,416,cs),
(345,344,o),
(340,272,o),
(340,200,cs),
(340,132,o),
(282,75,o),
(225,75,cs)
);
}
);
width = 515;
},
{
anchors = (
{
name = bottom;
pos = (263,0);
},
{
name = ogonek;
pos = (473,10);
},
{
name = top;
pos = (263,500);
}
);
hints = (
{
horizontal = 1;
place = (0,21);
target = up;
type = BottomGhost;
},
{
horizontal = 1;
place = (435,75);
type = Stem;
},
{
place = (40,100);
type = Stem;
},
{
place = (330,95);
type = Stem;
},
{
horizontal = 1;
place = (-10,80);
type = Stem;
}
);
layerId = m002;
shapes = (
{
closed = 1;
nodes = (
(327,-25,o),
(371,40,o),
(360,40,cs),
(360,40,o),
(371,26,o),
(382,8,cs),
(391,-6,o),
(404,-15,o),
(416,-15,cs),
(468,-15,o),
(515,21,o),
(510,74,cs),
(500,162,o),
(500,260,o),
(510,390,cs),
(514,442,o),
(476,479,o),
(429,497,cs),
(388,512,o),
(336,525,o),
(265,525,cs),
(64,525,o),
(10,367,o),
(10,250,cs),
(10,225,ls),
(10,57,o),
(66,-25,o),
(210,-25,cs)
);
},
{
closed = 1;
nodes = (
(205,160,o),
(210,186,o),
(210,225,cs),
(210,250,ls),
(210,281,o),
(218,350,o),
(265,350,cs),
(272,350,o),
(279,350,o),
(286,349,cs),
(300,349,o),
(306,330,o),
(304,298,cs),
(302,254,o),
(300,244,o),
(300,200,cs),
(300,176,o),
(261,160,o),
(235,160,cs)
);
}
);
width = 525;
},
{
anchors = (
{
name = bottom;
pos = (258,0);
},
{
name = ogonek;
pos = (464,10);
},
{
name = top;
pos = (258,500);
}
);
hints = (
{
horizontal = 1;
place = (0,21);
target = up;
type = BottomGhost;
},
{
horizontal = 1;
place = (435,75);
type = Stem;
},
{
place = (40,100);
type = Stem;
},
{
place = (330,95);
type = Stem;
},
{
horizontal = 1;
place = (-10,80);
type = Stem;
}
);
layerId = m003;
shapes = (
{
closed = 1;
nodes = (
(288,-7,o),
(326,58,o),
(350,58,cs),
(364,58,o),
(373,47,o),
(377,27,cs),
(381,9,o),
(386,3,o),
(406,3,cs),
(426,3,o),
(441,11,o),
(440,26,cs),
(430,116,o),
(430,304,o),
(440,437,cs),
(442,459,o),
(423,473,o),
(399,483,cs),
(360,496,o),
(318,507,o),
(255,507,cs),
(103,507,o),
(60,354,o),
(60,250,cs),
(60,225,ls),
(60,77,o),
(99,-7,o),
(200,-7,cs)
);
},
{
closed = 1;
nodes = (
(161,58,o),
(140,121,o),
(140,225,cs),
(140,250,ls),
(140,324,o),
(153,452,o),
(255,452,cs),
(292,452,o),
(327,447,o),
(343,444,cs),
(354,442,o),
(361,433,o),
(359,422,c),
(355,350,o),
(350,271,o),
(350,200,cs),
(350,127,o),
(288,58,o),
(225,58,cs)
);
}
);
width = 515;
}
);
metricLeft = "=o";
metricRight = "=|n";
note = d;
unicode = 97;
},
{
export = 0;
glyphname = ae;
lastChange = "2024-02-03 22:32:44 +0000";
layers = (
{
hints = (
{
horizontal = 1;
place = (-10,75);
type = Stem;
},
{
horizontal = 1;
place = (215,65);
type = Stem;
},
{
horizontal = 1;
place = (440,70);
type = Stem;
},
{
place = (30,90);
type = Stem;
},
{
place = (300,95);
type = Stem;
},
{
place = (580,100);
type = Stem;
},
{
horizontal = 1;
place = (250,60);
type = Stem;
},
{
horizontal = 1;
place = (-10,80);
type = Stem;
}
);
layerId = m005;
shapes = (
{
closed = 1;
nodes = (
(244,-10,o),
(370,59,o),
(370,249,c),
(370,275,ls),
(370,404,o),
(380,510,o),
(230,510,cs),
(145,510,o),
(78,475,o),
(78,475,c),
(85,453,o),
(93,427,o),
(100,405,c),
(100,405,o),
(145,435,o),
(215,435,cs),
(295,435,o),
(295,405,o),
(295,310,c),
(159,310,o),
(25,282,o),
(25,155,cs),
(25,59,o),
(40,-10,o),
(150,-10,cs)
);
},
{
closed = 1;
nodes = (
(130,65,o),
(115,99,o),
(115,155,cs),
(115,238,o),
(223,249,o),
(295,250,c),
(295,200,ls),
(295,132,o),
(237,65,o),
(180,65,cs)
);
},
{
closed = 1;
nodes = (
(585,-10,o),
(652,25,o),
(652,25,c),
(645,48,o),
(637,72,o),
(630,95,c),
(630,95,o),
(585,65,o),
(500,65,cs),
(410,65,o),
(395,127,o),
(395,218,c),
(680,218,l),
(680,300,ls),
(680,405,o),
(646,510,o),
(500,510,cs),
(340,510,o),
(320,405,o),
(320,300,cs),
(320,200,ls),
(320,95,o),
(340,-10,o),
(500,-10,cs)
);
},
{
closed = 1;
nodes = (
(395,300,ls),
(395,373,o),
(410,440,o),
(500,440,cs),
(569,440,o),
(580,373,o),
(580,300,cs),
(580,288,l),
(395,288,l)
);
}
);
width = 730;
},
{
hints = (
{
horizontal = 1;
place = (-10,75);
type = Stem;
},
{
horizontal = 1;
place = (215,65);
type = Stem;
},
{
horizontal = 1;
place = (440,70);
type = Stem;
},
{
place = (30,90);
type = Stem;
},
{
place = (300,95);
type = Stem;
},
{
place = (580,100);
type = Stem;
},
{
horizontal = 1;
place = (250,60);
type = Stem;
},
{
horizontal = 1;
place = (-10,80);
type = Stem;
}
);
layerId = m002;
shapes = (
{
closed = 1;
nodes = (
(244,-10,o),
(370,59,o),
(370,249,c),
(370,275,ls),
(370,404,o),
(380,510,o),
(230,510,cs),
(145,510,o),
(78,475,o),
(78,475,c),
(85,453,o),
(93,427,o),
(100,405,c),
(100,405,o),
(145,435,o),
(215,435,cs),
(295,435,o),
(295,405,o),
(295,310,c),
(159,310,o),
(25,282,o),
(25,155,cs),
(25,59,o),
(40,-10,o),
(150,-10,cs)
);
},
{
closed = 1;
nodes = (
(130,65,o),
(115,99,o),
(115,155,cs),
(115,238,o),
(223,249,o),
(295,250,c),
(295,200,ls),
(295,132,o),
(237,65,o),
(180,65,cs)
);
},
{
closed = 1;
nodes = (
(585,-10,o),
(652,25,o),
(652,25,c),
(645,48,o),
(637,72,o),
(630,95,c),
(630,95,o),
(585,65,o),
(500,65,cs),
(410,65,o),
(395,127,o),
(395,218,c),
(680,218,l),
(680,300,ls),
(680,405,o),
(646,510,o),
(500,510,cs),
(340,510,o),
(320,405,o),
(320,300,cs),
(320,200,ls),
(320,95,o),
(340,-10,o),
(500,-10,cs)
);
},
{
closed = 1;
nodes = (
(395,300,ls),
(395,373,o),
(410,440,o),
(500,440,cs),
(569,440,o),
(580,373,o),
(580,300,cs),
(580,288,l),
(395,288,l)
);
}
);
width = 730;
},
{
hints = (
{
horizontal = 1;
place = (-10,75);
type = Stem;
},
{
horizontal = 1;
place = (215,65);
type = Stem;
},
{
horizontal = 1;
place = (440,70);
type = Stem;
},
{
place = (30,90);
type = Stem;
},
{
place = (300,95);
type = Stem;
},
{
place = (580,100);
type = Stem;
},
{
horizontal = 1;
place = (250,60);
type = Stem;
},
{
horizontal = 1;
place = (-10,80);
type = Stem;
}
);
layerId = m003;
shapes = (
{
closed = 1;
nodes = (
(244,-10,o),
(370,59,o),
(370,249,c),
(370,275,ls),
(370,404,o),
(380,510,o),
(230,510,cs),
(145,510,o),
(78,475,o),
(78,475,c),
(85,453,o),
(93,427,o),
(100,405,c),
(100,405,o),
(145,435,o),
(215,435,cs),
(295,435,o),
(295,405,o),
(295,310,c),
(159,310,o),
(25,282,o),
(25,155,cs),
(25,59,o),
(40,-10,o),
(150,-10,cs)
);
},
{
closed = 1;
nodes = (
(130,65,o),
(115,99,o),
(115,155,cs),
(115,238,o),
(223,249,o),
(295,250,c),
(295,200,ls),
(295,132,o),
(237,65,o),
(180,65,cs)
);
},
{
closed = 1;
nodes = (
(585,-10,o),
(652,25,o),
(652,25,c),
(645,48,o),
(637,72,o),
(630,95,c),
(630,95,o),
(585,65,o),
(500,65,cs),
(410,65,o),
(395,127,o),
(395,218,c),
(680,218,l),
(680,300,ls),
(680,405,o),
(646,510,o),
(500,510,cs),
(340,510,o),
(320,405,o),
(320,300,cs),
(320,200,ls),
(320,95,o),
(340,-10,o),
(500,-10,cs)
);
},
{
closed = 1;
nodes = (
(395,300,ls),
(395,373,o),
(410,440,o),
(500,440,cs),
(569,440,o),
(580,373,o),
(580,300,cs),
(580,288,l),
(395,288,l)
);
}
);
width = 730;
}
);
metricLeft = "=a";
metricRight = "=e";
note = ae;
unicode = 230;
},
{
glyphname = b;
kernRight = o;
lastChange = "2024-03-31 16:08:43 +0000";
layers = (
{
hints = (
{
horizontal = 1;
place = (-10,70);
type = Stem;
},
{
horizontal = 1;
place = (430,80);
type = Stem;
},
{
place = (60,95);
type = Stem;
},
{
place = (345,100);
type = Stem;
},
{
horizontal = 1;
place = (0,21);
target = up;
type = BottomGhost;
}
);
layerId = m005;
shapes = (
{
closed = 1;
nodes = (
(420,-10,o),
(465,145,o),
(465,250,cs),
(465,275,ls),
(465,425,o),
(422,510,o),
(315,510,cs),
(226,510,o),
(194,461,o),
(185,461,cs),
(176,461,o),
(175,469,o),
(175,500,cs),
(175,550,o),
(180,611,o),
(185,661,cs),
(188,692,o),
(157,710,o),
(126,710,cs),
(93,710,o),
(75,692,o),
(75,661,cs),
(75,460,o),
(75,249,o),
(65,48,cs),
(63,17,o),
(92,0,o),
(123,-2,cs),
(161,-5,o),
(198,-10,o),
(260,-10,cs)
);
},
{
closed = 1;
nodes = (
(229,80,o),
(200,83,o),
(181,88,cs),
(177,89,o),
(175,93,o),
(175,99,cs),
(175,300,ls),
(175,368,o),
(233,435,o),
(290,435,cs),
(346,435,o),
(365,376,o),
(365,275,cs),
(365,250,ls),
(365,177,o),
(352,80,o),
(260,80,cs)
);
}
);
width = 515;
},
{
hints = (
{
horizontal = 1;
place = (-10,70);
type = Stem;
},
{
horizontal = 1;
place = (430,80);
type = Stem;
},
{
place = (60,95);
type = Stem;
},
{
place = (345,100);
type = Stem;
},
{
horizontal = 1;
place = (0,21);
target = up;
type = BottomGhost;
}
);
layerId = m002;
shapes = (
{
closed = 1;
nodes = (
(461,-25,o),
(515,168,o),
(515,250,cs),
(515,275,ls),
(515,443,o),
(459,525,o),
(325,525,cs),
(295,525,o),
(260,513,o),
(243,506,cs),
(235,503,o),
(225,502,o),
(225,514,cs),
(225,542,o),
(230,571,o),
(235,621,cs),
(241,682,o),
(187,725,o),
(126,725,cs),
(65,725,o),
(25,685,o),
(25,626,cs),
(25,425,o),
(25,285,o),
(15,86,cs),
(12,32,o),
(54,-13,o),
(119,-17,cs),
(156,-20,o),
(195,-25,o),
(260,-25,cs)
);
},
{
closed = 1;
nodes = (
(253,165,o),
(245,164,o),
(237,171,cs),
(230,177,o),
(225,184,o),
(225,204,cs),
(225,265,ls),
(225,314,o),
(256,350,o),
(290,350,cs),
(310,350,o),
(315,329,o),
(315,275,cs),
(315,250,ls),
(315,215,o),
(308,165,o),
(260,165,cs)
);
}
);
width = 525;
},
{
hints = (
{
horizontal = 1;
place = (-10,70);
type = Stem;
},
{
horizontal = 1;
place = (430,80);
type = Stem;
},
{
place = (60,95);
type = Stem;
},
{
place = (345,100);
type = Stem;
},
{
horizontal = 1;
place = (0,21);
target = up;
type = BottomGhost;
}
);
layerId = m003;
shapes = (
{
closed = 1;
nodes = (
(412,-7,o),
(455,146,o),
(455,250,cs),
(455,275,ls),
(455,430,o),
(416,507,o),
(315,507,cs),
(232,507,o),
(199,458,o),
(185,458,cs),
(169,458,o),
(165,468,o),
(165,507,cs),
(165,557,o),
(170,619,o),
(175,669,cs),
(177,694,o),
(154,707,o),
(126,707,cs),
(97,707,o),
(85,695,o),
(85,668,cs),
(85,467,o),
(85,242,o),
(75,40,cs),
(73,16,o),
(95,3,o),
(124,1,cs),
(162,-2,o),
(199,-7,o),
(260,-7,cs)
);
},
{
closed = 1;
nodes = (
(228,63,o),
(198,66,o),
(179,71,cs),
(170,73,o),
(165,81,o),
(165,92,cs),
(165,307,ls),
(165,379,o),
(226,452,o),
(290,452,cs),
(354,452,o),
(375,386,o),
(375,275,cs),
(375,250,ls),
(375,176,o),
(361,63,o),
(260,63,cs)
);
}
);
width = 515;
}
);
metricLeft = "=n";
metricRight = "=o";
note = b;
unicode = 98;
},
{
glyphname = c;
lastChange = "2024-03-31 16:07:46 +0000";
layers = (
{
anchors = (
{
name = bottom;
pos = (255,0);
},
{
name = top;
pos = (255,500);
}
);
hints = (
{
horizontal = 1;
place = (-10,80);
type = Stem;
},
{
horizontal = 1;
place = (435,75);
type = Stem;
},
{
place = (40,100);
type = Stem;
}
);
layerId = m005;
shapes = (
{
closed = 1;
nodes = (
(302,-10,o),
(350,5,o),
(374,16,cs),
(383,20,o),
(398,33,o),
(391,60,cs),
(383,83,o),
(359,107,o),
(336,99,cs),
(317,92,o),
(289,65,o),
(255,65,cs),
(165,65,o),
(150,157,o),
(150,225,cs),
(150,250,ls),
(150,318,o),
(165,435,o),
(255,435,cs),
(274,435,o),
(290,432,o),
(304,426,cs),
(323,418,o),
(337,416,o),
(352,430,cs),
(364,441,ls),
(382,458,o),
(383,479,o),
(360,490,cs),
(333,503,o),
(298,510,o),
(255,510,cs),
(95,510,o),
(50,355,o),
(50,250,cs),
(50,225,ls),
(50,120,o),
(95,-10,o),
(255,-10,cs)
);
}
);
width = 406;
},
{
anchors = (
{
name = bottom;
pos = (265,0);
},
{
name = top;
pos = (265,500);
}
);
hints = (
{
horizontal = 1;
place = (-10,80);
type = Stem;
},
{
horizontal = 1;
place = (435,75);
type = Stem;
},
{
place = (40,100);
type = Stem;
}
);
layerId = m002;
shapes = (
{
closed = 1;
nodes = (
(321,-25,o),
(377,-7,o),
(405,5,cs),
(436,19,o),
(463,58,o),
(449,110,cs),
(432,160,o),
(380,199,o),
(329,181,cs),
(308,173,o),
(280,150,o),
(265,150,cs),
(218,150,o),
(210,196,o),
(210,225,cs),
(210,250,ls),
(210,315,o),
(219,350,o),
(265,350,cs),
(279,350,o),
(285,349,o),
(294,345,cs),
(335,328,o),
(369,333,o),
(396,358,cs),
(408,369,ls),
(454,411,o),
(446,474,o),
(392,500,cs),
(358,516,o),
(314,525,o),
(265,525,cs),
(64,525,o),
(10,367,o),
(10,250,cs),
(10,225,ls),
(10,108,o),
(65,-25,o),
(265,-25,cs)
);
}
);
width = 456;
},
{
anchors = (
{
name = bottom;
pos = (255,0);
},
{
name = top;
pos = (255,500);
}
);
hints = (
{
horizontal = 1;
place = (-10,80);
type = Stem;
},
{
horizontal = 1;
place = (435,75);
type = Stem;
},
{
place = (40,100);
type = Stem;
}
);
layerId = m003;
shapes = (
{
closed = 1;
nodes = (
(300,-7,o),
(346,7,o),
(370,18,cs),
(378,22,o),
(387,29,o),
(381,50,cs),
(374,71,o),
(356,88,o),
(339,83,cs),
(322,76,o),
(293,48,o),
(255,48,cs),
(156,48,o),
(140,156,o),
(140,225,cs),
(140,250,ls),
(140,319,o),
(156,452,o),
(255,452,cs),
(275,452,o),
(293,449,o),
(308,442,cs),
(326,435,o),
(334,434,o),
(345,444,cs),
(357,455,ls),
(373,469,o),
(373,480,o),
(356,488,cs),
(330,500,o),
(297,507,o),
(255,507,cs),
(103,507,o),
(60,354,o),
(60,250,cs),
(60,225,ls),
(60,122,o),
(102,-7,o),
(255,-7,cs)
);
}
);
width = 398;
}
);
metricLeft = "=o";
metricRight = "=o/4";
note = c;
unicode = 99;
},
{
glyphname = d;
kernLeft = o;
lastChange = "2024-03-31 16:07:34 +0000";
layers = (
{
hints = (
{
horizontal = 1;
place = (0,21);
target = up;
type = BottomGhost;
},
{
horizontal = 1;
place = (435,75);
type = Stem;
},
{
place = (40,100);
type = Stem;
},
{
place = (330,95);
type = Stem;
},
{
horizontal = 1;
place = (-10,80);
type = Stem;
}
);
layerId = m005;
shapes = (
{
closed = 1;
nodes = (
(289,-10,o),
(335,55,o),
(350,55,cs),
(359,55,o),
(364,46,o),
(367,32,cs),
(372,11,o),
(382,-5,o),
(419,-5,cs),
(454,-5,o),
(468,23,o),
(460,44,cs),
(430,124,o),
(430,310,o),
(450,661,cs),
(452,692,o),
(422,710,o),
(389,710,cs),
(358,710,o),
(340,692,o),
(340,661,cs),
(340,511,ls),
(340,504,o),
(336,501,o),
(329,503,cs),
(315,506,o),
(288,510,o),
(255,510,cs),
(95,510,o),
(50,355,o),
(50,250,cs),
(50,225,ls),
(50,75,o),
(93,-10,o),
(200,-10,cs)
);
},
{
closed = 1;
nodes = (
(169,75,o),
(150,124,o),
(150,225,cs),
(150,250,ls),
(150,323,o),
(163,435,o),
(255,435,cs),
(290,435,o),
(318,430,o),
(331,427,cs),
(337,426,o),
(340,422,o),
(340,416,cs),
(340,200,ls),
(340,132,o),
(282,75,o),
(225,75,cs)
);
}
);
width = 527;
},
{
hints = (
{
horizontal = 1;
place = (0,21);
target = up;
type = BottomGhost;
},
{
horizontal = 1;
place = (435,75);
type = Stem;
},
{
place = (40,100);
type = Stem;
},
{
place = (330,95);
type = Stem;
},
{
horizontal = 1;
place = (-10,80);
type = Stem;
}
);
layerId = m002;
shapes = (
{
closed = 1;
nodes = (
(277,-25,o),
(318,-2,o),
(335,12,cs),
(346,21,o),
(363,21,o),
(369,5,cs),
(374,-9,o),
(385,-20,o),
(429,-20,cs),
(499,-20,o),
(531,20,o),
(517,62,cs),
(497,121,o),
(490,274,o),
(510,623,cs),
(514,684,o),
(460,725,o),
(399,725,cs),
(340,725,o),
(300,685,o),
(300,626,cs),
(300,549,ls),
(300,533,o),
(291,524,o),
(274,525,cs),
(271,525,o),
(268,525,o),
(265,525,cs),
(64,525,o),
(10,367,o),
(10,250,cs),
(10,225,ls),
(10,57,o),
(66,-25,o),
(210,-25,cs)
);
},
{
closed = 1;
nodes = (
(213,160,o),
(210,168,o),
(210,225,cs),
(210,250,ls),
(210,320,o),
(218,360,o),
(265,360,cs),
(271,360,o),
(277,360,o),
(283,359,cs),
(294,359,o),
(300,349,o),
(300,334,cs),
(300,235,ls),
(300,188,o),
(272,160,o),
(235,160,cs)
);
}
);
width = 535;
},
{
hints = (
{
horizontal = 1;
place = (0,21);
target = up;
type = BottomGhost;
},
{
horizontal = 1;
place = (435,75);
type = Stem;
},
{
place = (40,100);
type = Stem;
},
{
place = (330,95);
type = Stem;
},
{
horizontal = 1;
place = (-10,80);
type = Stem;
}
);
layerId = m003;
shapes = (
{
closed = 1;
nodes = (
(288,-7,o),
(326,58,o),
(350,58,cs),
(364,58,o),
(373,47,o),
(377,27,cs),
(381,8,o),
(388,-2,o),
(419,-2,cs),
(448,-2,o),
(457,17,o),
(451,33,cs),
(420,115,o),
(420,317,o),
(440,669,cs),
(442,694,o),
(419,707,o),
(391,707,cs),
(362,707,o),
(350,695,o),
(350,668,cs),
(350,502,ls),
(350,497,o),
(347,494,o),
(342,496,cs),
(325,501,o),
(293,507,o),
(255,507,cs),
(103,507,o),
(60,354,o),
(60,250,cs),
(60,225,ls),
(60,77,o),
(99,-7,o),
(200,-7,cs)
);
},
{
closed = 1;
nodes = (
(161,58,o),
(140,121,o),
(140,225,cs),
(140,250,ls),
(140,324,o),
(153,452,o),
(255,452,cs),
(293,452,o),
(326,446,o),
(344,441,cs),
(348,440,o),
(350,437,o),
(350,433,cs),
(350,200,ls),
(350,127,o),
(288,58,o),
(225,58,cs)
);
}
);
width = 528;
}
);
metricLeft = "=o";
metricRight = "=|n";
note = d;
unicode = 100;
},
{
glyphname = e;
kernLeft = o;
kernRight = o;
lastChange = "2024-02-18 15:52:56 +0000";
layers = (
{
anchors = (
{
name = bottom;
pos = (255,0);
},
{
name = top;
pos = (255,500);
}
);
hints = (
{
horizontal = 1;
place = (-10,75);
type = Stem;
},
{
horizontal = 1;
place = (215,65);
type = Stem;
},
{
horizontal = 1;
place = (440,70);
type = Stem;
},
{
place = (40,100);
type = Stem;
},
{
place = (325,100);
type = Stem;
}
);
layerId = m005;
shapes = (
{
closed = 1;
nodes = (
(317,-10,o),
(371,9,o),
(394,19,cs),
(400,22,o),
(414,30,o),
(406,61,cs),
(401,83,o),
(374,108,o),
(352,100,cs),
(331,93,o),
(298,65,o),
(255,65,cs),
(168,65,o),
(142,122,o),
(140,208,cs),
(140,214,o),
(143,218,o),
(150,218,cs),
(248,218,o),
(433,223,o),
(433,352,cs),
(433,405,o),
(401,510,o),
(255,510,cs),
(95,510,o),
(50,355,o),
(50,250,cs),
(50,225,ls),
(50,120,o),
(95,-10,o),
(255,-10,cs)
);
},
{
closed = 1;
nodes = (
(144,288,o),
(140,292,o),
(140,298,cs),
(142,378,o),
(169,440,o),
(255,440,cs),
(309,440,o),
(331,398,o),
(333,350,cs),
(334,307,o),
(290,289,o),
(151,288,cs)
);
}
);
width = 483;
},
{
anchors = (
{
name = bottom;
pos = (265,0);
},
{
name = top;
pos = (265,500);
}
);
hints = (
{
horizontal = 1;
place = (-10,75);
type = Stem;
},
{
horizontal = 1;
place = (215,65);
type = Stem;
},
{
horizontal = 1;
place = (440,70);
type = Stem;
},
{
place = (40,100);
type = Stem;
},
{
place = (325,100);
type = Stem;
}
);
layerId = m002;
shapes = (
{
closed = 1;
nodes = (
(337,-25,o),
(400,-2,o),
(425,9,cs),
(453,22,o),
(478,54,o),
(465,108,cs),
(453,158,o),
(397,200,o),
(346,182,cs),
(321,174,o),
(292,150,o),
(265,150,cs),
(238,150,o),
(220,158,o),
(220,171,cs),
(220,189,o),
(228,203,o),
(266,207,cs),
(373,218,o),
(495,221,o),
(495,352,cs),
(495,417,o),
(451,525,o),
(265,525,cs),
(64,525,o),
(10,367,o),
(10,250,cs),
(10,225,ls),
(10,143,o),
(65,-25,o),
(265,-25,cs)
);
},
{
closed = 1;
nodes = (
(241,338,o),
(221,344,o),
(221,369,cs),
(221,382,o),
(245,390,o),
(265,390,cs),
(289,390,o),
(293,385,o),
(293,368,cs),
(293,353,o),
(291,341,o),
(256,339,cs)
);
}
);
width = 505;
},
{
anchors = (
{
name = bottom;
pos = (255,0);
},
{
name = top;
pos = (255,500);
}
);
hints = (
{
horizontal = 1;
place = (-10,75);
type = Stem;
},
{
horizontal = 1;
place = (215,65);
type = Stem;
},
{
horizontal = 1;
place = (440,70);
type = Stem;
},
{
place = (40,100);
type = Stem;
},
{
place = (325,100);
type = Stem;
}
);
layerId = m003;
shapes = (
{
closed = 1;
nodes = (
(315,-7,o),
(367,11,o),
(390,21,c),
(395,24,o),
(402,28,o),
(396,52,cs),
(392,71,o),
(372,90,o),
(355,84,cs),
(336,77,o),
(302,48,o),
(255,48,cs),
(161,48,o),
(132,119,o),
(130,208,cs),
(130,220,o),
(137,228,o),
(150,228,cs),
(248,228,o),
(423,233,o),
(423,352,cs),
(423,404,o),
(394,507,o),
(255,507,cs),
(103,507,o),
(60,354,o),
(60,250,cs),
(60,225,ls),
(60,122,o),
(102,-7,o),
(255,-7,cs)
);
},
{
closed = 1;
nodes = (
(138,278,o),
(130,286,o),
(130,298,cs),
(132,381,o),
(161,457,o),
(255,457,cs),
(316,457,o),
(341,402,o),
(343,350,cs),
(344,299,o),
(295,279,o),
(151,278,cs)
);
}
);
width = 483;
}
);
metricLeft = "=o";
metricRight = "=o";
note = e;
unicode = 101;
},
{
glyphname = f;
lastChange = "2024-03-31 16:06:03 +0000";
layers = (
{
hints = (
{
horizontal = 1;
place = (0,21);
target = up;
type = BottomGhost;
},
{
horizontal = 1;
place = (435,65);
type = Stem;
},
{
horizontal = 1;
place = (640,61);
type = Stem;
},
{
place = (80,95.5);
type = Stem;
}
);
layerId = m005;
shapes = (
{
closed = 1;
nodes = (
(131,-10,cs),
(162,-10,o),
(192,8,o),
(190,39,cs),
(180,163,o),
(180,296,o),
(180,420,cs),
(180,426,o),
(184,430,o),
(190,430,cs),
(212,429,o),
(234,425,o),
(256,425,cs),
(278,425,o),
(290,442,o),
(290,464,cs),
(290,488,o),
(278,505,o),
(256,505,cs),
(234,505,o),
(212,501,o),
(190,500,cs),
(184,500,o),
(180,504,o),
(180,511,cs),
(180,598,o),
(178,640,o),
(230,640,cs),
(251,640,o),
(251,629,o),
(261,627,cs),
(280,622,o),
(304,638,o),
(311,659,cs),
(318,679,o),
(301,695,o),
(281,701,cs),
(260,707,o),
(236,710,o),
(210,710,cs),
(84,710,o),
(80,616,o),
(80,510,cs),
(80,504,o),
(76,500,o),
(70,500,cs),
(32,500,o),
(20,488,o),
(20,464,cs),
(20,442,o),
(37,430,o),
(70,430,cs),
(76,430,o),
(80,427,o),
(80,420,cs),
(80,296,o),
(80,163,o),
(70,39,cs),
(68,8,o),
(98,-10,o)
);
}
);
width = 290;
},
{
hints = (
{
horizontal = 1;
place = (0,21);
target = up;
type = BottomGhost;
},
{
horizontal = 1;
place = (435,65);
type = Stem;
},
{
horizontal = 1;
place = (640,61);
type = Stem;
},
{
place = (80,95.5);
type = Stem;
}
);
layerId = m002;
shapes = (
{
closed = 1;
nodes = (
(161,-25,cs),
(220,-25,o),
(274,16,o),
(270,78,cs),
(260,200,o),
(260,191,o),
(260,315,cs),
(260,327,o),
(261,342,o),
(269,341,cs),
(278,340,o),
(278,340,o),
(286,340,cs),
(336,340,o),
(370,379,o),
(370,429,cs),
(370,481,o),
(335,514,o),
(286,514,cs),
(286,514,o),
(276,514,o),
(269,515,cs),
(265,516,o),
(260,519,o),
(260,526,cs),
(260,528,o),
(260,531,o),
(260,531,cs),
(260,536,o),
(266,543,o),
(280,543,cs),
(325,543,o),
(373,563,o),
(388,608,cs),
(405,655,o),
(373,700,o),
(325,714,cs),
(300,721,o),
(269,725,o),
(240,725,cs),
(66,725,o),
(60,582,o),
(60,545,cs),
(60,533,o),
(60,520,o),
(50,515,cs),
(34,507,o),
(0,479,o),
(0,429,cs),
(0,381,o),
(38,350,o),
(50,345,cs),
(59,341,o),
(60,324,o),
(60,315,cs),
(60,191,o),
(60,200,o),
(50,78,cs),
(46,16,o),
(100,-25,o)
);
}
);
width = 343;
},
{
hints = (
{
horizontal = 1;
place = (0,21);
target = up;
type = BottomGhost;
},
{
horizontal = 1;
place = (435,65);
type = Stem;
},
{
horizontal = 1;
place = (640,61);
type = Stem;
},
{
place = (80,95.5);
type = Stem;
}
);
layerId = m003;
shapes = (
{
closed = 1;
nodes = (
(131,-7,cs),
(159,-7,o),
(182,6,o),
(180,31,cs),
(170,156,o),
(170,308,o),
(170,432,cs),
(170,444,o),
(178,452,o),
(190,452,cs),
(213,451,o),
(235,447,o),
(256,447,cs),
(273,447,o),
(280,457,o),
(280,476,cs),
(280,497,o),
(273,507,o),
(256,507,cs),
(235,507,o),
(213,503,o),
(190,502,cs),
(178,502,o),
(170,510,o),
(170,523,cs),
(170,610,o),
(168,657,o),
(230,657,cs),
(253,657,o),
(259,645,o),
(263,644,cs),
(278,640,o),
(296,651,o),
(302,669,cs),
(306,683,o),
(296,693,o),
(278,698,cs),
(258,704,o),
(235,707,o),
(210,707,cs),
(94,707,o),
(90,628,o),
(90,522,cs),
(90,510,o),
(82,502,o),
(70,502,cs),
(36,502,o),
(30,496,o),
(30,476,cs),
(30,459,o),
(40,452,o),
(70,452,cs),
(82,452,o),
(90,445,o),
(90,432,cs),
(90,308,o),
(90,156,o),
(80,31,cs),
(78,6,o),
(101,-7,o)
);
}
);
width = 290;
}
);
note = f;
unicode = 102;
},
{
glyphname = g;
kernLeft = o;
lastChange = "2024-03-31 21:36:23 +0000";
layers = (
{
hints = (
{
horizontal = 1;
place = (-10,80);
type = Stem;
},
{
horizontal = 1;
place = (435,75);
type = Stem;
},
{
place = (40,100);
type = Stem;
},
{
place = (330,95);
type = Stem;
}
);
layerId = m005;
shapes = (
{
closed = 1;
nodes = (
(289,-10,o),
(321,39,o),
(330,39,cs),
(338,39,o),
(340,33,o),
(340,9,cs),
(339,-77,o),
(322,-135,o),
(235,-135,cs),
(192,-135,o),
(160,-117,o),
(138,-110,cs),
(116,-102,o),
(99,-116,o),
(93,-144,cs),
(89,-164,o),
(93,-180,o),
(113,-188,cs),
(140,-198,o),
(184,-210,o),
(235,-210,cs),
(395,-210,o),
(440,-105,o),
(440,0,cs),
(440,143,o),
(440,286,o),
(450,429,cs),
(452,457,o),
(428,475,o),
(402,485,cs),
(363,499,o),
(319,510,o),
(255,510,cs),
(95,510,o),
(50,355,o),
(50,250,cs),
(50,225,ls),
(50,75,o),
(93,-10,o),
(200,-10,cs)
);
},
{
closed = 1;
nodes = (
(150,250,ls),
(150,323,o),
(163,435,o),
(255,435,cs),
(294,435,o),
(325,429,o),
(340,426,cs),
(347,425,o),
(350,422,o),
(349,415,cs),
(345,344,o),
(340,272,o),
(340,200,cs),
(340,132,o),
(282,75,o),
(225,75,cs),
(169,75,o),
(150,124,o),
(150,225,cs)
);
}
);
width = 515;
},
{
hints = (
{
horizontal = 1;
place = (-10,80);
type = Stem;
},
{
horizontal = 1;
place = (435,75);
type = Stem;
},
{
place = (40,100);
type = Stem;
},
{
place = (330,95);
type = Stem;
}
);
layerId = m002;
shapes = (
{
closed = 1;
nodes = (
(326,-25,o),
(331,24,o),
(340,24,cs),
(386,24,o),
(300,106,o),
(300,44,cs),
(299,-35,o),
(295,-50,o),
(245,-50,cs),
(214,-50,o),
(192,-37,o),
(164,-28,cs),
(114,-10,o),
(66,-41,o),
(54,-99,cs),
(45,-143,o),
(62,-183,o),
(105,-200,cs),
(134,-211,o),
(187,-225,o),
(245,-225,cs),
(442,-225,o),
(500,-86,o),
(500,35,cs),
(500,178,o),
(500,249,o),
(510,390,cs),
(514,442,o),
(476,479,o),
(429,497,cs),
(388,512,o),
(336,525,o),
(265,525,cs),
(64,525,o),
(10,367,o),
(10,250,cs),
(10,225,ls),
(10,92,o),
(66,-25,o),
(210,-25,cs)
);
},
{
closed = 1;
nodes = (
(210,250,ls),
(210,320,o),
(218,350,o),
(265,350,cs),
(280,350,o),
(290,347,o),
(296,341,cs),
(305,332,o),
(308,329,o),
(308,314,cs),
(308,293,o),
(300,269,o),
(300,235,cs),
(300,188,o),
(272,160,o),
(235,160,cs),
(213,160,o),
(210,168,o),
(210,225,cs)
);
}
);
width = 525;
},
{
hints = (
{
horizontal = 1;
place = (-10,80);
type = Stem;
},
{
horizontal = 1;
place = (435,75);
type = Stem;
},
{
place = (40,100);
type = Stem;
},
{
place = (330,95);
type = Stem;
}
);
layerId = m003;
shapes = (
{
closed = 1;
nodes = (
(283,-7,o),
(316,42,o),
(330,42,cs),
(344,42,o),
(350,34,o),
(350,2,cs),
(349,-86,o),
(330,-152,o),
(235,-152,cs),
(189,-152,o),
(156,-133,o),
(135,-126,cs),
(118,-120,o),
(108,-129,o),
(103,-153,cs),
(99,-171,o),
(101,-180,o),
(117,-186,cs),
(143,-195,o),
(185,-207,o),
(235,-207,cs),
(388,-207,o),
(430,-110,o),
(430,-7,cs),
(430,136,o),
(430,293,o),
(440,437,cs),
(442,459,o),
(423,473,o),
(399,483,cs),
(360,496,o),
(318,507,o),
(255,507,cs),
(103,507,o),
(60,354,o),
(60,250,cs),
(60,225,ls),
(60,77,o),
(99,-7,o),
(200,-7,cs)
);
},
{
closed = 1;
nodes = (
(140,250,ls),
(140,324,o),
(153,452,o),
(255,452,cs),
(295,452,o),
(327,446,o),
(342,443,cs),
(354,441,o),
(361,433,o),
(359,421,c),
(355,350,o),
(350,272,o),
(350,200,cs),
(350,120,o),
(288,58,o),
(225,58,cs),
(161,58,o),
(140,121,o),
(140,225,cs)
);
}
);
width = 515;
}
);
metricLeft = "=o";
metricRight = "=|n";
note = q;
unicode = 103;
},
{
glyphname = h;
lastChange = "2024-03-31 16:05:18 +0000";
layers = (
{
hints = (
{
horizontal = 1;
place = (0,21);
target = up;
type = BottomGhost;
},
{
horizontal = 1;
place = (435,75);
type = Stem;
},
{
place = (60,95);
type = Stem;
},
{
place = (345,100);
type = Stem;
}
);
layerId = m005;
shapes = (
{
closed = 1;
nodes = (
(126,-10,cs),
(157,-10,o),
(189,8,o),
(185,39,cs),
(175,123,o),
(175,216,o),
(175,300,cs),
(175,368,o),
(233,435,o),
(290,435,cs),
(346,435,o),
(365,401,o),
(365,300,cs),
(365,216,o),
(365,123,o),
(355,39,cs),
(351,8,o),
(383,-10,o),
(416,-10,cs),
(447,-10,o),
(479,8,o),
(475,39,cs),
(465,123,o),
(465,216,o),
(465,300,cs),
(465,450,o),
(422,510,o),
(315,510,cs),
(226,510,o),
(194,461,o),
(185,461,cs),
(176,461,o),
(175,469,o),
(175,500,cs),
(175,550,o),
(180,611,o),
(185,661,cs),
(188,692,o),
(157,710,o),
(126,710,cs),
(93,710,o),
(75,692,o),
(75,661,cs),
(75,460,o),
(75,240,o),
(65,39,cs),
(63,8,o),
(93,-10,o)
);
}
);
width = 540;
},
{
hints = (
{
horizontal = 1;
place = (0,21);
target = up;
type = BottomGhost;
},
{
horizontal = 1;
place = (435,75);
type = Stem;
},
{
place = (60,95);
type = Stem;
},
{
place = (345,100);
type = Stem;
}
);
layerId = m002;
shapes = (
{
closed = 1;
nodes = (
(126,-25,cs),
(188,-25,o),
(243,19,o),
(235,80,cs),
(225,161,o),
(225,181,o),
(225,265,cs),
(225,314,o),
(256,350,o),
(290,350,cs),
(315,350,o),
(315,350,o),
(315,265,cs),
(315,181,o),
(315,161,o),
(305,80,cs),
(297,19,o),
(352,-25,o),
(416,-25,cs),
(478,-25,o),
(533,19,o),
(525,80,cs),
(515,161,o),
(515,181,o),
(515,265,cs),
(515,439,o),
(454,525,o),
(315,525,cs),
(199,525,o),
(194,476,o),
(185,476,cs),
(158,476,o),
(225,397,o),
(225,465,cs),
(225,513,o),
(230,571,o),
(235,621,cs),
(241,682,o),
(187,725,o),
(126,725,cs),
(65,725,o),
(25,685,o),
(25,626,cs),
(25,425,o),
(25,276,o),
(15,77,cs),
(11,16,o),
(65,-25,o)
);
}
);
width = 540;
},
{
hints = (
{
horizontal = 1;
place = (0,21);
target = up;
type = BottomGhost;
},
{
horizontal = 1;
place = (435,75);
type = Stem;
},
{
place = (60,95);
type = Stem;
},
{
place = (345,100);
type = Stem;
}
);
layerId = m003;
shapes = (
{
closed = 1;
nodes = (
(126,-7,cs),
(154,-7,o),
(178,6,o),
(175,31,cs),
(165,115,o),
(165,223,o),
(165,307,cs),
(165,379,o),
(226,452,o),
(290,452,cs),
(352,452,o),
(375,413,o),
(375,307,cs),
(375,223,o),
(375,115,o),
(365,31,cs),
(362,6,o),
(386,-7,o),
(416,-7,cs),
(444,-7,o),
(468,6,o),
(465,31,cs),
(455,115,o),
(455,223,o),
(455,307,cs),
(455,454,o),
(417,507,o),
(315,507,cs),
(232,507,o),
(199,458,o),
(185,458,cs),
(169,458,o),
(165,468,o),
(165,507,cs),
(165,557,o),
(170,619,o),
(175,669,cs),
(177,694,o),
(154,707,o),
(126,707,cs),
(97,707,o),
(85,695,o),
(85,668,cs),
(85,467,o),
(85,233,o),
(75,31,cs),
(73,6,o),
(96,-7,o)
);
}
);
width = 540;
}
);
metricLeft = "=n";
metricRight = "=n";
note = h;
unicode = 104;
},
{
glyphname = i;
lastChange = "2024-12-22 16:23:37 +0000";
layers = (
{
anchors = (
{
name = bottom;
pos = (135,0);
}
);
hints = (
{
horizontal = 1;
place = (0,21);
target = up;
type = BottomGhost;
},
{
horizontal = 1;
place = (585,120);
type = Stem;
},
{
place = (48,120);
type = Stem;
},
{
place = (60,95);
type = Stem;
}
);
layerId = m005;
shapes = (
{
closed = 1;
nodes = (
(136,-10,cs),
(167,-10,o),
(197,8,o),
(195,39,cs),
(185,173,o),
(185,327,o),
(185,461,cs),
(185,492,o),
(167,510,o),
(136,510,cs),
(103,510,o),
(73,492,o),
(75,461,cs),
(85,327,o),
(85,173,o),
(75,39,cs),
(73,8,o),
(103,-10,o)
);
},
{
closed = 1;
nodes = (
(174,580,o),
(205,612,o),
(205,650,cs),
(205,689,o),
(174,720,o),
(135,720,cs),
(97,720,o),
(65,689,o),
(65,650,cs),
(65,612,o),
(97,580,o),
(135,580,cs)
);
}
);
width = 270;
},
{
anchors = (
{
name = bottom;
pos = (135,0);
}
);
hints = (
{
horizontal = 1;
place = (0,21);
target = up;
type = BottomGhost;
},
{
horizontal = 1;
place = (585,120);
type = Stem;
},
{
place = (48,120);
type = Stem;
},
{
place = (60,95);
type = Stem;
}
);
layerId = m002;
shapes = (
{
closed = 1;
nodes = (
(21,16,o),
(75,-25,o),
(136,-25,cs),
(195,-25,o),
(249,16,o),
(245,77,cs),
(235,210,o),
(235,292,o),
(235,426,cs),
(235,485,o),
(195,525,o),
(136,525,cs),
(75,525,o),
(21,484,o),
(25,423,cs),
(35,290,o),
(35,210,o),
(25,77,cs)
);
},
{
closed = 1;
nodes = (
(214,530,o),
(255,584,o),
(255,650,cs),
(255,717,o),
(202,770,o),
(135,770,cs),
(69,770,o),
(15,717,o),
(15,650,cs),
(15,584,o),
(69,530,o),
(135,530,cs)
);
}
);
width = 270;
},
{
anchors = (
{
name = bottom;
pos = (135,0);
}
);
hints = (
{
horizontal = 1;
place = (0,21);
target = up;
type = BottomGhost;
},
{
horizontal = 1;
place = (585,120);
type = Stem;
},
{
place = (48,120);
type = Stem;
},
{
place = (60,95);
type = Stem;
}
);
layerId = m003;
shapes = (
{
closed = 1;
nodes = (
(136,-7,cs),
(164,-7,o),
(187,6,o),
(185,31,cs),
(175,166,o),
(175,334,o),
(175,468,cs),
(175,495,o),
(163,507,o),
(136,507,cs),
(106,507,o),
(83,494,o),
(85,469,cs),
(95,334,o),
(95,166,o),
(85,31,cs),
(83,6,o),
(106,-7,o)
);
},
{
closed = 1;
nodes = (
(170,590,o),
(195,616,o),
(195,650,cs),
(195,685,o),
(170,710,o),
(135,710,cs),
(101,710,o),
(75,685,o),
(75,650,cs),
(75,616,o),
(101,590,o),
(135,590,cs)
);
}
);
width = 270;
}
);
metricLeft = "=n";
metricRight = "=|n";
note = i;
unicode = 105;
},
{
glyphname = dotlessi;
lastChange = "2024-03-31 16:04:36 +0000";
layers = (
{
hints = (
{
horizontal = 1;
place = (0,21);
target = up;
type = BottomGhost;
},
{
horizontal = 1;
place = (585,120);
type = Stem;
},
{
place = (48,120);
type = Stem;
},
{
place = (60,95);
type = Stem;
}
);
layerId = m005;
shapes = (
{
closed = 1;
nodes = (
(126,-10,cs),
(157,-10,o),
(187,8,o),
(185,39,cs),
(175,173,o),
(175,327,o),
(175,461,cs),
(175,492,o),
(157,510,o),
(126,510,cs),
(93,510,o),
(63,492,o),
(65,461,cs),
(75,327,o),
(75,173,o),
(65,39,cs),
(63,8,o),
(93,-10,o)
);
}
);
width = 250;
},
{
hints = (
{
horizontal = 1;
place = (0,21);
target = up;
type = BottomGhost;
},
{
horizontal = 1;
place = (585,120);
type = Stem;
},
{
place = (48,120);
type = Stem;
},
{
place = (60,95);
type = Stem;
}
);
layerId = m002;
shapes = (
{
closed = 1;
nodes = (
(126,-25,cs),
(185,-25,o),
(239,16,o),
(235,77,cs),
(225,210,o),
(225,292,o),
(225,426,cs),
(225,485,o),
(185,525,o),
(126,525,cs),
(65,525,o),
(11,484,o),
(15,423,cs),
(25,290,o),
(25,210,o),
(15,77,cs),
(11,16,o),
(65,-25,o)
);
}
);
width = 250;
},
{
hints = (
{
horizontal = 1;
place = (0,21);
target = up;
type = BottomGhost;
},
{
horizontal = 1;
place = (585,120);
type = Stem;
},
{
place = (48,120);
type = Stem;
},
{
place = (60,95);
type = Stem;
}
);
layerId = m003;
shapes = (
{
closed = 1;
nodes = (
(126,-7,cs),
(154,-7,o),
(177,6,o),
(175,31,cs),
(165,166,o),
(165,334,o),
(165,468,cs),
(165,495,o),
(153,507,o),
(126,507,cs),
(96,507,o),
(73,494,o),
(75,469,cs),
(85,334,o),
(85,166,o),
(75,31,cs),
(73,6,o),
(96,-7,o)
);
}
);
width = 250;
}
);
metricLeft = "=i";
metricRight = "=i";
note = i;
unicode = 305;
},
{
glyphname = j;
lastChange = "2024-03-31 16:04:15 +0000";
layers = (
{
hints = (
{
horizontal = 1;
place = (585,120);
type = Stem;
},
{
place = (48,120);
type = Stem;
}
);
layerId = m005;
shapes = (
{
closed = 1;
nodes = (
(163,-216,o),
(174,-117,o),
(174,0,cs),
(174,150,o),
(174,311,o),
(174,461,cs),
(174,492,o),
(156,510,o),
(125,510,cs),
(92,510,o),
(62,492,o),
(64,461,cs),
(74,311,o),
(75,150,o),
(75,0,cs),
(75,-97,o),
(75,-137,o),
(20,-127,cs),
(-5,-123,o),
(-20,-149,o),
(-20,-174,cs),
(-20,-194,o),
(-5,-209,o),
(20,-210,cs)
);
},
{
closed = 1;
nodes = (
(163,580,o),
(194,612,o),
(194,650,cs),
(194,689,o),
(163,720,o),
(124,720,cs),
(86,720,o),
(54,689,o),
(54,650,cs),
(54,612,o),
(86,580,o),
(124,580,cs)
);
}
);
width = 259;
},
{
hints = (
{
horizontal = 1;
place = (585,120);
type = Stem;
},
{
place = (48,120);
type = Stem;
}
);
layerId = m002;
shapes = (
{
closed = 1;
nodes = (
(210,-233,o),
(224,-89,o),
(224,35,cs),
(224,185,o),
(224,276,o),
(224,426,cs),
(224,485,o),
(184,525,o),
(125,525,cs),
(64,525,o),
(10,484,o),
(14,423,cs),
(24,274,o),
(25,185,o),
(25,35,cs),
(25,-30,o),
(25,-44,o),
(19,-43,cs),
(-29,-35,o),
(-70,-83,o),
(-70,-139,cs),
(-70,-186,o),
(-34,-223,o),
(18,-225,cs)
);
},
{
closed = 1;
nodes = (
(191,530,o),
(244,584,o),
(244,650,cs),
(244,717,o),
(191,770,o),
(124,770,cs),
(58,770,o),
(4,717,o),
(4,650,cs),
(4,584,o),
(58,530,o),
(124,530,cs)
);
}
);
width = 259;
},
{
hints = (
{
horizontal = 1;
place = (585,120);
type = Stem;
},
{
place = (48,120);
type = Stem;
}
);
layerId = m003;
shapes = (
{
closed = 1;
nodes = (
(154,-213,o),
(164,-123,o),
(164,0,cs),
(164,150,o),
(164,318,o),
(164,468,cs),
(164,495,o),
(152,507,o),
(125,507,cs),
(95,507,o),
(72,494,o),
(74,469,cs),
(84,318,o),
(85,150,o),
(85,0,cs),
(85,-104,o),
(85,-156,o),
(18,-144,cs),
(0,-141,o),
(-10,-159,o),
(-10,-181,cs),
(-10,-197,o),
(-1,-206,o),
(20,-207,cs)
);
},
{
closed = 1;
nodes = (
(159,590,o),
(184,616,o),
(184,650,cs),
(184,685,o),
(159,710,o),
(124,710,cs),
(90,710,o),
(64,685,o),
(64,650,cs),
(64,616,o),
(90,590,o),
(124,590,cs)
);
}
);
width = 259;
}
);
metricRight = "=i";
note = j;
unicode = 106;
},
{
glyphname = k;
lastChange = "2024-03-31 16:03:53 +0000";
layers = (
{
anchors = (
{
name = bottom;
pos = (255,0);
},
{
name = top;
pos = (255,700);
}
);
hints = (
{
horizontal = 1;
place = (0,21);
target = up;
type = BottomGhost;
},
{
place = (60,95);
type = Stem;
},
{
place = (330,95);
type = Stem;
}
);
layerId = m005;
shapes = (
{
closed = 1;
nodes = (
(126,-10,cs),
(157,-10,o),
(175,8,o),
(175,39,cs),
(175,143,ls),
(175,148,o),
(176,151,o),
(179,155,cs),
(242,233,ls),
(245,237,o),
(251,239,o),
(256,237,cs),
(314,208,o),
(351,119,o),
(362,38,cs),
(366,6,o),
(381,-10,o),
(415,-10,cs),
(447,-10,o),
(479,9,o),
(471,41,cs),
(447,143,o),
(391,258,o),
(307,295,cs),
(300,298,o),
(300,303,o),
(304,308,cs),
(411,440,ls),
(437,472,o),
(431,510,o),
(397,510,cs),
(351,510,o),
(329,494,o),
(317,471,cs),
(285,407,o),
(236,343,o),
(177,279,cs),
(171,272,o),
(165,274,o),
(165,283,cs),
(165,407,o),
(165,538,o),
(175,661,c),
(175,692,o),
(157,710,o),
(126,710,cs),
(93,710,o),
(63,692,o),
(65,661,cs),
(75,460,o),
(75,240,o),
(65,39,cs),
(63,8,o),
(93,-10,o)
);
}
);
width = 500;
},
{
anchors = (
{
name = bottom;
pos = (255,0);
},
{
name = top;
pos = (255,700);
}
);
hints = (
{
horizontal = 1;
place = (0,21);
target = up;
type = BottomGhost;
},
{
place = (60,95);
type = Stem;
},
{
place = (330,95);
type = Stem;
}
);
layerId = m002;
shapes = (
{
closed = 1;
nodes = (
(126,-25,cs),
(185,-25,o),
(225,15,o),
(225,74,cs),
(225,115,ls),
(225,127,o),
(228,137,o),
(236,146,cs),
(242,153,ls),
(252,166,o),
(265,167,o),
(276,154,cs),
(294,133,o),
(307,112,o),
(312,67,cs),
(320,10,o),
(356,-25,o),
(415,-25,cs),
(478,-25,o),
(536,22,o),
(520,88,cs),
(500,171,o),
(459,240,o),
(394,296,cs),
(381,308,o),
(381,321,o),
(395,331,cs),
(450,373,ls),
(515,422,o),
(477,525,o),
(397,525,cs),
(324,525,o),
(294,502,o),
(272,459,cs),
(264,444,o),
(255,428,o),
(245,412,cs),
(233,392,o),
(215,401,o),
(216,426,cs),
(217,493,o),
(220,560,o),
(225,624,c),
(226,684,o),
(186,725,o),
(126,725,cs),
(65,725,o),
(11,684,o),
(15,623,cs),
(25,424,o),
(25,276,o),
(15,77,cs),
(11,16,o),
(65,-25,o)
);
}
);
width = 528;
},
{
anchors = (
{
name = bottom;
pos = (255,0);
},
{
name = top;
pos = (255,700);
}
);
hints = (
{
horizontal = 1;
place = (0,21);
target = up;
type = BottomGhost;
},
{
place = (60,95);
type = Stem;
},
{
place = (330,95);
type = Stem;
}
);
layerId = m003;
shapes = (
{
closed = 1;
nodes = (
(126,-7,cs),
(153,-7,o),
(165,5,o),
(165,32,cs),
(165,149,ls),
(165,152,o),
(166,156,o),
(168,158,cs),
(241,247,ls),
(243,250,o),
(247,252,o),
(251,250,cs),
(318,224,o),
(360,120,o),
(372,32,cs),
(376,3,o),
(385,-7,o),
(415,-7,cs),
(444,-7,o),
(467,7,o),
(461,32,cs),
(436,139,o),
(377,264,o),
(287,292,cs),
(282,293,o),
(281,297,o),
(284,301,cs),
(403,453,ls),
(426,482,o),
(422,507,o),
(397,507,cs),
(354,507,o),
(337,494,o),
(326,473,cs),
(290,400,o),
(232,322,o),
(164,249,cs),
(159,244,o),
(155,246,o),
(155,252,cs),
(155,385,o),
(154,535,o),
(165,668,c),
(165,695,o),
(153,707,o),
(126,707,cs),
(96,707,o),
(73,694,o),
(75,669,cs),
(85,467,o),
(85,233,o),
(75,31,cs),
(73,6,o),
(96,-7,o)
);
}
);
width = 501;
}
);
metricLeft = "=n";
metricRight = "=v";
note = k;
unicode = 107;
},
{
glyphname = l;
lastChange = "2024-03-31 16:03:27 +0000";
layers = (
{
anchors = (
{
name = bottom;
pos = (148,0);
},
{
name = center;
pos = (148,350);
},
{
name = top;
pos = (148,700);
},
{
name = topright;
pos = (254,700);
}
);
hints = (
{
horizontal = 1;
place = (0,21);
target = up;
type = BottomGhost;
},
{
place = (60,95);
type = Stem;
},
{
horizontal = 1;
place = (-3,63);
type = Stem;
}
);
layerId = m005;
shapes = (
{
closed = 1;
nodes = (
(224,-4,o),
(244,9,o),
(244,33,cs),
(244,70,o),
(228,91,o),
(204,90,cs),
(175,89,o),
(166,105,o),
(166,200,cs),
(166,350,o),
(166,511,o),
(186,661,cs),
(190,692,o),
(158,710,o),
(127,710,cs),
(94,710,o),
(76,692,o),
(76,661,cs),
(76,511,o),
(76,350,o),
(66,200,cs),
(59,90,o),
(76,-14,o),
(204,-5,cs)
);
}
);
width = 294;
},
{
anchors = (
{
name = bottom;
pos = (148,0);
},
{
name = center;
pos = (148,350);
},
{
name = top;
pos = (148,700);
},
{
name = topright;
pos = (254,700);
}
);
hints = (
{
horizontal = 1;
place = (0,21);
target = up;
type = BottomGhost;
},
{
place = (60,95);
type = Stem;
},
{
horizontal = 1;
place = (-3,63);
type = Stem;
}
);
layerId = m002;
shapes = (
{
closed = 1;
nodes = (
(251,-22,o),
(294,10,o),
(294,63,cs),
(294,129,o),
(254,172,o),
(202,170,cs),
(214,170,o),
(216,138,o),
(216,230,cs),
(216,380,o),
(216,474,o),
(236,620,cs),
(244,682,o),
(189,726,o),
(127,726,cs),
(66,726,o),
(26,686,o),
(26,627,cs),
(26,477,o),
(26,382,o),
(16,233,cs),
(8,112,o),
(32,-37,o),
(207,-25,cs)
);
}
);
width = 304;
},
{
anchors = (
{
name = bottom;
pos = (148,0);
},
{
name = center;
pos = (148,350);
},
{
name = top;
pos = (148,700);
},
{
name = topright;
pos = (254,700);
}
);
hints = (
{
horizontal = 1;
place = (0,21);
target = up;
type = BottomGhost;
},
{
place = (60,95);
type = Stem;
},
{
horizontal = 1;
place = (-3,63);
type = Stem;
}
);
layerId = m003;
shapes = (
{
closed = 1;
nodes = (
(221,-1,o),
(234,7,o),
(234,26,cs),
(234,60,o),
(223,74,o),
(204,73,cs),
(167,72,o),
(156,93,o),
(156,200,cs),
(156,350,o),
(156,519,o),
(176,669,cs),
(179,694,o),
(155,707,o),
(127,707,cs),
(98,707,o),
(86,695,o),
(86,668,cs),
(86,518,o),
(85,350,o),
(76,199,cs),
(69,83,o),
(84,-10,o),
(203,-2,cs)
);
}
);
width = 294;
}
);
metricLeft = "=n";
metricRight = "=o";
note = l;
unicode = 108;
},
{
export = 0;
glyphname = lslash;
lastChange = "2024-02-03 22:32:44 +0000";
layers = (
{
hints = (
{
horizontal = 1;
place = (0,21);
target = up;
type = BottomGhost;
},
{
place = (60,95);
type = Stem;
},
{
horizontal = 1;
place = (-3,63);
type = Stem;
}
);
layerId = m005;
shapes = (
{
closed = 1;
nodes = (
(254,0,l),
(254,70,l),
(224,70,ls),
(195,70,o),
(196,110,o),
(196,200,cs),
(196,710,l),
(101,700,l),
(101,200,ls),
(101,90,o),
(101,-10,o),
(224,-2,cs)
);
},
{
closed = 1;
nodes = (
(50,201,l),
(297,449,l),
(248,498,l),
(0,251,l)
);
}
);
width = 297;
},
{
hints = (
{
horizontal = 1;
place = (0,21);
target = up;
type = BottomGhost;
},
{
place = (60,95);
type = Stem;
},
{
horizontal = 1;
place = (-3,63);
type = Stem;
}
);
layerId = m002;
shapes = (
{
closed = 1;
nodes = (
(254,0,l),
(254,70,l),
(224,70,ls),
(195,70,o),
(196,110,o),
(196,200,cs),
(196,710,l),
(101,700,l),
(101,200,ls),
(101,90,o),
(101,-10,o),
(224,-2,cs)
);
},
{
closed = 1;
nodes = (
(50,201,l),
(297,449,l),
(248,498,l),
(0,251,l)
);
}
);
width = 297;
},
{
hints = (
{
horizontal = 1;
place = (0,21);
target = up;
type = BottomGhost;
},
{
place = (60,95);
type = Stem;
},
{
horizontal = 1;
place = (-3,63);
type = Stem;
}
);
layerId = m003;
shapes = (
{
closed = 1;
nodes = (
(254,0,l),
(254,70,l),
(224,70,ls),
(195,70,o),
(196,110,o),
(196,200,cs),
(196,710,l),
(101,700,l),
(101,200,ls),
(101,90,o),
(101,-10,o),
(224,-2,cs)
);
},
{
closed = 1;
nodes = (
(50,201,l),
(297,449,l),
(248,498,l),
(0,251,l)
);
}
);
width = 297;
}
);
note = l;
unicode = 322;
},
{
glyphname = m;
lastChange = "2024-03-31 16:03:01 +0000";
layers = (
{
hints = (
{
horizontal = 1;
place = (0,21);
target = up;
type = BottomGhost;
},
{
horizontal = 1;
place = (435,75);
type = Stem;
},
{
place = (60,95);
type = Stem;
},
{
place = (315,100);
type = Stem;
},
{
place = (575,100);
type = Stem;
}
);
layerId = m005;
shapes = (
{
closed = 1;
nodes = (
(126,-10,cs),
(157,-10,o),
(189,8,o),
(185,39,cs),
(175,123,o),
(175,216,o),
(175,300,cs),
(175,368,o),
(233,435,o),
(290,435,cs),
(346,435,o),
(365,401,o),
(365,300,cs),
(365,216,o),
(365,123,o),
(355,39,cs),
(351,8,o),
(383,-10,o),
(416,-10,cs),
(447,-10,o),
(479,8,o),
(475,39,cs),
(465,123,o),
(465,216,o),
(465,300,cs),
(465,368,o),
(523,435,o),
(580,435,cs),
(636,435,o),
(655,401,o),
(655,300,cs),
(655,216,o),
(655,123,o),
(645,39,cs),
(641,8,o),
(673,-10,o),
(706,-10,cs),
(737,-10,o),
(769,8,o),
(765,39,cs),
(755,123,o),
(755,216,o),
(755,300,cs),
(755,450,o),
(712,510,o),
(605,510,cs),
(516,510,o),
(470,445,o),
(450,445,cs),
(443,445,o),
(437,453,o),
(428,464,cs),
(404,496,o),
(367,510,o),
(315,510,cs),
(226,510,o),
(180,445,o),
(165,445,cs),
(156,445,o),
(151,457,o),
(148,471,cs),
(143,492,o),
(133,503,o),
(112,503,cs),
(87,503,o),
(63,491,o),
(65,469,cs),
(75,330,o),
(75,178,o),
(65,39,cs),
(63,8,o),
(93,-10,o)
);
}
);
width = 830;
},
{
hints = (
{
horizontal = 1;
place = (0,21);
target = up;
type = BottomGhost;
},
{
horizontal = 1;
place = (435,75);
type = Stem;
},
{
place = (60,95);
type = Stem;
},
{
place = (315,100);
type = Stem;
},
{
place = (575,100);
type = Stem;
}
);
layerId = m002;
shapes = (
{
closed = 1;
nodes = (
(126,-25,cs),
(188,-25,o),
(243,19,o),
(235,80,cs),
(225,161,o),
(225,181,o),
(225,265,cs),
(225,314,o),
(256,350,o),
(290,350,cs),
(309,350,o),
(315,329,o),
(315,265,cs),
(315,181,o),
(315,161,o),
(305,80,cs),
(297,19,o),
(352,-25,o),
(416,-25,cs),
(478,-25,o),
(533,19,o),
(525,80,cs),
(515,161,o),
(515,181,o),
(515,265,cs),
(515,314,o),
(546,350,o),
(580,350,cs),
(599,350,o),
(605,329,o),
(605,265,cs),
(605,181,o),
(605,161,o),
(595,80,cs),
(587,19,o),
(642,-25,o),
(706,-25,cs),
(768,-25,o),
(823,19,o),
(815,80,cs),
(805,161,o),
(805,181,o),
(805,265,cs),
(805,439,o),
(744,525,o),
(605,525,cs),
(545,525,o),
(496,491,o),
(474,474,cs),
(458,461,o),
(441,463,o),
(433,474,cs),
(415,498,o),
(379,525,o),
(315,525,cs),
(230,525,o),
(188,459,o),
(170,459,cs),
(158,459,o),
(153,479,o),
(147,490,cs),
(142,500,o),
(130,515,o),
(112,515,cs),
(57,515,o),
(10,479,o),
(15,427,cs),
(25,290,o),
(25,215,o),
(15,77,cs),
(11,16,o),
(65,-25,o)
);
}
);
width = 830;
},
{
hints = (
{
horizontal = 1;
place = (0,21);
target = up;
type = BottomGhost;
},
{
horizontal = 1;
place = (435,75);
type = Stem;
},
{
place = (60,95);
type = Stem;
},
{
place = (315,100);
type = Stem;
},
{
place = (575,100);
type = Stem;
}
);
layerId = m003;
shapes = (
{
closed = 1;
nodes = (
(126,-7,cs),
(154,-7,o),
(178,6,o),
(175,31,cs),
(165,115,o),
(165,223,o),
(165,307,cs),
(165,379,o),
(226,452,o),
(290,452,cs),
(352,452,o),
(375,413,o),
(375,307,cs),
(375,223,o),
(375,115,o),
(365,31,cs),
(362,6,o),
(386,-7,o),
(416,-7,cs),
(444,-7,o),
(468,6,o),
(465,31,cs),
(455,115,o),
(455,223,o),
(455,307,cs),
(455,379,o),
(516,452,o),
(580,452,cs),
(642,452,o),
(665,413,o),
(665,307,cs),
(665,223,o),
(665,115,o),
(655,31,cs),
(652,6,o),
(676,-7,o),
(706,-7,cs),
(734,-7,o),
(758,6,o),
(755,31,cs),
(745,115,o),
(745,223,o),
(745,307,cs),
(745,454,o),
(707,507,o),
(605,507,cs),
(519,507,o),
(477,442,o),
(450,442,cs),
(439,442,o),
(431,452,o),
(420,465,cs),
(398,495,o),
(365,507,o),
(315,507,cs),
(227,507,o),
(189,442,o),
(165,442,cs),
(151,442,o),
(142,456,o),
(138,476,cs),
(134,494,o),
(129,500,o),
(112,500,cs),
(89,500,o),
(74,492,o),
(75,477,cs),
(85,337,o),
(85,171,o),
(75,31,cs),
(73,6,o),
(96,-7,o)
);
}
);
width = 830;
}
);
metricLeft = "=n";
metricRight = "=n";
note = m;
unicode = 109;
},
{
glyphname = n;
lastChange = "2024-03-31 16:00:52 +0000";
layers = (
{
anchors = (
{
name = bottom;
pos = (270,0);
},
{
name = top;
pos = (270,500);
}
);
hints = (
{
horizontal = 1;
place = (0,21);
target = up;
type = BottomGhost;
},
{
horizontal = 1;
place = (435,75);
type = Stem;
},
{
place = (60,95);
type = Stem;
},
{
place = (345,100);
type = Stem;
}
);
layerId = m005;
shapes = (
{
closed = 1;
nodes = (
(75,330,o),
(75,177,o),
(65,38,cs),
(63,7,o),
(92,-10,o),
(127,-10,cs),
(158,-10,o),
(189,7,o),
(185,38,cs),
(175,122,o),
(175,216,o),
(175,300,cs),
(175,368,o),
(233,435,o),
(290,435,cs),
(346,435,o),
(365,401,o),
(365,300,cs),
(365,216,o),
(365,122,o),
(355,38,cs),
(351,7,o),
(382,-10,o),
(417,-10,cs),
(448,-10,o),
(479,7,o),
(475,38,cs),
(465,122,o),
(465,216,o),
(465,300,cs),
(465,450,o),
(422,510,o),
(315,510,cs),
(226,510,o),
(180,445,o),
(165,445,cs),
(156,445,o),
(151,457,o),
(148,471,cs),
(143,492,o),
(133,503,o),
(109,503,cs),
(87,503,o),
(63,491,o),
(65,469,cs)
);
}
);
width = 540;
},
{
anchors = (
{
name = bottom;
pos = (270,0);
},
{
name = top;
pos = (270,500);
}
);
hints = (
{
horizontal = 1;
place = (0,21);
target = up;
type = BottomGhost;
},
{
horizontal = 1;
place = (435,75);
type = Stem;
},
{
place = (60,95);
type = Stem;
},
{
place = (345,100);
type = Stem;
}
);
layerId = m002;
shapes = (
{
closed = 1;
nodes = (
(25,289,o),
(25,214,o),
(15,76,cs),
(11,16,o),
(62,-25,o),
(127,-25,cs),
(192,-25,o),
(242,20,o),
(235,79,cs),
(225,160,o),
(225,180,o),
(225,264,cs),
(225,313,o),
(256,349,o),
(290,349,cs),
(309,349,o),
(315,328,o),
(315,264,cs),
(315,180,o),
(315,160,o),
(305,79,cs),
(298,20,o),
(348,-25,o),
(417,-25,cs),
(482,-25,o),
(532,20,o),
(525,79,cs),
(515,160,o),
(515,180,o),
(515,264,cs),
(515,438,o),
(454,524,o),
(315,524,cs),
(249,524,o),
(213,490,o),
(196,480,cs),
(179,470,o),
(169,475,o),
(165,487,cs),
(157,510,o),
(133,514,o),
(109,514,cs),
(57,514,o),
(10,478,o),
(15,426,cs)
);
}
);
width = 540;
},
{
anchors = (
{
name = bottom;
pos = (270,0);
},
{
name = top;
pos = (270,500);
}
);
hints = (
{
horizontal = 1;
place = (0,21);
target = up;
type = BottomGhost;
},
{
horizontal = 1;
place = (435,75);
type = Stem;
},
{
place = (60,95);
type = Stem;
},
{
place = (345,100);
type = Stem;
}
);
layerId = m003;
shapes = (
{
closed = 1;
nodes = (
(85,337,o),
(85,170,o),
(75,30,cs),
(73,6,o),
(95,-7,o),
(127,-7,cs),
(155,-7,o),
(178,5,o),
(175,30,cs),
(165,114,o),
(165,216,o),
(165,300,cs),
(165,372,o),
(226,452,o),
(290,452,cs),
(352,452,o),
(375,406,o),
(375,300,cs),
(375,216,o),
(375,114,o),
(365,30,cs),
(362,5,o),
(385,-7,o),
(417,-7,cs),
(445,-7,o),
(468,5,o),
(465,30,cs),
(455,114,o),
(455,216,o),
(455,300,cs),
(455,447,o),
(417,507,o),
(315,507,cs),
(227,507,o),
(189,442,o),
(165,442,cs),
(151,442,o),
(142,456,o),
(138,476,cs),
(134,494,o),
(129,500,o),
(109,500,cs),
(89,500,o),
(74,492,o),
(75,477,cs)
);
}
);
width = 540;
}
);
note = n;
unicode = 110;
},
{
glyphname = o;
kernLeft = o;
lastChange = "2024-02-03 22:41:13 +0000";
layers = (
{
anchors = (
{
name = bottom;
pos = (255,0);
},
{
name = center;
pos = (255,250);
},
{
name = ogonek;
pos = (451,10);
},
{
name = top;
pos = (255,500);
},
{
name = topright;
pos = (480,500);
}
);
hints = (
{
horizontal = 1;
place = (-10,80);
type = Stem;
},
{
horizontal = 1;
place = (440,70);
type = Stem;
},
{
place = (40,100);
type = Stem;
},
{
place = (350,100);
type = Stem;
}
);
layerId = m005;
shapes = (
{
closed = 1;
nodes = (
(460,250,ls),
(460,355,o),
(415,510,o),
(255,510,cs),
(95,510,o),
(50,355,o),
(50,250,cs),
(50,225,ls),
(50,120,o),
(95,-10,o),
(255,-10,cs),
(415,-10,o),
(460,120,o),
(460,225,cs)
);
},
{
closed = 1;
nodes = (
(360,225,ls),
(360,167,o),
(345,75,o),
(255,75,cs),
(165,75,o),
(150,167,o),
(150,225,cs),
(150,250,ls),
(150,318,o),
(165,435,o),
(255,435,cs),
(345,435,o),
(360,318,o),
(360,250,cs)
);
}
);
width = 510;
},
{
anchors = (
{
name = bottom;
pos = (265,0);
},
{
name = center;
pos = (265,250);
},
{
name = ogonek;
pos = (461,10);
},
{
name = top;
pos = (265,500);
},
{
name = topright;
pos = (490,500);
}
);
hints = (
{
horizontal = 1;
place = (-10,80);
type = Stem;
},
{
horizontal = 1;
place = (440,70);
type = Stem;
},
{
place = (40,100);
type = Stem;
},
{
place = (350,100);
type = Stem;
}
);
layerId = m002;
shapes = (
{
closed = 1;
nodes = (
(520,250,ls),
(520,367,o),
(466,525,o),
(265,525,cs),
(64,525,o),
(10,367,o),
(10,250,cs),
(10,225,ls),
(10,143,o),
(65,-25,o),
(265,-25,cs),
(465,-25,o),
(520,143,o),
(520,225,cs)
);
},
{
closed = 1;
nodes = (
(320,225,ls),
(320,186,o),
(298,160,o),
(265,160,cs),
(232,160,o),
(210,186,o),
(210,225,cs),
(210,250,ls),
(210,314,o),
(230,350,o),
(265,350,cs),
(300,350,o),
(320,314,o),
(320,250,cs)
);
}
);
width = 530;
},
{
anchors = (
{
name = bottom;
pos = (255,0);
},
{
name = center;
pos = (255,250);
},
{
name = ogonek;
pos = (451,10);
},
{
name = top;
pos = (255,500);
},
{
name = topright;
pos = (480,500);
}
);
hints = (
{
horizontal = 1;
place = (-10,80);
type = Stem;
},
{
horizontal = 1;
place = (440,70);
type = Stem;
},
{
place = (40,100);
type = Stem;
},
{
place = (350,100);
type = Stem;
}
);
layerId = m003;
shapes = (
{
closed = 1;
nodes = (
(450,250,ls),
(450,354,o),
(407,507,o),
(255,507,cs),
(103,507,o),
(60,354,o),
(60,250,cs),
(60,225,ls),
(60,122,o),
(102,-7,o),
(255,-7,cs),
(408,-7,o),
(450,122,o),
(450,225,cs)
);
},
{
closed = 1;
nodes = (
(370,225,ls),
(370,166,o),
(354,58,o),
(255,58,cs),
(156,58,o),
(140,166,o),
(140,225,cs),
(140,250,ls),
(140,319,o),
(156,452,o),
(255,452,cs),
(354,452,o),
(370,319,o),
(370,250,cs)
);
}
);
width = 510;
}
);
note = o;
unicode = 111;
},
{
export = 0;
glyphname = oslash;
kernLeft = o;
lastChange = "2024-02-03 22:32:44 +0000";
layers = (
{
layerId = m005;
shapes = (
{
ref = o;
},
{
closed = 1;
nodes = (
(53,14,l),
(477,438,l),
(428,487,l),
(4,63,l)
);
}
);
width = 490;
},
{
layerId = m002;
shapes = (
{
ref = o;
},
{
closed = 1;
nodes = (
(53,14,l),
(477,438,l),
(428,487,l),
(4,63,l)
);
}
);
width = 490;
},
{
layerId = m003;
shapes = (
{
ref = o;
},
{
closed = 1;
nodes = (
(53,14,l),
(477,438,l),
(428,487,l),
(4,63,l)
);
}
);
width = 490;
}
);
unicode = 248;
},
{
export = 0;
glyphname = oe;
kernLeft = o;
lastChange = "2024-02-03 22:32:44 +0000";
layers = (
{
layerId = m005;
shapes = (
{
closed = 1;
nodes = (
(435,300,ls),
(435,401,o),
(415,510,o),
(255,510,cs),
(95,510,o),
(50,405,o),
(50,300,cs),
(50,200,ls),
(50,95,o),
(95,-10,o),
(255,-10,cs),
(415,-10,o),
(435,99,o),
(435,200,cs)
);
},
{
closed = 1;
nodes = (
(360,200,ls),
(360,132,o),
(345,65,o),
(255,65,cs),
(165,65,o),
(150,132,o),
(150,200,cs),
(150,300,ls),
(150,368,o),
(165,435,o),
(255,435,cs),
(345,435,o),
(360,368,o),
(360,300,cs)
);
},
{
closed = 1;
nodes = (
(650,-10,o),
(717,25,o),
(717,25,c),
(710,48,o),
(702,72,o),
(695,95,c),
(695,95,o),
(650,65,o),
(565,65,cs),
(475,65,o),
(460,127,o),
(460,218,c),
(745,218,l),
(745,300,ls),
(745,405,o),
(711,510,o),
(565,510,cs),
(405,510,o),
(385,405,o),
(385,300,cs),
(385,200,ls),
(385,95,o),
(405,-10,o),
(565,-10,cs)
);
},
{
closed = 1;
nodes = (
(460,300,ls),
(460,373,o),
(475,440,o),
(565,440,cs),
(634,440,o),
(645,373,o),
(645,300,cs),
(645,288,l),
(460,288,l)
);
}
);
width = 795;
},
{
layerId = m002;
shapes = (
{
closed = 1;
nodes = (
(435,300,ls),
(435,401,o),
(415,510,o),
(255,510,cs),
(95,510,o),
(50,405,o),
(50,300,cs),
(50,200,ls),
(50,95,o),
(95,-10,o),
(255,-10,cs),
(415,-10,o),
(435,99,o),
(435,200,cs)
);
},
{
closed = 1;
nodes = (
(360,200,ls),
(360,132,o),
(345,65,o),
(255,65,cs),
(165,65,o),
(150,132,o),
(150,200,cs),
(150,300,ls),
(150,368,o),
(165,435,o),
(255,435,cs),
(345,435,o),
(360,368,o),
(360,300,cs)
);
},
{
closed = 1;
nodes = (
(650,-10,o),
(717,25,o),
(717,25,c),
(710,48,o),
(702,72,o),
(695,95,c),
(695,95,o),
(650,65,o),
(565,65,cs),
(475,65,o),
(460,127,o),
(460,218,c),
(745,218,l),
(745,300,ls),
(745,405,o),
(711,510,o),
(565,510,cs),
(405,510,o),
(385,405,o),
(385,300,cs),
(385,200,ls),
(385,95,o),
(405,-10,o),
(565,-10,cs)
);
},
{
closed = 1;
nodes = (
(460,300,ls),
(460,373,o),
(475,440,o),
(565,440,cs),
(634,440,o),
(645,373,o),
(645,300,cs),
(645,288,l),
(460,288,l)
);
}
);
width = 795;
},
{
layerId = m003;
shapes = (
{
closed = 1;
nodes = (
(435,300,ls),
(435,401,o),
(415,510,o),
(255,510,cs),
(95,510,o),
(50,405,o),
(50,300,cs),
(50,200,ls),
(50,95,o),
(95,-10,o),
(255,-10,cs),
(415,-10,o),
(435,99,o),
(435,200,cs)
);
},
{
closed = 1;
nodes = (
(360,200,ls),
(360,132,o),
(345,65,o),
(255,65,cs),
(165,65,o),
(150,132,o),
(150,200,cs),
(150,300,ls),
(150,368,o),
(165,435,o),
(255,435,cs),
(345,435,o),
(360,368,o),
(360,300,cs)
);
},
{
closed = 1;
nodes = (
(650,-10,o),
(717,25,o),
(717,25,c),
(710,48,o),
(702,72,o),
(695,95,c),
(695,95,o),
(650,65,o),
(565,65,cs),
(475,65,o),
(460,127,o),
(460,218,c),
(745,218,l),
(745,300,ls),
(745,405,o),
(711,510,o),
(565,510,cs),
(405,510,o),
(385,405,o),
(385,300,cs),
(385,200,ls),
(385,95,o),
(405,-10,o),
(565,-10,cs)
);
},
{
closed = 1;
nodes = (
(460,300,ls),
(460,373,o),
(475,440,o),
(565,440,cs),
(634,440,o),
(645,373,o),
(645,300,cs),
(645,288,l),
(460,288,l)
);
}
);
width = 795;
}
);
metricLeft = "=o";
metricRight = "=e";
unicode = 339;
},
{
glyphname = p;
kernRight = o;
lastChange = "2024-03-31 15:59:21 +0000";
layers = (
{
hints = (
{
horizontal = 1;
place = (-10,63);
type = Stem;
},
{
horizontal = 1;
place = (435,75);
type = Stem;
},
{
place = (60,95);
type = Stem;
},
{
place = (345,100);
type = Stem;
}
);
layerId = m005;
shapes = (
{
closed = 1;
nodes = (
(226,510,o),
(180,445,o),
(165,445,cs),
(156,445,o),
(151,457,o),
(148,471,cs),
(143,492,o),
(133,503,o),
(109,503,cs),
(87,503,o),
(64,491,o),
(65,469,cs),
(75,263,o),
(75,45,o),
(65,-161,cs),
(63,-192,o),
(93,-210,o),
(124,-210,cs),
(157,-210,o),
(175,-192,o),
(175,-161,cs),
(175,-11,ls),
(175,-4,o),
(179,-1,o),
(186,-3,cs),
(200,-6,o),
(227,-10,o),
(260,-10,cs),
(420,-10,o),
(465,145,o),
(465,250,cs),
(465,275,ls),
(465,425,o),
(422,510,o),
(315,510,cs)
);
},
{
closed = 1;
nodes = (
(346,435,o),
(365,376,o),
(365,275,cs),
(365,250,ls),
(365,177,o),
(352,75,o),
(260,75,cs),
(225,75,o),
(197,80,o),
(184,83,cs),
(178,84,o),
(175,88,o),
(175,94,cs),
(175,300,ls),
(175,368,o),
(233,435,o),
(290,435,cs)
);
}
);
width = 515;
},
{
hints = (
{
horizontal = 1;
place = (-10,63);
type = Stem;
},
{
horizontal = 1;
place = (435,75);
type = Stem;
},
{
place = (60,95);
type = Stem;
},
{
place = (345,100);
type = Stem;
}
);
layerId = m002;
shapes = (
{
closed = 1;
nodes = (
(198,525,o),
(183,460,o),
(165,460,cs),
(154,460,o),
(151,473,o),
(146,488,cs),
(141,503,o),
(128,515,o),
(109,515,cs),
(62,515,o),
(13,481,o),
(15,429,cs),
(25,224,o),
(25,81,o),
(15,-123,cs),
(11,-184,o),
(65,-225,o),
(124,-225,cs),
(185,-225,o),
(225,-185,o),
(225,-126,cs),
(225,-49,ls),
(225,-33,o),
(234,-24,o),
(251,-25,cs),
(254,-25,o),
(257,-25,o),
(260,-25,cs),
(461,-25,o),
(515,168,o),
(515,250,cs),
(515,275,ls),
(515,408,o),
(459,525,o),
(315,525,cs)
);
},
{
closed = 1;
nodes = (
(310,350,o),
(315,333,o),
(315,275,cs),
(315,250,ls),
(315,215,o),
(308,160,o),
(260,160,cs),
(254,160,o),
(248,160,o),
(242,161,cs),
(231,161,o),
(225,171,o),
(225,186,cs),
(225,265,ls),
(225,314,o),
(256,350,o),
(290,350,cs)
);
}
);
width = 525;
},
{
hints = (
{
horizontal = 1;
place = (-10,63);
type = Stem;
},
{
horizontal = 1;
place = (435,75);
type = Stem;
},
{
place = (60,95);
type = Stem;
},
{
place = (345,100);
type = Stem;
}
);
layerId = m003;
shapes = (
{
closed = 1;
nodes = (
(227,507,o),
(189,442,o),
(165,442,cs),
(151,442,o),
(142,456,o),
(138,476,cs),
(134,494,o),
(129,500,o),
(109,500,cs),
(89,500,o),
(74,492,o),
(75,476,cs),
(85,270,o),
(85,38,o),
(75,-169,cs),
(73,-194,o),
(96,-207,o),
(124,-207,cs),
(153,-207,o),
(165,-195,o),
(165,-168,cs),
(165,-2,ls),
(165,3,o),
(168,6,o),
(173,4,cs),
(190,-1,o),
(222,-7,o),
(260,-7,cs),
(412,-7,o),
(455,139,o),
(455,250,cs),
(455,275,ls),
(455,430,o),
(416,507,o),
(315,507,cs)
);
},
{
closed = 1;
nodes = (
(354,452,o),
(375,386,o),
(375,275,cs),
(375,250,ls),
(375,169,o),
(361,58,o),
(260,58,cs),
(222,58,o),
(189,64,o),
(171,69,cs),
(167,70,o),
(165,73,o),
(165,77,cs),
(165,307,ls),
(165,379,o),
(226,452,o),
(290,452,cs)
);
}
);
width = 515;
}
);
metricLeft = "=n";
metricRight = "=o";
note = p;
unicode = 112;
},
{
export = 0;
glyphname = thorn;
lastChange = "2024-02-03 22:32:44 +0000";
layers = (
{
hints = (
{
horizontal = 1;
place = (-10,70);
type = Stem;
},
{
horizontal = 1;
place = (430,80);
type = Stem;
},
{
place = (60,95);
type = Stem;
},
{
place = (345,100);
type = Stem;
},
{
horizontal = 1;
place = (0,21);
target = up;
type = BottomGhost;
}
);
layerId = m005;
shapes = (
{
closed = 1;
nodes = (
(420,-10,o),
(465,95,o),
(465,200,cs),
(465,300,ls),
(465,450,o),
(422,510,o),
(315,510,cs),
(226,510,o),
(194,461,o),
(185,461,cs),
(176,461,o),
(175,469,o),
(175,500,cs),
(175,710,l),
(75,700,l),
(75,0,l),
(135,0,o),
(173,-10,o),
(260,-10,cs)
);
},
{
closed = 1;
nodes = (
(210,60,o),
(175,70,o),
(175,70,c),
(175,300,ls),
(175,368,o),
(233,435,o),
(290,435,cs),
(346,435,o),
(365,401,o),
(365,300,cs),
(365,200,ls),
(365,127,o),
(352,60,o),
(260,60,cs)
);
},
{
closed = 1;
nodes = (
(75,0,l),
(75,-200,l),
(175,-210,l),
(175,0,l)
);
}
);
width = 515;
},
{
hints = (
{
horizontal = 1;
place = (-10,70);
type = Stem;
},
{
horizontal = 1;
place = (430,80);
type = Stem;
},
{
place = (60,95);
type = Stem;
},
{
place = (345,100);
type = Stem;
},
{
horizontal = 1;
place = (0,21);
target = up;
type = BottomGhost;
}
);
layerId = m002;
shapes = (
{
closed = 1;
nodes = (
(420,-10,o),
(465,95,o),
(465,200,cs),
(465,300,ls),
(465,450,o),
(422,510,o),
(315,510,cs),
(226,510,o),
(194,461,o),
(185,461,cs),
(176,461,o),
(175,469,o),
(175,500,cs),
(175,710,l),
(75,700,l),
(75,0,l),
(135,0,o),
(173,-10,o),
(260,-10,cs)
);
},
{
closed = 1;
nodes = (
(210,60,o),
(175,70,o),
(175,70,c),
(175,300,ls),
(175,368,o),
(233,435,o),
(290,435,cs),
(346,435,o),
(365,401,o),
(365,300,cs),
(365,200,ls),
(365,127,o),
(352,60,o),
(260,60,cs)
);
},
{
closed = 1;
nodes = (
(75,0,l),
(75,-200,l),
(175,-210,l),
(175,0,l)
);
}
);
width = 515;
},
{
hints = (
{
horizontal = 1;
place = (-10,70);
type = Stem;
},
{
horizontal = 1;
place = (430,80);
type = Stem;
},
{
place = (60,95);
type = Stem;
},
{
place = (345,100);
type = Stem;
},
{
horizontal = 1;
place = (0,21);
target = up;
type = BottomGhost;
}
);
layerId = m003;
shapes = (
{
closed = 1;
nodes = (
(420,-10,o),
(465,95,o),
(465,200,cs),
(465,300,ls),
(465,450,o),
(422,510,o),
(315,510,cs),
(226,510,o),
(194,461,o),
(185,461,cs),
(176,461,o),
(175,469,o),
(175,500,cs),
(175,710,l),
(75,700,l),
(75,0,l),
(135,0,o),
(173,-10,o),
(260,-10,cs)
);
},
{
closed = 1;
nodes = (
(210,60,o),
(175,70,o),
(175,70,c),
(175,300,ls),
(175,368,o),
(233,435,o),
(290,435,cs),
(346,435,o),
(365,401,o),
(365,300,cs),
(365,200,ls),
(365,127,o),
(352,60,o),
(260,60,cs)
);
},
{
closed = 1;
nodes = (
(75,0,l),
(75,-200,l),
(175,-210,l),
(175,0,l)
);
}
);
width = 515;
}
);
metricLeft = "=n";
metricRight = "=o";
note = b;
unicode = 254;
},
{
glyphname = q;
kernLeft = o;
lastChange = "2024-03-31 15:57:27 +0000";
layers = (
{
hints = (
{
horizontal = 1;
place = (-10,80);
type = Stem;
},
{
horizontal = 1;
place = (435,75);
type = Stem;
},
{
place = (40,100);
type = Stem;
},
{
place = (330,95);
type = Stem;
}
);
layerId = m005;
shapes = (
{
closed = 1;
nodes = (
(289,-10,o),
(321,39,o),
(330,39,cs),
(339,39,o),
(340,31,o),
(340,0,cs),
(340,-50,o),
(340,-111,o),
(330,-161,cs),
(324,-191,o),
(358,-210,o),
(391,-210,cs),
(422,-210,o),
(452,-192,o),
(450,-161,cs),
(440,32,o),
(440,236,o),
(450,429,cs),
(451,457,o),
(428,475,o),
(402,485,cs),
(363,499,o),
(319,510,o),
(255,510,cs),
(95,510,o),
(50,355,o),
(50,250,cs),
(50,225,ls),
(50,75,o),
(93,-10,o),
(200,-10,cs)
);
},
{
closed = 1;
nodes = (
(169,65,o),
(150,124,o),
(150,225,cs),
(150,250,ls),
(150,323,o),
(163,435,o),
(255,435,cs),
(291,435,o),
(325,430,o),
(341,427,cs),
(347,426,o),
(350,422,o),
(349,416,cs),
(345,344,o),
(340,272,o),
(340,200,cs),
(340,132,o),
(282,65,o),
(225,65,cs)
);
}
);
width = 515;
},
{
hints = (
{
horizontal = 1;
place = (-10,80);
type = Stem;
},
{
horizontal = 1;
place = (435,75);
type = Stem;
},
{
place = (40,100);
type = Stem;
},
{
place = (330,95);
type = Stem;
}
);
layerId = m002;
shapes = (
{
closed = 1;
nodes = (
(235,-25,o),
(257,-23,o),
(272,-19,cs),
(295,-13,o),
(300,-25,o),
(300,-43,cs),
(300,-57,o),
(300,-71,o),
(291,-116,cs),
(278,-181,o),
(339,-225,o),
(401,-225,cs),
(460,-225,o),
(514,-184,o),
(510,-123,cs),
(500,68,o),
(500,200,o),
(510,392,cs),
(512,443,o),
(476,479,o),
(429,497,cs),
(388,512,o),
(336,525,o),
(265,525,cs),
(64,525,o),
(10,367,o),
(10,250,cs),
(10,225,ls),
(10,57,o),
(66,-25,o),
(210,-25,cs)
);
},
{
closed = 1;
nodes = (
(215,150,o),
(210,167,o),
(210,225,cs),
(210,250,ls),
(210,285,o),
(218,350,o),
(265,350,cs),
(272,350,o),
(279,350,o),
(286,349,cs),
(300,349,o),
(306,339,o),
(305,322,cs),
(302,279,o),
(301,257,o),
(300,235,cs),
(298,186,o),
(269,150,o),
(235,150,cs)
);
}
);
width = 525;
},
{
hints = (
{
horizontal = 1;
place = (-10,80);
type = Stem;
},
{
horizontal = 1;
place = (435,75);
type = Stem;
},
{
place = (40,100);
type = Stem;
},
{
place = (330,95);
type = Stem;
}
);
layerId = m003;
shapes = (
{
closed = 1;
nodes = (
(283,-7,o),
(316,42,o),
(330,42,cs),
(346,42,o),
(350,32,o),
(350,-7,cs),
(350,-57,o),
(350,-119,o),
(340,-170,cs),
(335,-193,o),
(361,-207,o),
(391,-207,cs),
(419,-207,o),
(442,-194,o),
(440,-169,cs),
(430,25,o),
(430,243,o),
(440,436,cs),
(441,459,o),
(423,473,o),
(399,483,cs),
(360,496,o),
(318,507,o),
(255,507,cs),
(103,507,o),
(60,354,o),
(60,250,cs),
(60,225,ls),
(60,77,o),
(99,-7,o),
(200,-7,cs)
);
},
{
closed = 1;
nodes = (
(161,48,o),
(140,121,o),
(140,225,cs),
(140,250,ls),
(140,324,o),
(153,452,o),
(255,452,cs),
(292,452,o),
(331,446,o),
(355,441,cs),
(359,440,o),
(361,438,o),
(361,433,cs),
(355,357,o),
(350,275,o),
(350,200,cs),
(350,128,o),
(289,48,o),
(225,48,cs)
);
}
);
width = 515;
}
);
metricLeft = "=o";
metricRight = "=|n";
note = q;
unicode = 113;
},
{
glyphname = r;
kernRight = o;
lastChange = "2024-03-31 21:16:07 +0000";
layers = (
{
hints = (
{
horizontal = 1;
place = (0,21);
target = up;
type = BottomGhost;
},
{
horizontal = 1;
place = (430,80.5);
type = Stem;
},
{
place = (60,95);
type = Stem;
}
);
layerId = m005;
shapes = (
{
closed = 1;
nodes = (
(157,-10,o),
(189,8,o),
(185,39,cs),
(175,123,o),
(175,216,o),
(175,300,cs),
(175,368,o),
(233,435,o),
(290,435,cs),
(301,435,o),
(312,428,o),
(322,421,cs),
(339,409,o),
(367,432,o),
(374,452,cs),
(386,487,o),
(368,505,o),
(346,508,cs),
(336,509,o),
(326,510,o),
(315,510,cs),
(226,510,o),
(180,445,o),
(165,445,cs),
(156,445,o),
(151,457,o),
(148,471,cs),
(143,492,o),
(133,503,o),
(109,503,cs),
(87,503,o),
(63,491,o),
(65,469,cs),
(75,330,o),
(75,178,o),
(65,39,cs),
(63,8,o),
(93,-10,o),
(124,-10,cs)
);
}
);
width = 389;
},
{
hints = (
{
horizontal = 1;
place = (0,21);
target = up;
type = BottomGhost;
},
{
horizontal = 1;
place = (430,80.5);
type = Stem;
},
{
place = (60,95);
type = Stem;
}
);
layerId = m002;
shapes = (
{
closed = 1;
nodes = (
(188,-25,o),
(243,19,o),
(235,80,cs),
(225,161,o),
(225,181,o),
(225,265,cs),
(225,314,o),
(256,350,o),
(290,350,cs),
(286,350,o),
(286,350,o),
(293,345,cs),
(341,311,o),
(405,352,o),
(421,400,cs),
(443,466,o),
(406,516,o),
(352,523,cs),
(342,524,o),
(329,525,o),
(315,525,cs),
(198,525,o),
(151,460,o),
(165,460,cs),
(182,460,o),
(165,482,o),
(157,493,cs),
(147,507,o),
(133,515,o),
(109,515,cs),
(57,515,o),
(10,479,o),
(15,427,cs),
(25,290,o),
(25,215,o),
(15,77,cs),
(11,16,o),
(65,-25,o),
(124,-25,cs)
);
}
);
width = 435;
},
{
hints = (
{
horizontal = 1;
place = (0,21);
target = up;
type = BottomGhost;
},
{
horizontal = 1;
place = (430,80.5);
type = Stem;
},
{
place = (60,95);
type = Stem;
}
);
layerId = m003;
shapes = (
{
closed = 1;
nodes = (
(154,0,o),
(178,13,o),
(175,38,cs),
(165,122,o),
(165,216,o),
(165,300,cs),
(165,372,o),
(226,452,o),
(290,452,cs),
(304,452,o),
(318,443,o),
(328,436,cs),
(339,429,o),
(359,445,o),
(365,462,cs),
(375,491,o),
(363,503,o),
(345,505,cs),
(335,506,o),
(326,507,o),
(315,507,cs),
(227,507,o),
(189,442,o),
(165,442,cs),
(151,442,o),
(142,456,o),
(138,476,cs),
(134,494,o),
(129,500,o),
(109,500,cs),
(89,500,o),
(74,492,o),
(75,477,cs),
(85,337,o),
(85,178,o),
(75,38,cs),
(73,13,o),
(96,0,o),
(124,0,cs)
);
}
);
width = 389;
}
);
metricLeft = "=n";
note = r;
unicode = 114;
},
{
glyphname = s;
lastChange = "2024-03-31 15:56:30 +0000";
layers = (
{
anchors = (
{
name = bottom;
pos = (190,0);
},
{
name = top;
pos = (190,500);
}
);
hints = (
{
horizontal = 1;
place = (-10,80);
type = Stem;
},
{
horizontal = 1;
place = (440,70);
type = Stem;
},
{
place = (40,90);
type = Stem;
},
{
place = (260,100);
type = Stem;
}
);
layerId = m005;
shapes = (
{
closed = 1;
nodes = (
(282,-10,o),
(355,55,o),
(355,155,cs),
(355,242,o),
(296,298,o),
(215,307,cs),
(148,315,o),
(125,338,o),
(125,375,cs),
(125,414,o),
(148,435,o),
(190,435,cs),
(224,435,o),
(252,423,o),
(272,411,cs),
(293,398,o),
(320,418,o),
(326,440,cs),
(332,465,o),
(317,480,o),
(298,488,cs),
(271,498,o),
(231,510,o),
(190,510,cs),
(96,510,o),
(35,457,o),
(35,375,cs),
(35,294,o),
(90,242,o),
(165,233,cs),
(232,225,o),
(255,199,o),
(255,155,cs),
(255,97,o),
(225,75,o),
(170,75,cs),
(127,75,o),
(95,88,o),
(73,100,cs),
(51,112,o),
(24,84,o),
(19,61,cs),
(14,36,o),
(28,20,o),
(48,12,cs),
(75,2,o),
(119,-10,o),
(170,-10,cs)
);
}
);
width = 380;
},
{
anchors = (
{
name = bottom;
pos = (226,0);
},
{
name = top;
pos = (226,500);
}
);
hints = (
{
horizontal = 1;
place = (-10,80);
type = Stem;
},
{
horizontal = 1;
place = (440,70);
type = Stem;
},
{
place = (40,90);
type = Stem;
},
{
place = (260,100);
type = Stem;
}
);
layerId = m002;
shapes = (
{
closed = 1;
nodes = (
(344,-25,o),
(441,31,o),
(441,160,cs),
(441,275,o),
(361,310,o),
(257,322,cs),
(211,327,o),
(211,333,o),
(211,340,cs),
(211,346,o),
(217,350,o),
(226,350,cs),
(250,350,o),
(266,343,o),
(282,333,cs),
(334,301,o),
(400,339,o),
(411,392,cs),
(423,443,o),
(396,481,o),
(353,500,cs),
(324,513,o),
(276,525,o),
(226,525,cs),
(106,525,o),
(21,451,o),
(21,340,cs),
(21,231,o),
(98,230,o),
(195,218,cs),
(223,215,o),
(241,204,o),
(241,190,cs),
(241,172,o),
(227,160,o),
(206,160,cs),
(173,160,o),
(153,168,o),
(133,179,cs),
(78,209,o),
(17,159,o),
(6,106,cs),
(-4,57,o),
(23,17,o),
(66,0,cs),
(96,-11,o),
(148,-25,o),
(206,-25,cs)
);
}
);
width = 446;
},
{
anchors = (
{
name = bottom;
pos = (183,0);
},
{
name = top;
pos = (183,500);
}
);
hints = (
{
horizontal = 1;
place = (-10,80);
type = Stem;
},
{
horizontal = 1;
place = (440,70);
type = Stem;
},
{
place = (40,90);
type = Stem;
},
{
place = (260,100);
type = Stem;
}
);
layerId = m003;
shapes = (
{
closed = 1;
nodes = (
(271,-7,o),
(338,59,o),
(338,155,cs),
(338,238,o),
(285,288,o),
(207,297,cs),
(135,306,o),
(108,337,o),
(108,380,cs),
(108,425,o),
(136,452,o),
(183,452,cs),
(219,452,o),
(250,439,o),
(270,427,cs),
(285,417,o),
(303,431,o),
(309,450,cs),
(315,469,o),
(304,479,o),
(287,486,cs),
(261,496,o),
(223,507,o),
(183,507,cs),
(93,507,o),
(38,457,o),
(38,380,cs),
(38,303,o),
(87,252,o),
(159,243,cs),
(231,234,o),
(258,204,o),
(258,155,cs),
(258,91,o),
(222,58,o),
(163,58,cs),
(118,58,o),
(84,72,o),
(61,84,cs),
(46,93,o),
(26,72,o),
(22,52,cs),
(18,32,o),
(27,21,o),
(45,14,cs),
(71,5,o),
(113,-7,o),
(163,-7,cs)
);
}
);
width = 368;
}
);
metricLeft = "=o/3";
metricRight = "=o/2";
note = s;
unicode = 115;
},
{
glyphname = germandbls;
lastChange = "2024-03-31 15:56:09 +0000";
layers = (
{
hints = (
{
horizontal = 1;
place = (-10,80);
type = Stem;
},
{
horizontal = 1;
place = (440,65);
type = Stem;
},
{
horizontal = 1;
place = (640,60);
type = Stem;
},
{
place = (70,95);
type = Stem;
},
{
place = (220,90);
type = Stem;
},
{
place = (440,100);
type = Stem;
},
{
horizontal = 1;
place = (0,20);
type = Stem;
},
{
place = (375,75);
type = Stem;
}
);
layerId = m005;
shapes = (
{
closed = 1;
nodes = (
(147,-10,o),
(165,8,o),
(165,39,cs),
(165,500,ls),
(165,600,o),
(215,625,o),
(270,625,cs),
(324,625,o),
(375,597,o),
(375,525,c),
(475,525,l),
(475,610,o),
(406,710,o),
(270,710,cs),
(119,710,o),
(65,610,o),
(65,500,cs),
(65,39,ls),
(65,8,o),
(83,-10,o),
(114,-10,cs)
);
},
{
closed = 1;
nodes = (
(492,-10,o),
(540,105,o),
(540,205,cs),
(540,292,o),
(481,393,o),
(400,393,cs),
(333,393,o),
(320,382,o),
(320,375,cs),
(320,332,o),
(475,415,o),
(475,525,c),
(375,525,l),
(375,454,o),
(245,432,o),
(245,350,cs),
(245,308,o),
(300,308,o),
(350,308,cs),
(417,308,o),
(440,249,o),
(440,205,cs),
(440,147,o),
(410,75,o),
(355,75,cs),
(312,75,o),
(280,88,o),
(258,100,cs),
(236,112,o),
(209,84,o),
(204,61,cs),
(199,36,o),
(213,20,o),
(233,12,cs),
(260,2,o),
(304,-10,o),
(355,-10,cs)
);
}
);
width = 565;
},
{
hints = (
{
horizontal = 1;
place = (-10,80);
type = Stem;
},
{
horizontal = 1;
place = (440,65);
type = Stem;
},
{
horizontal = 1;
place = (640,60);
type = Stem;
},
{
place = (70,95);
type = Stem;
},
{
place = (220,90);
type = Stem;
},
{
place = (440,100);
type = Stem;
},
{
horizontal = 1;
place = (0,20);
type = Stem;
},
{
place = (375,75);
type = Stem;
}
);
layerId = m002;
shapes = (
{
closed = 1;
nodes = (
(175,-25,o),
(215,15,o),
(215,74,cs),
(215,465,ls),
(215,534,o),
(302,540,o),
(345,540,cs),
(386,540,o),
(400,522,o),
(400,480,c),
(593,480,l),
(593,546,o),
(538,725,o),
(345,725,cs),
(122,725,o),
(15,595,o),
(15,465,cs),
(15,74,ls),
(15,15,o),
(55,-25,o),
(114,-25,cs)
);
},
{
closed = 1;
nodes = (
(605,-25,o),
(665,124,o),
(665,205,cs),
(665,314,o),
(590,443,o),
(475,443,cs),
(367,443,o),
(345,409,o),
(345,375,cs),
(345,223,o),
(593,333,o),
(593,480,c),
(400,480,l),
(400,399,o),
(270,442,o),
(270,350,cs),
(270,270,o),
(345,258,o),
(425,258,cs),
(458,258,o),
(475,240,o),
(475,205,cs),
(475,192,o),
(465,160,o),
(430,160,cs),
(397,160,o),
(376,168,o),
(357,179,cs),
(302,209,o),
(241,159,o),
(230,106,cs),
(220,57,o),
(247,17,o),
(290,0,cs),
(319,-11,o),
(372,-25,o),
(430,-25,cs)
);
}
);
width = 670;
},
{
hints = (
{
horizontal = 1;
place = (-10,80);
type = Stem;
},
{
horizontal = 1;
place = (440,65);
type = Stem;
},
{
horizontal = 1;
place = (640,60);
type = Stem;
},
{
place = (70,95);
type = Stem;
},
{
place = (220,90);
type = Stem;
},
{
place = (440,100);
type = Stem;
},
{
horizontal = 1;
place = (0,20);
type = Stem;
},
{
place = (375,75);
type = Stem;
}
);
layerId = m003;
shapes = (
{
closed = 1;
nodes = (
(143,-7,o),
(155,5,o),
(155,32,cs),
(155,500,ls),
(155,614,o),
(211,642,o),
(270,642,cs),
(328,642,o),
(385,614,o),
(385,525,c),
(465,525,l),
(465,621,o),
(395,707,o),
(270,707,cs),
(125,707,o),
(75,614,o),
(75,500,cs),
(75,32,ls),
(75,5,o),
(87,-7,o),
(114,-7,cs)
);
},
{
closed = 1;
nodes = (
(485,-7,o),
(530,100,o),
(530,205,cs),
(530,289,o),
(475,383,o),
(400,383,cs),
(337,383,o),
(330,377,o),
(330,375,cs),
(330,350,o),
(465,416,o),
(465,525,c),
(385,525,l),
(385,444,o),
(255,420,o),
(255,350,cs),
(255,318,o),
(300,318,o),
(350,318,cs),
(425,318,o),
(450,252,o),
(450,205,cs),
(450,137,o),
(418,58,o),
(355,58,cs),
(310,58,o),
(276,72,o),
(253,84,cs),
(238,93,o),
(218,72,o),
(214,52,cs),
(210,32,o),
(219,21,o),
(237,14,cs),
(263,5,o),
(305,-7,o),
(355,-7,cs)
);
}
);
width = 560;
}
);
metricLeft = "=n";
metricRight = "=s";
note = germandbls;
unicode = 223;
},
{
glyphname = t;
lastChange = "2024-03-31 21:12:56 +0000";
layers = (
{
anchors = (
{
name = bottom;
pos = (158,0);
},
{
name = center;
pos = (158,250);
},
{
name = top;
pos = (158,500);
},
{
name = topright;
pos = (295,700);
}
);
hints = (
{
horizontal = 1;
place = (-2,62);
type = Stem;
},
{
horizontal = 1;
place = (435,65);
type = Stem;
},
{
place = (80,95);
type = Stem;
}
);
layerId = m005;
shapes = (
{
closed = 1;
nodes = (
(244,-4,o),
(264,9,o),
(264,33,cs),
(264,68,o),
(243,92,o),
(224,90,cs),
(174,85,o),
(164,110,o),
(164,200,cs),
(165,273,o),
(168,345,o),
(171,418,cs),
(172,424,o),
(176,428,o),
(182,427,cs),
(205,425,o),
(228,423,o),
(251,420,cs),
(273,417,o),
(295,442,o),
(295,466,cs),
(295,488,o),
(273,500,o),
(251,500,cs),
(229,500,o),
(206,500,o),
(184,500,cs),
(178,500,o),
(174,504,o),
(174,510,cs),
(175,533,o),
(176,556,o),
(176,579,cs),
(176,612,o),
(158,628,o),
(126,628,cs),
(93,628,o),
(75,610,o),
(75,579,cs),
(75,556,o),
(75,533,o),
(75,510,cs),
(75,504,o),
(71,500,o),
(65,500,cs),
(27,500,o),
(15,488,o),
(15,466,cs),
(15,442,o),
(27,430,o),
(65,430,cs),
(71,430,o),
(75,426,o),
(75,420,cs),
(75,346,o),
(74,274,o),
(64,200,cs),
(50,91,o),
(85,-14,o),
(224,-5,cs)
);
}
);
width = 315;
},
{
anchors = (
{
name = bottom;
pos = (193,0);
},
{
name = center;
pos = (193,250);
},
{
name = top;
pos = (193,500);
},
{
name = topright;
pos = (330,700);
}
);
hints = (
{
horizontal = 1;
place = (-2,62);
type = Stem;
},
{
horizontal = 1;
place = (435,65);
type = Stem;
},
{
place = (80,95);
type = Stem;
}
);
layerId = m002;
shapes = (
{
closed = 1;
nodes = (
(305,-23,o),
(349,9,o),
(349,60,cs),
(349,125,o),
(303,172,o),
(254,167,cs),
(249,166,o),
(249,166,o),
(249,227,cs),
(249,267,o),
(250,256,o),
(252,297,cs),
(253,330,o),
(263,348,o),
(279,346,cs),
(291,344,o),
(304,345,o),
(315,349,cs),
(352,362,o),
(380,399,o),
(380,441,cs),
(380,480,o),
(353,510,o),
(317,520,cs),
(307,523,o),
(297,525,o),
(286,525,cs),
(270,525,o),
(261,536,o),
(261,554,cs),
(261,562,o),
(260,570,o),
(259,577,cs),
(250,625,o),
(213,653,o),
(161,653,cs),
(109,653,o),
(72,624,o),
(63,579,cs),
(61,571,o),
(60,563,o),
(60,554,cs),
(60,532,o),
(45,522,o),
(25,503,cs),
(9,489,o),
(0,467,o),
(0,441,cs),
(0,413,o),
(9,392,o),
(25,377,cs),
(45,358,o),
(60,345,o),
(59,317,cs),
(58,272,o),
(55,279,o),
(49,233,cs),
(33,104,o),
(82,-37,o),
(262,-25,cs)
);
}
);
width = 380;
},
{
anchors = (
{
name = bottom;
pos = (158,0);
},
{
name = center;
pos = (158,250);
},
{
name = top;
pos = (158,500);
},
{
name = topright;
pos = (295,700);
}
);
hints = (
{
horizontal = 1;
place = (-2,62);
type = Stem;
},
{
horizontal = 1;
place = (435,65);
type = Stem;
},
{
place = (80,95);
type = Stem;
}
);
layerId = m003;
shapes = (
{
closed = 1;
nodes = (
(241,-2,o),
(254,6,o),
(254,22,cs),
(254,53,o),
(239,71,o),
(225,69,cs),
(167,63,o),
(154,95,o),
(154,189,cs),
(155,262,o),
(158,356,o),
(161,429,c),
(163,441,o),
(172,449,o),
(183,447,cs),
(206,445,o),
(229,443,o),
(252,440,cs),
(269,438,o),
(285,456,o),
(285,474,cs),
(285,492,o),
(270,500,o),
(251,500,cs),
(229,500,o),
(206,500,o),
(184,500,cs),
(172,500,o),
(164,508,o),
(164,520,cs),
(165,543,o),
(166,566,o),
(166,589,cs),
(166,615,o),
(154,625,o),
(126,625,cs),
(97,625,o),
(85,613,o),
(85,589,cs),
(85,566,o),
(85,543,o),
(85,520,cs),
(85,508,o),
(77,500,o),
(65,500,cs),
(31,500,o),
(25,494,o),
(25,474,cs),
(25,456,o),
(31,450,o),
(65,450,cs),
(77,450,o),
(85,442,o),
(85,430,cs),
(85,356,o),
(84,262,o),
(74,188,cs),
(60,81,o),
(92,-12,o),
(223,-3,cs)
);
}
);
width = 315;
}
);
note = t;
unicode = 116;
},
{
glyphname = u;
lastChange = "2024-03-31 15:55:18 +0000";
layers = (
{
anchors = (
{
name = bottom;
pos = (270,0);
},
{
name = ogonek;
pos = (474,10);
},
{
name = top;
pos = (270,500);
},
{
name = topright;
pos = (505,500);
}
);
hints = (
{
horizontal = 1;
place = (-10,80);
type = Stem;
},
{
place = (60,100);
type = Stem;
},
{
place = (350,95);
type = Stem;
},
{
horizontal = 1;
place = (0,21);
target = up;
type = BottomGhost;
}
);
layerId = m005;
shapes = (
{
closed = 1;
nodes = (
(455,124,o),
(465,322,o),
(475,461,cs),
(477,492,o),
(447,510,o),
(414,510,cs),
(383,510,o),
(365,492,o),
(365,461,cs),
(365,377,o),
(365,284,o),
(365,200,cs),
(365,132,o),
(307,75,o),
(250,75,cs),
(194,75,o),
(175,99,o),
(175,200,cs),
(175,284,o),
(175,377,o),
(185,461,cs),
(189,492,o),
(157,510,o),
(124,510,cs),
(93,510,o),
(61,492,o),
(65,461,cs),
(75,377,o),
(75,284,o),
(75,200,cs),
(75,50,o),
(118,-10,o),
(225,-10,cs),
(314,-10,o),
(360,55,o),
(375,55,cs),
(384,55,o),
(389,46,o),
(392,32,cs),
(397,11,o),
(407,-5,o),
(431,-5,cs),
(463,-5,o),
(480,12,o),
(475,34,cs)
);
}
);
width = 541;
},
{
anchors = (
{
name = bottom;
pos = (270,0);
},
{
name = ogonek;
pos = (474,10);
},
{
name = top;
pos = (270,500);
},
{
name = topright;
pos = (505,500);
}
);
hints = (
{
horizontal = 1;
place = (-10,80);
type = Stem;
},
{
place = (60,100);
type = Stem;
},
{
place = (350,95);
type = Stem;
},
{
horizontal = 1;
place = (0,21);
target = up;
type = BottomGhost;
}
);
layerId = m002;
shapes = (
{
closed = 1;
nodes = (
(505,163,o),
(515,284,o),
(525,423,cs),
(529,484,o),
(475,525,o),
(414,525,cs),
(355,525,o),
(315,485,o),
(315,426,cs),
(315,342,o),
(315,319,o),
(315,235,cs),
(315,188,o),
(287,160,o),
(250,160,cs),
(231,160,o),
(225,179,o),
(225,235,cs),
(225,319,o),
(225,339,o),
(235,420,cs),
(243,481,o),
(188,525,o),
(124,525,cs),
(62,525,o),
(7,481,o),
(15,420,cs),
(25,339,o),
(25,319,o),
(25,235,cs),
(25,61,o),
(86,-25,o),
(225,-25,cs),
(342,-25,o),
(396,40,o),
(375,40,cs),
(384,40,o),
(339,68,o),
(343,56,cs),
(355,8,o),
(386,-20,o),
(431,-20,cs),
(496,-20,o),
(536,27,o),
(524,80,cs)
);
}
);
width = 541;
},
{
anchors = (
{
name = bottom;
pos = (270,0);
},
{
name = ogonek;
pos = (474,10);
},
{
name = top;
pos = (270,500);
},
{
name = topright;
pos = (505,500);
}
);
hints = (
{
horizontal = 1;
place = (-10,80);
type = Stem;
},
{
place = (60,100);
type = Stem;
},
{
place = (350,95);
type = Stem;
},
{
horizontal = 1;
place = (0,21);
target = up;
type = BottomGhost;
}
);
layerId = m003;
shapes = (
{
closed = 1;
nodes = (
(445,116,o),
(455,330,o),
(465,469,cs),
(467,494,o),
(444,507,o),
(414,507,cs),
(387,507,o),
(375,495,o),
(375,468,cs),
(375,384,o),
(375,284,o),
(375,200,cs),
(375,127,o),
(313,58,o),
(250,58,cs),
(188,58,o),
(165,92,o),
(165,200,cs),
(165,284,o),
(165,385,o),
(175,469,cs),
(178,494,o),
(154,507,o),
(124,507,cs),
(96,507,o),
(72,494,o),
(75,469,cs),
(85,385,o),
(85,284,o),
(85,200,cs),
(85,53,o),
(123,-7,o),
(225,-7,cs),
(313,-7,o),
(351,58,o),
(375,58,cs),
(389,58,o),
(398,47,o),
(402,27,cs),
(406,8,o),
(413,-2,o),
(431,-2,cs),
(459,-2,o),
(469,8,o),
(465,25,cs)
);
}
);
width = 541;
}
);
metricLeft = "=|n";
metricRight = "=|n";
note = u;
unicode = 117;
},
{
glyphname = v;
kernLeft = v;
kernRight = v;
lastChange = "2024-03-31 15:54:48 +0000";
layers = (
{
hints = (
{
horizontal = 1;
place = (0,21);
target = up;
type = BottomGhost;
},
{
place = (10,450);
type = Stem;
},
{
horizontal = 1;
place = (0,100);
type = Stem;
}
);
layerId = m005;
shapes = (
{
closed = 1;
nodes = (
(276,-5,o),
(296,7,o),
(309,40,cs),
(364,179,o),
(403,321,o),
(440,457,cs),
(449,490,o),
(420,510,o),
(386,510,cs),
(385,510,ls),
(355,510,o),
(338,495,o),
(333,465,cs),
(314,352,o),
(292,229,o),
(242,115,cs),
(238,107,o),
(232,107,o),
(228,115,cs),
(178,229,o),
(156,352,o),
(137,465,cs),
(132,495,o),
(115,510,o),
(80,510,cs),
(49,510,o),
(21,489,o),
(30,457,cs),
(67,321,o),
(106,179,o),
(161,40,cs),
(174,7,o),
(194,-5,o),
(224,-5,cs)
);
}
);
width = 470;
},
{
hints = (
{
horizontal = 1;
place = (0,21);
target = up;
type = BottomGhost;
},
{
place = (10,450);
type = Stem;
},
{
horizontal = 1;
place = (0,100);
type = Stem;
}
);
layerId = m002;
shapes = (
{
closed = 1;
nodes = (
(323,-25,o),
(362,0,o),
(383,52,cs),
(438,193,o),
(478,273,o),
(515,409,cs),
(534,476,o),
(477,525,o),
(413,525,cs),
(412,525,ls),
(358,525,o),
(322,492,o),
(311,438,cs),
(297,370,o),
(286,328,o),
(269,266,cs),
(266,256,o),
(258,256,o),
(255,266,cs),
(238,328,o),
(227,370,o),
(213,438,cs),
(202,492,o),
(166,525,o),
(107,525,cs),
(44,525,o),
(-10,474,o),
(9,409,cs),
(46,273,o),
(86,193,o),
(141,52,cs),
(162,0,o),
(201,-25,o),
(251,-25,cs)
);
}
);
width = 524;
},
{
hints = (
{
horizontal = 1;
place = (0,21);
target = up;
type = BottomGhost;
},
{
place = (10,450);
type = Stem;
},
{
horizontal = 1;
place = (0,100);
type = Stem;
}
);
layerId = m003;
shapes = (
{
closed = 1;
nodes = (
(273,-3,o),
(288,6,o),
(300,36,cs),
(355,174,o),
(393,331,o),
(430,467,cs),
(437,493,o),
(417,507,o),
(386,507,cs),
(385,507,ls),
(359,507,o),
(347,497,o),
(343,470,cs),
(323,349,o),
(298,201,o),
(240,79,cs),
(237,73,o),
(233,73,o),
(230,79,cs),
(172,201,o),
(147,349,o),
(127,470,cs),
(123,497,o),
(111,507,o),
(80,507,cs),
(52,507,o),
(32,492,o),
(40,467,cs),
(77,331,o),
(115,174,o),
(170,36,cs),
(182,6,o),
(197,-3,o),
(224,-3,cs)
);
}
);
width = 470;
}
);
note = v;
unicode = 118;
},
{
glyphname = w;
kernLeft = v;
kernRight = v;
lastChange = "2024-03-31 15:54:04 +0000";
layers = (
{
anchors = (
{
name = bottom;
pos = (340,0);
},
{
name = top;
pos = (340,500);
}
);
hints = (
{
horizontal = 1;
place = (0,100);
type = Stem;
},
{
place = (30,620);
type = Stem;
}
);
layerId = m005;
shapes = (
{
closed = 1;
nodes = (
(251,-5,o),
(270,8,o),
(278,35,cs),
(306,127,o),
(321,221,o),
(335,314,cs),
(336,324,o),
(344,324,o),
(345,314,cs),
(359,221,o),
(374,127,o),
(402,35,cs),
(410,8,o),
(429,-5,o),
(483,-5,cs),
(511,-5,o),
(541,8,o),
(548,35,cs),
(582,171,o),
(613,321,o),
(650,457,cs),
(659,489,o),
(630,510,o),
(596,510,cs),
(595,510,ls),
(565,510,o),
(548,495,o),
(543,465,cs),
(524,355,o),
(506,236,o),
(477,124,cs),
(474,115,o),
(466,115,o),
(463,124,cs),
(434,236,o),
(416,355,o),
(397,465,cs),
(392,495,o),
(375,510,o),
(335,510,cs),
(305,510,o),
(288,495,o),
(283,465,cs),
(264,355,o),
(246,236,o),
(217,124,cs),
(214,115,o),
(206,115,o),
(203,124,cs),
(174,236,o),
(156,355,o),
(137,465,cs),
(132,495,o),
(115,510,o),
(80,510,cs),
(49,510,o),
(21,489,o),
(30,457,cs),
(67,321,o),
(98,171,o),
(132,35,cs),
(139,8,o),
(169,-5,o),
(197,-5,cs)
);
}
);
width = 680;
},
{
anchors = (
{
name = bottom;
pos = (367,0);
},
{
name = top;
pos = (367,500);
}
);
hints = (
{
horizontal = 1;
place = (0,100);
type = Stem;
},
{
place = (30,620);
type = Stem;
}
);
layerId = m002;
shapes = (
{
closed = 1;
nodes = (
(300,-25,o),
(339,3,o),
(353,51,cs),
(356,60,o),
(358,69,o),
(361,78,cs),
(364,87,o),
(370,87,o),
(373,78,cs),
(376,69,o),
(378,60,o),
(381,51,cs),
(395,3,o),
(434,-25,o),
(510,-25,cs),
(563,-25,o),
(611,4,o),
(623,53,cs),
(658,190,o),
(689,274,o),
(725,409,cs),
(743,472,o),
(691,525,o),
(623,525,cs),
(622,525,ls),
(568,525,o),
(530,492,o),
(521,438,cs),
(515,402,o),
(511,387,o),
(504,359,cs),
(501,349,o),
(493,349,o),
(490,359,cs),
(483,387,o),
(479,402,o),
(473,438,cs),
(464,492,o),
(426,525,o),
(362,525,cs),
(307,525,o),
(270,492,o),
(261,438,cs),
(255,402,o),
(251,387,o),
(244,359,cs),
(241,349,o),
(233,349,o),
(230,359,cs),
(223,387,o),
(219,402,o),
(213,438,cs),
(204,492,o),
(166,525,o),
(107,525,cs),
(44,525,o),
(-10,474,o),
(9,409,cs),
(45,274,o),
(76,190,o),
(111,53,cs),
(123,4,o),
(171,-25,o),
(224,-25,cs)
);
}
);
width = 734;
},
{
anchors = (
{
name = bottom;
pos = (340,0);
},
{
name = top;
pos = (340,500);
}
);
hints = (
{
horizontal = 1;
place = (0,100);
type = Stem;
},
{
place = (30,620);
type = Stem;
}
);
layerId = m003;
shapes = (
{
closed = 1;
nodes = (
(248,-2,o),
(261,7,o),
(268,31,cs),
(303,146,o),
(318,271,o),
(336,392,cs),
(337,398,o),
(343,398,o),
(344,392,cs),
(362,271,o),
(377,146,o),
(412,31,cs),
(419,7,o),
(432,-2,o),
(483,-2,cs),
(509,-2,o),
(533,8,o),
(538,30,cs),
(572,166,o),
(603,330,o),
(640,467,cs),
(647,492,o),
(627,507,o),
(596,507,cs),
(595,507,ls),
(569,507,o),
(557,497,o),
(553,470,cs),
(532,346,o),
(511,197,o),
(475,72,cs),
(473,66,o),
(467,66,o),
(465,72,cs),
(429,197,o),
(408,346,o),
(387,470,cs),
(383,497,o),
(371,507,o),
(335,507,cs),
(309,507,o),
(297,497,o),
(293,470,cs),
(272,346,o),
(251,197,o),
(215,72,cs),
(213,66,o),
(207,66,o),
(205,72,cs),
(169,197,o),
(148,346,o),
(127,470,cs),
(123,497,o),
(111,507,o),
(80,507,cs),
(52,507,o),
(32,492,o),
(40,467,cs),
(77,330,o),
(108,166,o),
(142,30,cs),
(147,8,o),
(171,-2,o),
(197,-2,cs)
);
}
);
width = 680;
}
);
metricLeft = "=v";
metricRight = "=v";
note = w;
unicode = 119;
},
{
glyphname = x;
lastChange = "2024-03-31 15:53:22 +0000";
layers = (
{
hints = (
{
horizontal = 1;
place = (0,21);
target = up;
type = BottomGhost;
},
{
place = (40,390);
type = Stem;
}
);
layerId = m005;
shapes = (
{
closed = 1;
nodes = (
(108,-5,o),
(130,12,o),
(136,39,cs),
(146,89,o),
(172,140,o),
(210,191,cs),
(214,197,o),
(220,197,o),
(224,191,cs),
(262,140,o),
(288,89,o),
(298,39,cs),
(304,12,o),
(326,-5,o),
(364,-5,cs),
(402,-5,o),
(413,23,o),
(398,57,cs),
(369,122,o),
(331,190,o),
(278,253,cs),
(274,258,o),
(274,262,o),
(278,267,cs),
(330,329,o),
(362,389,o),
(398,448,cs),
(417,480,o),
(388,505,o),
(354,505,cs),
(326,505,o),
(308,492,o),
(298,465,cs),
(281,418,o),
(261,369,o),
(224,319,cs),
(220,314,o),
(214,314,o),
(210,319,cs),
(173,369,o),
(153,418,o),
(136,465,cs),
(126,492,o),
(108,505,o),
(72,505,cs),
(43,505,o),
(17,479,o),
(37,448,cs),
(76,389,o),
(114,329,o),
(166,267,cs),
(170,262,o),
(170,258,o),
(166,253,cs),
(111,187,o),
(65,116,o),
(33,49,cs),
(19,20,o),
(36,-5,o),
(70,-5,cs)
);
}
);
width = 433;
},
{
hints = (
{
horizontal = 1;
place = (0,21);
target = up;
type = BottomGhost;
},
{
place = (40,390);
type = Stem;
}
);
layerId = m002;
shapes = (
{
closed = 1;
nodes = (
(158,-25,o),
(201,8,o),
(212,58,cs),
(217,82,o),
(225,105,o),
(237,128,cs),
(241,135,o),
(247,135,o),
(251,128,cs),
(263,105,o),
(271,82,o),
(276,58,cs),
(287,8,o),
(330,-25,o),
(391,-25,cs),
(464,-25,o),
(501,38,o),
(471,107,cs),
(446,162,o),
(414,206,o),
(373,253,cs),
(369,258,o),
(369,262,o),
(373,267,cs),
(411,311,o),
(440,345,o),
(468,392,cs),
(506,457,o),
(456,525,o),
(381,525,cs),
(332,525,o),
(295,499,o),
(278,452,cs),
(270,430,o),
(261,407,o),
(251,386,cs),
(247,378,o),
(241,378,o),
(237,386,cs),
(226,407,o),
(218,429,o),
(210,452,cs),
(193,499,o),
(156,525,o),
(99,525,cs),
(30,525,o),
(-20,455,o),
(22,391,cs),
(52,344,o),
(84,309,o),
(124,267,cs),
(129,262,o),
(129,258,o),
(125,253,cs),
(80,203,o),
(42,158,o),
(15,101,cs),
(-15,39,o),
(26,-25,o),
(97,-25,cs)
);
}
);
width = 487;
},
{
hints = (
{
horizontal = 1;
place = (0,21);
target = up;
type = BottomGhost;
},
{
place = (40,390);
type = Stem;
}
);
layerId = m003;
shapes = (
{
closed = 1;
nodes = (
(105,-2,o),
(121,11,o),
(126,34,cs),
(138,90,o),
(168,153,o),
(212,210,cs),
(215,214,o),
(219,214,o),
(222,210,cs),
(266,153,o),
(296,90,o),
(308,34,cs),
(313,11,o),
(329,-2,o),
(364,-2,cs),
(395,-2,o),
(402,16,o),
(389,46,cs),
(361,109,o),
(323,193,o),
(271,255,cs),
(268,258,o),
(268,262,o),
(271,265,cs),
(322,326,o),
(354,402,o),
(389,460,cs),
(404,485,o),
(384,502,o),
(354,502,cs),
(329,502,o),
(316,493,o),
(307,469,cs),
(289,417,o),
(266,356,o),
(222,300,cs),
(219,296,o),
(215,296,o),
(212,300,cs),
(168,356,o),
(145,417,o),
(127,469,cs),
(118,493,o),
(105,502,o),
(72,502,cs),
(47,502,o),
(30,485,o),
(45,460,cs),
(84,403,o),
(122,326,o),
(173,265,cs),
(176,262,o),
(176,258,o),
(173,255,cs),
(118,189,o),
(73,103,o),
(42,38,cs),
(31,14,o),
(41,-2,o),
(70,-2,cs)
);
}
);
width = 434;
}
);
metricLeft = "=v";
metricRight = "=v";
note = x;
unicode = 120;
},
{
glyphname = y;
kernLeft = v;
kernRight = v;
lastChange = "2024-03-31 15:52:57 +0000";
layers = (
{
anchors = (
{
name = bottom;
pos = (230,0);
},
{
name = top;
pos = (230,500);
}
);
hints = (
{
horizontal = 1;
place = (-200,60);
type = Stem;
},
{
place = (10,450);
type = Stem;
}
);
layerId = m005;
shapes = (
{
closed = 1;
nodes = (
(167,-205,o),
(217,-155,o),
(290,0,cs),
(363,149,o),
(400,308,o),
(430,457,cs),
(436,490,o),
(420,510,o),
(385,510,cs),
(355,510,o),
(326,495,o),
(323,465,cs),
(313,352,o),
(292,229,o),
(242,115,cs),
(238,107,o),
(232,107,o),
(228,115,cs),
(178,229,o),
(156,352,o),
(137,465,cs),
(132,495,o),
(115,510,o),
(80,510,cs),
(49,510,o),
(22,490,o),
(31,457,cs),
(71,310,o),
(116,154,o),
(187,7,cs),
(189,2,o),
(189,-2,o),
(187,-7,cs),
(143,-103,o),
(120,-125,o),
(90,-125,cs),
(71,-125,o),
(50,-137,o),
(50,-169,cs),
(50,-171,ls),
(50,-193,o),
(71,-205,o),
(90,-205,cs)
);
}
);
width = 459;
},
{
anchors = (
{
name = bottom;
pos = (243,0);
},
{
name = top;
pos = (243,500);
}
);
hints = (
{
horizontal = 1;
place = (-200,60);
type = Stem;
},
{
place = (10,450);
type = Stem;
}
);
layerId = m002;
shapes = (
{
closed = 1;
nodes = (
(206,-225,o),
(272,-140,o),
(321,-20,cs),
(393,142,o),
(447,253,o),
(479,413,cs),
(491,477,o),
(451,525,o),
(385,525,cs),
(323,525,o),
(278,486,o),
(273,435,cs),
(268,368,o),
(258,328,o),
(241,267,cs),
(239,257,o),
(231,257,o),
(228,267,cs),
(210,329,o),
(198,370,o),
(186,438,cs),
(177,492,o),
(139,525,o),
(80,525,cs),
(16,525,o),
(-35,474,o),
(-17,409,cs),
(20,269,o),
(64,168,o),
(130,37,cs),
(136,24,o),
(136,14,o),
(128,0,cs),
(101,-43,o),
(99,-45,o),
(90,-45,cs),
(43,-45,o),
(0,-79,o),
(0,-139,cs),
(0,-141,ls),
(0,-191,o),
(43,-225,o),
(90,-225,cs)
);
}
);
width = 486;
},
{
anchors = (
{
name = bottom;
pos = (230,0);
},
{
name = top;
pos = (230,500);
}
);
hints = (
{
horizontal = 1;
place = (-200,60);
type = Stem;
},
{
place = (10,450);
type = Stem;
}
);
layerId = m003;
shapes = (
{
closed = 1;
nodes = (
(161,-202,o),
(206,-149,o),
(274,0,cs),
(344,146,o),
(391,319,o),
(420,466,cs),
(425,494,o),
(415,507,o),
(385,507,cs),
(357,507,o),
(335,496,o),
(333,471,cs),
(322,349,o),
(298,209,o),
(240,87,cs),
(237,81,o),
(233,81,o),
(230,87,cs),
(172,209,o),
(147,349,o),
(127,470,cs),
(123,497,o),
(111,507,o),
(80,507,cs),
(52,507,o),
(33,493,o),
(41,467,cs),
(81,322,o),
(124,151,o),
(194,5,cs),
(195,1,o),
(195,-1,o),
(194,-5,cs),
(150,-108,o),
(125,-142,o),
(90,-142,cs),
(74,-142,o),
(60,-150,o),
(60,-176,cs),
(60,-178,ls),
(60,-194,o),
(74,-202,o),
(90,-202,cs)
);
}
);
width = 460;
}
);
metricRight = "=v";
note = y;
unicode = 121;
},
{
glyphname = z;
lastChange = "2024-03-31 15:52:30 +0000";
layers = (
{
anchors = (
{
name = bottom;
pos = (210,0);
},
{
name = center;
pos = (210,250);
},
{
name = top;
pos = (210,500);
}
);
hints = (
{
horizontal = 1;
place = (0,70);
type = Stem;
},
{
horizontal = 1;
place = (430,70);
type = Stem;
},
{
place = (40,350);
type = Stem;
}
);
layerId = m005;
shapes = (
{
closed = 1;
nodes = (
(196,216,o),
(299,333,o),
(381,458,cs),
(397,482,o),
(374,500,o),
(346,500,cs),
(84,500,ls),
(62,500,o),
(50,488,o),
(50,464,cs),
(50,442,o),
(62,416,o),
(84,420,cs),
(138,429,o),
(192,430,o),
(246,430,cs),
(254,430,o),
(257,425,o),
(252,418,cs),
(183,309,o),
(101,199,o),
(42,90,cs),
(27,61,o),
(25,54,o),
(25,34,cs),
(25,12,o),
(47,0,o),
(69,0,cs),
(351,0,ls),
(373,0,o),
(395,12,o),
(395,34,cs),
(395,68,o),
(373,93,o),
(351,90,cs),
(286,81,o),
(214,80,o),
(148,80,cs),
(140,80,o),
(137,85,o),
(140,92,cs)
);
}
);
width = 420;
},
{
anchors = (
{
name = bottom;
pos = (240,0);
},
{
name = center;
pos = (240,250);
},
{
name = top;
pos = (240,500);
}
);
hints = (
{
horizontal = 1;
place = (0,70);
type = Stem;
},
{
horizontal = 1;
place = (430,70);
type = Stem;
},
{
place = (40,350);
type = Stem;
}
);
layerId = m002;
shapes = (
{
closed = 1;
nodes = (
(312,259,o),
(387,304,o),
(453,380,cs),
(499,433,o),
(445,500,o),
(376,500,cs),
(114,500,ls),
(64,500,o),
(30,466,o),
(30,414,cs),
(30,364,o),
(66,310,o),
(123,321,cs),
(141,324,o),
(159,326,o),
(178,327,cs),
(187,328,o),
(190,321,o),
(184,314,cs),
(130,261,o),
(72,223,o),
(28,164,cs),
(19,151,o),
(5,116,o),
(5,84,cs),
(5,34,o),
(49,0,o),
(99,0,cs),
(381,0,ls),
(431,0,o),
(475,34,o),
(475,84,cs),
(475,149,o),
(427,197,o),
(374,190,cs),
(339,185,o),
(301,182,o),
(262,181,cs),
(254,181,o),
(251,187,o),
(256,194,cs)
);
}
);
width = 480;
},
{
anchors = (
{
name = bottom;
pos = (205,0);
},
{
name = center;
pos = (205,250);
},
{
name = top;
pos = (205,500);
}
);
hints = (
{
horizontal = 1;
place = (0,70);
type = Stem;
},
{
horizontal = 1;
place = (430,70);
type = Stem;
},
{
place = (40,350);
type = Stem;
}
);
layerId = m003;
shapes = (
{
closed = 1;
nodes = (
(173,202,o),
(282,344,o),
(368,474,cs),
(379,490,o),
(366,500,o),
(341,500,cs),
(79,500,ls),
(61,500,o),
(55,494,o),
(55,474,cs),
(55,454,o),
(63,437,o),
(77,440,cs),
(140,450,o),
(201,450,o),
(263,450,cs),
(269,450,o),
(271,446,o),
(268,442,cs),
(196,325,o),
(108,190,o),
(46,75,cs),
(37,59,o),
(30,42,o),
(30,24,cs),
(30,8,o),
(45,0,o),
(64,0,cs),
(346,0,ls),
(365,0,o),
(380,8,o),
(380,24,cs),
(380,54,o),
(364,72,o),
(347,70,cs),
(276,59,o),
(194,60,o),
(124,60,cs),
(119,60,o),
(116,63,o),
(118,68,cs)
);
}
);
width = 410;
}
);
metricLeft = "=o/2";
metricRight = "=o/2";
note = z;
unicode = 122;
},
{
glyphname = zero;
lastChange = "2024-03-31 17:15:14 +0000";
layers = (
{
hints = (
{
horizontal = 1;
place = (-10,80);
type = Stem;
},
{
horizontal = 1;
place = (597,80);
type = Stem;
},
{
place = (35,110);
type = Stem;
},
{
place = (425,110);
type = Stem;
}
);
layerId = m005;
shapes = (
{
closed = 1;
nodes = (
(515,510,o),
(439,620,o),
(285,610,cs),
(131,600,o),
(45,510,o),
(45,300,cs),
(45,90,o),
(131,-10,o),
(285,-10,cs),
(439,-10,o),
(535,90,o),
(525,300,cs)
);
},
{
closed = 1;
nodes = (
(145,466,o),
(190,520,o),
(285,530,cs),
(379,540,o),
(425,466,o),
(425,300,cs),
(425,134,o),
(380,90,o),
(285,80,cs),
(191,70,o),
(145,134,o),
(145,300,cs)
);
}
);
width = 570;
},
{
hints = (
{
horizontal = 1;
place = (-10,80);
type = Stem;
},
{
horizontal = 1;
place = (597,80);
type = Stem;
},
{
place = (35,110);
type = Stem;
},
{
place = (425,110);
type = Stem;
}
);
layerId = m002;
shapes = (
{
closed = 1;
nodes = (
(562,474,o),
(469,611,o),
(282,599,cs),
(102,587,o),
(-5,476,o),
(-5,300,cs),
(-5,98,o),
(102,-25,o),
(285,-25,cs),
(467,-25,o),
(590,98,o),
(575,302,cs)
);
},
{
closed = 1;
nodes = (
(195,357,o),
(215,411,o),
(290,419,cs),
(353,426,o),
(375,361,o),
(375,300,cs),
(375,220,o),
(357,173,o),
(280,165,cs),
(215,158,o),
(195,215,o),
(195,300,cs)
);
}
);
width = 570;
},
{
hints = (
{
horizontal = 1;
place = (-10,80);
type = Stem;
},
{
horizontal = 1;
place = (597,80);
type = Stem;
},
{
place = (35,110);
type = Stem;
},
{
place = (425,110);
type = Stem;
}
);
layerId = m003;
shapes = (
{
closed = 1;
nodes = (
(505,514,o),
(434,617,o),
(286,607,cs),
(136,597,o),
(55,513,o),
(55,300,cs),
(55,87,o),
(136,-7,o),
(285,-7,cs),
(435,-7,o),
(525,87,o),
(515,300,cs)
);
},
{
closed = 1;
nodes = (
(135,478,o),
(184,536,o),
(284,547,cs),
(385,558,o),
(435,478,o),
(435,300,cs),
(435,120,o),
(385,73,o),
(286,63,cs),
(186,52,o),
(135,120,o),
(135,300,cs)
);
}
);
width = 570;
}
);
note = O;
unicode = 48;
},
{
glyphname = one;
lastChange = "2024-03-31 17:21:10 +0000";
layers = (
{
hints = (
{
horizontal = 1;
place = (0,70);
type = Stem;
},
{
place = (177,107);
type = Stem;
}
);
layerId = m005;
shapes = (
{
closed = 1;
nodes = (
(162,-4,o),
(234,0,o),
(326,0,cs),
(350,0,o),
(373,3,o),
(373,37,cs),
(373,72,o),
(349,89,o),
(326,85,cs),
(300,81,o),
(274,76,o),
(248,75,cs),
(242,75,o),
(238,79,o),
(238,85,cs),
(248,560,ls),
(249,608,o),
(205,607,o),
(172,583,cs),
(134,555,o),
(95,538,o),
(46,526,cs),
(24,521,o),
(13,509,o),
(13,487,cs),
(13,465,o),
(27,435,o),
(51,435,cs),
(75,435,o),
(102,452,o),
(126,465,cs),
(133,469,o),
(138,465,o),
(138,458,cs),
(138,85,ls),
(138,79,o),
(134,75,o),
(128,75,cs),
(50,75,ls),
(26,75,o),
(13,62,o),
(13,38,cs),
(13,13,o),
(26,-13,o),
(70,-10,cs)
);
}
);
width = 386;
},
{
hints = (
{
horizontal = 1;
place = (0,70);
type = Stem;
},
{
place = (177,107);
type = Stem;
}
);
layerId = m002;
shapes = (
{
closed = 1;
nodes = (
(215,-4,o),
(285,0,o),
(376,0,cs),
(431,0,o),
(473,27,o),
(473,87,cs),
(473,153,o),
(422,184,o),
(367,184,cs),
(365,184,o),
(364,184,o),
(362,184,cs),
(345,184,o),
(340,189,o),
(340,207,cs),
(348,514,ls),
(350,600,o),
(264,631,o),
(192,578,cs),
(159,554,o),
(129,541,o),
(85,530,cs),
(40,520,o),
(13,487,o),
(13,442,cs),
(13,391,o),
(48,340,o),
(101,340,cs),
(107,340,o),
(114,340,o),
(120,341,cs),
(131,343,o),
(138,336,o),
(138,319,cs),
(138,200,ls),
(138,184,o),
(129,175,o),
(113,175,cs),
(100,175,ls),
(48,175,o),
(13,140,o),
(13,88,cs),
(13,34,o),
(50,-15,o),
(123,-10,cs)
);
}
);
width = 470;
},
{
hints = (
{
horizontal = 1;
place = (0,70);
type = Stem;
},
{
place = (177,107);
type = Stem;
}
);
layerId = m003;
shapes = (
{
closed = 1;
nodes = (
(143,-4,o),
(216,0,o),
(308,0,cs),
(331,0,o),
(345,2,o),
(345,27,cs),
(345,57,o),
(329,68,o),
(310,65,cs),
(279,60,o),
(248,55,o),
(217,55,cs),
(212,55,o),
(210,58,o),
(210,62,cs),
(220,570,ls),
(221,608,o),
(190,607,o),
(160,585,cs),
(121,556,o),
(80,538,o),
(30,526,cs),
(11,522,o),
(5,515,o),
(5,497,cs),
(5,477,o),
(15,455,o),
(33,455,cs),
(60,455,o),
(94,480,o),
(122,493,cs),
(127,495,o),
(130,492,o),
(130,487,cs),
(130,62,ls),
(130,58,o),
(127,55,o),
(123,55,cs),
(32,55,ls),
(12,55,o),
(5,48,o),
(5,28,cs),
(5,5,o),
(14,-13,o),
(51,-10,cs)
);
}
);
width = 362;
}
);
metricLeft = "=H/2";
metricRight = "=O/3";
note = one;
unicode = 49;
},
{
glyphname = two;
lastChange = "2024-03-31 17:26:21 +0000";
layers = (
{
hints = (
{
horizontal = 1;
place = (0,70);
type = Stem;
},
{
horizontal = 1;
place = (535,75);
type = Stem;
},
{
place = (14,118);
type = Stem;
},
{
place = (342,122);
type = Stem;
}
);
layerId = m005;
shapes = (
{
closed = 1;
nodes = (
(181,0,o),
(301,0,o),
(422,0,cs),
(446,0,o),
(469,13,o),
(469,37,cs),
(469,72,o),
(446,97,o),
(422,95,cs),
(321,85,o),
(221,76,o),
(120,75,cs),
(114,75,o),
(110,79,o),
(110,85,cs),
(114,132,o),
(144,180,o),
(228,220,cs),
(303,256,o),
(460,304,o),
(460,430,cs),
(460,546,o),
(377,610,o),
(228,610,cs),
(167,610,o),
(103,597,o),
(47,573,cs),
(25,563,o),
(9,544,o),
(14,520,cs),
(21,485,o),
(56,477,o),
(80,492,cs),
(124,520,o),
(169,535,o),
(228,535,cs),
(289,535,o),
(370,511,o),
(370,430,cs),
(370,349,o),
(270,325,o),
(185,282,cs),
(86,233,o),
(13,163,o),
(12,51,cs),
(13,18,o),
(28,-13,o),
(60,-10,cs)
);
}
);
width = 509;
},
{
hints = (
{
horizontal = 1;
place = (0,70);
type = Stem;
},
{
horizontal = 1;
place = (535,75);
type = Stem;
},
{
place = (14,118);
type = Stem;
},
{
place = (342,122);
type = Stem;
}
);
layerId = m002;
shapes = (
{
closed = 1;
nodes = (
(234,0,o),
(352,0,o),
(473,0,cs),
(525,0,o),
(570,35,o),
(570,87,cs),
(570,152,o),
(523,199,o),
(469,195,cs),
(407,189,o),
(346,183,o),
(286,179,cs),
(261,177,o),
(252,200,o),
(273,212,cs),
(281,217,o),
(290,221,o),
(301,225,cs),
(374,255,o),
(561,270,o),
(561,413,cs),
(561,540,o),
(452,625,o),
(279,625,cs),
(212,625,o),
(140,610,o),
(78,584,cs),
(34,564,o),
(6,522,o),
(16,475,cs),
(30,406,o),
(104,381,o),
(158,415,cs),
(197,440,o),
(228,450,o),
(279,450,cs),
(333,450,o),
(371,437,o),
(371,413,cs),
(371,381,o),
(303,372,o),
(213,327,cs),
(104,273,o),
(14,238,o),
(13,101,cs),
(15,36,o),
(55,-16,o),
(115,-10,cs)
);
}
);
width = 560;
},
{
hints = (
{
horizontal = 1;
place = (0,70);
type = Stem;
},
{
horizontal = 1;
place = (535,75);
type = Stem;
},
{
place = (14,118);
type = Stem;
},
{
place = (342,122);
type = Stem;
}
);
layerId = m003;
shapes = (
{
closed = 1;
nodes = (
(164,0,o),
(284,0,o),
(405,0,cs),
(426,0,o),
(442,9,o),
(442,27,cs),
(442,58,o),
(425,77,o),
(406,75,cs),
(301,65,o),
(196,54,o),
(90,55,cs),
(85,55,o),
(83,57,o),
(83,62,cs),
(81,116,o),
(111,183,o),
(207,229,cs),
(282,265,o),
(433,311,o),
(433,430,cs),
(433,551,o),
(357,610,o),
(211,610,cs),
(151,610,o),
(89,597,o),
(34,574,cs),
(14,565,o),
(3,551,o),
(7,532,cs),
(13,503,o),
(37,498,o),
(58,510,cs),
(103,539,o),
(150,555,o),
(211,555,cs),
(274,555,o),
(363,529,o),
(363,430,cs),
(363,341,o),
(256,316,o),
(172,273,cs),
(75,225,o),
(6,149,o),
(5,41,cs),
(6,10,o),
(17,-12,o),
(42,-10,cs)
);
}
);
width = 492;
}
);
metricLeft = "=H/2";
metricRight = "=O";
note = two;
unicode = 50;
},
{
glyphname = three;
lastChange = "2024-03-31 17:35:07 +0000";
layers = (
{
hints = (
{
horizontal = 1;
place = (-78,70);
type = Stem;
},
{
horizontal = 1;
place = (282,64);
type = Stem;
},
{
horizontal = 1;
place = (531,69);
type = Stem;
},
{
place = (340,116);
type = Stem;
}
);
layerId = m005;
shapes = (
{
closed = 1;
nodes = (
(363,-77,o),
(456,11,o),
(456,146,cs),
(456,273,o),
(374,354,o),
(238,340,cs),
(228,339,o),
(226,345,o),
(232,351,cs),
(408,534,ls),
(439,566,o),
(416,600,o),
(372,600,cs),
(69,600,ls),
(44,600,o),
(20,586,o),
(20,561,cs),
(20,534,o),
(44,507,o),
(69,510,cs),
(139,519,o),
(207,520,o),
(277,520,cs),
(285,520,o),
(287,514,o),
(282,508,cs),
(131,335,ls),
(115,316,o),
(105,307,o),
(106,283,cs),
(107,254,o),
(143,257,o),
(205,267,cs),
(299,282,o),
(356,242,o),
(356,146,cs),
(356,54,o),
(307,13,o),
(220,13,cs),
(171,13,o),
(122,23,o),
(86,40,cs),
(48,58,o),
(24,25,o),
(24,-4,cs),
(24,-29,o),
(31,-46,o),
(55,-54,cs),
(104,-70,o),
(161,-77,o),
(220,-77,cs)
);
}
);
width = 476;
},
{
hints = (
{
horizontal = 1;
place = (-78,70);
type = Stem;
},
{
horizontal = 1;
place = (282,64);
type = Stem;
},
{
horizontal = 1;
place = (531,69);
type = Stem;
},
{
place = (340,116);
type = Stem;
}
);
layerId = m002;
shapes = (
{
closed = 1;
nodes = (
(415,-92,o),
(531,18,o),
(531,146,cs),
(531,254,o),
(480,338,o),
(393,373,cs),
(374,381,o),
(374,392,o),
(388,406,cs),
(449,464,ls),
(512,524,o),
(486,615,o),
(397,615,cs),
(94,615,ls),
(41,615,o),
(-5,579,o),
(-5,526,cs),
(-5,469,o),
(45,419,o),
(100,425,cs),
(118,427,o),
(136,429,o),
(153,431,cs),
(177,433,o),
(181,414,o),
(162,400,cs),
(118,368,ls),
(89,347,o),
(79,320,o),
(81,281,cs),
(83,212,o),
(142,202,o),
(238,218,cs),
(312,229,o),
(331,180,o),
(331,146,cs),
(331,112,o),
(314,98,o),
(245,98,cs),
(201,98,o),
(163,106,o),
(132,120,cs),
(61,154,o),
(-1,97,o),
(-1,31,cs),
(-1,-21,o),
(24,-53,o),
(64,-66,cs),
(118,-84,o),
(183,-92,o),
(245,-92,cs)
);
}
);
width = 526;
},
{
hints = (
{
horizontal = 1;
place = (-78,70);
type = Stem;
},
{
horizontal = 1;
place = (282,64);
type = Stem;
},
{
horizontal = 1;
place = (531,69);
type = Stem;
},
{
place = (340,116);
type = Stem;
}
);
layerId = m003;
shapes = (
{
closed = 1;
nodes = (
(354,-77,o),
(441,5,o),
(441,146,cs),
(441,280,o),
(352,357,o),
(198,324,cs),
(191,322,o),
(189,326,o),
(193,331,cs),
(396,551,ls),
(420,578,o),
(406,600,o),
(367,600,cs),
(64,600,ls),
(42,600,o),
(25,590,o),
(25,571,cs),
(25,548,o),
(43,528,o),
(63,530,cs),
(142,541,o),
(221,540,o),
(299,540,cs),
(305,540,o),
(307,535,o),
(303,531,cs),
(134,328,ls),
(118,308,o),
(110,303,o),
(111,283,cs),
(112,265,o),
(137,267,o),
(198,277,cs),
(298,293,o),
(361,249,o),
(361,146,cs),
(361,38,o),
(307,-7,o),
(215,-7,cs),
(165,-7,o),
(114,3,o),
(77,21,cs),
(46,35,o),
(29,12,o),
(29,-14,cs),
(29,-37,o),
(34,-48,o),
(53,-55,cs),
(101,-70,o),
(157,-77,o),
(215,-77,cs)
);
}
);
width = 466;
}
);
metricLeft = "=T";
metricRight = "=S";
note = three;
unicode = 51;
},
